<?xml version="1.0" encoding="UTF-8"?>
<svg width="28px" height="28px" viewBox="0 0 28 28" version="1.1" xmlns="http://www.w3.org/2000/svg" xmlns:xlink="http://www.w3.org/1999/xlink">
    <!-- Generator: Sketch 49.2 (51160) - http://www.bohemiancoding.com/sketch -->
    <title>Artboard 3</title>
    <desc>Created with Sketch.</desc>
    <defs>
        <circle id="path-1" cx="9.13461538" cy="9.13461538" r="9.13461538"></circle>
    </defs>
    <g id="Artboard-3" stroke="none" stroke-width="1" fill="none" fill-rule="evenodd">
        <g id="united-states" transform="translate(4.000000, 5.000000)" fill-rule="nonzero">
            <g id="Oval">
                <use fill="#F0F0F0" fill-rule="evenodd" xlink:href="#path-1"></use>
                <circle stroke="#FFFFFF" stroke-width="1.5" cx="9.13461538" cy="9.13461538" r="9.88461538"></circle>
            </g>
            <g id="Group-2">
                <g id="Group" transform="translate(0.285457, 1.962515)" fill="#D80027">
                    <path d="M8.45223184,7.17228269 L17.9842312,7.17228269 C17.9842312,6.34779133 17.8743276,5.54906309 17.6695429,4.789265 L8.45223184,4.789265 L8.45223184,7.17228269 Z" id="Shape"></path>
                    <path d="M8.45223184,2.406283 L16.6434782,2.406283 C16.08429,1.49379736 15.3693097,0.68725455 14.5356835,0.023265315 L8.45223184,0.023265315 L8.45223184,2.406283 Z" id="Shape"></path>
                    <path d="M8.84938361,16.3071303 C10.9992486,16.3071303 12.975266,15.5640675 14.5356835,14.3213001 L3.16308371,14.3213001 C4.72350124,15.5640675 6.69951864,16.3071303 8.84938361,16.3071303 Z" id="Shape"></path>
                    <path d="M1.055289,11.9382824 L16.6434782,11.9382824 C17.092406,11.2057461 17.4405651,10.4050196 17.6695429,9.55526469 L0.0292243757,9.55526469 C0.258202177,10.4050196 0.606361193,11.2057461 1.055289,11.9382824 Z" id="Shape"></path>
                </g>
                <path d="M4.23132512,1.42649865 L5.06375263,1.42649865 L4.28945125,1.98902682 L4.5852201,2.89924129 L3.8109544,2.33671312 L3.0366887,2.89924129 L3.29217248,2.11291504 C2.61043044,2.68079552 2.01289814,3.3461238 1.52048528,4.08745493 L1.78720891,4.08745493 L1.29433218,4.44552471 C1.21754432,4.57362342 1.14389648,4.70375601 1.07331731,4.83581543 L1.30867638,5.56019757 L0.869572566,5.24116399 C0.760421049,5.47241962 0.660582557,5.70888484 0.570842097,5.95027419 L0.830143855,6.74841121 L1.78720891,6.74841121 L1.01290753,7.31093938 L1.30867638,8.22115385 L0.534410682,7.65862568 L0.0706148588,7.99560735 C0.0241924579,8.36877066 0,8.7488563 0,9.13461538 L9.13461538,9.13461538 C9.13461538,4.08973858 9.13461538,3.49498948 9.13461538,0 C7.33010066,0 5.64793983,0.52345628 4.23132512,1.42649865 Z M4.5852201,8.22115385 L3.8109544,7.65862568 L3.0366887,8.22115385 L3.33245756,7.31093938 L2.55815617,6.74841121 L3.51522123,6.74841121 L3.8109544,5.83819674 L4.10668758,6.74841121 L5.06375263,6.74841121 L4.28945125,7.31093938 L4.5852201,8.22115385 Z M4.28945125,4.6499831 L4.5852201,5.56019757 L3.8109544,4.9976694 L3.0366887,5.56019757 L3.33245756,4.6499831 L2.55815617,4.08745493 L3.51522123,4.08745493 L3.8109544,3.17724046 L4.10668758,4.08745493 L5.06375263,4.08745493 L4.28945125,4.6499831 Z M7.86176382,8.22115385 L7.08749812,7.65862568 L6.31323242,8.22115385 L6.60900128,7.31093938 L5.83469989,6.74841121 L6.79176495,6.74841121 L7.08749812,5.83819674 L7.3832313,6.74841121 L8.34029635,6.74841121 L7.56599497,7.31093938 L7.86176382,8.22115385 Z M7.56599497,4.6499831 L7.86176382,5.56019757 L7.08749812,4.9976694 L6.31323242,5.56019757 L6.60900128,4.6499831 L5.83469989,4.08745493 L6.79176495,4.08745493 L7.08749812,3.17724046 L7.3832313,4.08745493 L8.34029635,4.08745493 L7.56599497,4.6499831 Z M7.56599497,1.98902682 L7.86176382,2.89924129 L7.08749812,2.33671312 L6.31323242,2.89924129 L6.60900128,1.98902682 L5.83469989,1.42649865 L6.79176495,1.42649865 L7.08749812,0.51628418 L7.3832313,1.42649865 L8.34029635,1.42649865 L7.56599497,1.98902682 Z" id="Shape" fill="#0052B4"></path>
            </g>
        </g>
    </g>
</svg>