<svg id="Layer_1" data-name="Layer 1" xmlns="http://www.w3.org/2000/svg" viewBox="0 0 450 75"><defs><style>.cls-1{fill:#fff;}</style></defs><title>f21_logo_white</title><path class="cls-1" d="M.3.6H31.8v9.9H10.9V32.9H29.1v9.9H10.9V74.3H.3Z"/><path class="cls-1" d="M46.6,18c0-12,9.1-18,17.7-18S82,6,82,18V57c0,12-9.1,18-17.7,18S46.6,69,46.6,57ZM57.2,57c0,5.1,3.3,7.5,7.1,7.5s7.2-2.4,7.2-7.5V18c0-5.1-3.3-7.5-7.2-7.5s-7.1,2.4-7.1,7.5Z"/><path class="cls-1" d="M99,.6h17c12.5,0,18.6,7.4,18.6,21.7,0,8.5-2.4,14.7-9.1,18.4l11.4,33.7H125.7l-9.8-31.5h-6.3V74.4H99Zm10.6,33h6c7.4,0,8.5-4.1,8.5-11.5s-1.2-11.5-9-11.5h-5.5Z"/><path class="cls-1" d="M151.7.6h31.5v9.9H162.3V32.2h18.2v9.9H162.3V63.8h20.9V74.4H151.7Z"/><path class="cls-1" d="M221.1,74.4h-9.3L196.8.6H208l8.4,51.5h.2L225.1.6h11.2Z"/><path class="cls-1" d="M252,.6h31.5v9.9H262.6V32.2h18.2v9.9H262.6V63.8h20.9V74.4H252Z"/><path class="cls-1" d="M299.8.6h17c12.5,0,18.6,7.4,18.6,21.7,0,8.5-2.4,14.7-9.1,18.4l11.4,33.7H326.5l-9.8-31.5h-6.3V74.4H299.8Zm10.6,33h6c7.4,0,8.5-4.1,8.5-11.5s-1.2-11.5-9-11.5h-5.5Z"/><path class="cls-1" d="M384.3,64.4l19.1-35.9c1.9-3.6,1.9-5.7,1.9-9.7,0-3.7,0-8.2-5.2-8.2-3.1,0-5.2,1.9-5.2,5.3v6H384.3V16.1A16,16,0,0,1,400.2,0c11,0,15.6,8.7,15.6,18.5,0,7.2-.2,9-3.5,15.3L396.8,63.7h19.1V74.3H384.4V64.4Z"/><path class="cls-1" d="M439.4,11.8H428.8V.6H450V74.4H439.4Z"/></svg>