<?xml version="1.0" encoding="utf-8"?>
<!-- Generator: Adobe Illustrator 20.1.0, SVG Export Plug-In . SVG Version: 6.00 Build 0)  -->
<svg version="1.1" id="Layer_1" xmlns="http://www.w3.org/2000/svg" xmlns:xlink="http://www.w3.org/1999/xlink" x="0px" y="0px"
	 viewBox="0 0 450 75" style="enable-background:new 0 0 450 75;" xml:space="preserve">
<g>
	<path d="M0.3,0.6h31.5v9.9H10.9v22.4h18.2v9.9H10.9v31.5H0.3V0.6z"/>
	<path d="M46.6,18c0-12,9.1-18,17.7-18C72.9,0,82,6,82,18v39c0,12-9.1,18-17.7,18c-8.6,0-17.7-6-17.7-18V18z M57.2,57
		c0,5.1,3.3,7.5,7.1,7.5c3.8,0,7.2-2.4,7.2-7.5V18c0-5.1-3.3-7.5-7.2-7.5c-3.8,0-7.1,2.4-7.1,7.5V57z"/>
	<path d="M99,0.6h17c12.5,0,18.6,7.4,18.6,21.7c0,8.5-2.4,14.7-9.1,18.4l11.4,33.7h-11.2l-9.8-31.5h-6.3v31.5H99V0.6z M109.6,33.6h6
		c7.4,0,8.5-4.1,8.5-11.5c0-7.5-1.2-11.5-9-11.5h-5.5V33.6z"/>
	<path d="M151.7,0.6h31.5v9.9h-20.9v21.7h18.2v9.9h-18.2v21.7h20.9v10.6h-31.5V0.6z"/>
	<path d="M221.1,74.4h-9.3l-15-73.8H208l8.4,51.5h0.2l8.5-51.5h11.2L221.1,74.4z"/>
	<path d="M252,0.6h31.5v9.9h-20.9v21.7h18.2v9.9h-18.2v21.7h20.9v10.6H252V0.6z"/>
	<path d="M299.8,0.6h17c12.5,0,18.6,7.4,18.6,21.7c0,8.5-2.4,14.7-9.1,18.4l11.4,33.7h-11.2l-9.8-31.5h-6.3v31.5h-10.6V0.6z
		 M310.4,33.6h6c7.4,0,8.5-4.1,8.5-11.5c0-7.5-1.2-11.5-9-11.5h-5.5V33.6z"/>
	<path d="M384.3,64.4l19.1-35.9c1.9-3.6,1.9-5.7,1.9-9.7c0-3.7,0-8.2-5.2-8.2c-3.1,0-5.2,1.9-5.2,5.3v6h-10.6v-5.8
		c0-8.8,7-16.1,15.9-16.1c11,0,15.6,8.7,15.6,18.5c0,7.2-0.2,9-3.5,15.3l-15.5,29.9h19.1v10.6h-31.5V64.4z"/>
	<path d="M439.4,11.8l-10.6,0V0.6l10.6,0H450v73.8h-10.6V11.8z"/>
</g>
</svg>
