<?xml version="1.0" encoding="UTF-8"?>
<svg width="28px" height="28px" viewBox="0 0 28 28" version="1.1" xmlns="http://www.w3.org/2000/svg" xmlns:xlink="http://www.w3.org/1999/xlink">
    <!-- Generator: Sketch 49.3 (51167) - http://www.bohemiancoding.com/sketch -->
    <title>Artboard 3</title>
    <desc>Created with Sketch.</desc>
    <defs></defs>
    <g id="Artboard-3" stroke="none" stroke-width="1" fill="none" fill-rule="evenodd">
        <g id="united-states" transform="translate(3.000000, 3.000000)" fill-rule="nonzero">
            <circle id="Oval" fill="#F0F0F0" cx="11.0576923" cy="11.0576923" r="11.0576923"></circle>
            <g id="Group-2">
                <g id="Group" transform="translate(0.345553, 2.375676)" fill="#D80027">
                    <path d="M10.2316491,8.68223694 L21.7703852,8.68223694 C21.7703852,7.68416845 21.6373439,6.7172869 21.3894466,5.79753132 L10.2316491,5.79753132 L10.2316491,8.68223694 Z" id="Shape"></path>
                    <path d="M10.2316491,2.91286889 L20.1473684,2.91286889 C19.4704563,1.80828102 18.6049539,0.831939718 17.5958274,0.028163276 L10.2316491,0.028163276 L10.2316491,2.91286889 Z" id="Shape"></path>
                    <path d="M10.7124117,19.7402103 C13.3148799,19.7402103 15.7069009,18.8407133 17.5958274,17.3363106 L3.82899607,17.3363106 C5.71792255,18.8407133 8.10994362,19.7402103 10.7124117,19.7402103 Z" id="Shape"></path>
                    <path d="M1.2774551,14.451605 L20.1473684,14.451605 C20.6908073,13.5648505 21.112263,12.5955501 21.3894466,11.5668994 L0.0353768759,11.5668994 C0.31256053,12.5955501 0.73401618,13.5648505 1.2774551,14.451605 Z" id="Shape"></path>
                </g>
                <path d="M5.12213041,1.72681415 L6.12980581,1.72681415 L5.19249361,2.40776931 L5.5505296,3.50960787 L4.61326059,2.82865272 L3.67599159,3.50960787 L3.98526142,2.55773926 C3.15999474,3.24517353 2.43666617,4.05057091 1.84058744,4.94797175 L2.16346342,4.94797175 L1.56682317,5.38142465 C1.47386944,5.53649151 1.3847168,5.69402043 1.29927885,5.85388184 L1.5841872,6.73076547 L1.05264047,6.34456693 C0.920509691,6.62450796 0.799652569,6.91075533 0.691019381,7.20296349 L1.00491098,8.16912936 L2.16346342,8.16912936 L1.22615122,8.85008451 L1.5841872,9.95192308 L0.646918194,9.27096792 L0.0854811448,9.6788931 C0.029285607,10.1306171 0,10.5907208 0,11.0576923 L11.0576923,11.0576923 C11.0576923,4.95073618 11.0576923,4.23077674 11.0576923,0 C8.87327975,0 6.83697979,0.633657602 5.12213041,1.72681415 Z M5.5505296,9.95192308 L4.61326059,9.27096792 L3.67599159,9.95192308 L4.03402757,8.85008451 L3.09671537,8.16912936 L4.2552678,8.16912936 L4.61326059,7.06729079 L4.97125338,8.16912936 L6.12980581,8.16912936 L5.19249361,8.85008451 L5.5505296,9.95192308 Z M5.19249361,5.62892691 L5.5505296,6.73076547 L4.61326059,6.04981032 L3.67599159,6.73076547 L4.03402757,5.62892691 L3.09671537,4.94797175 L4.2552678,4.94797175 L4.61326059,3.84613319 L4.97125338,4.94797175 L6.12980581,4.94797175 L5.19249361,5.62892691 Z M9.516872,9.95192308 L8.57960299,9.27096792 L7.64233398,9.95192308 L8.00036997,8.85008451 L7.06305777,8.16912936 L8.2216102,8.16912936 L8.57960299,7.06729079 L8.93759578,8.16912936 L10.0961482,8.16912936 L9.15883601,8.85008451 L9.516872,9.95192308 Z M9.15883601,5.62892691 L9.516872,6.73076547 L8.57960299,6.04981032 L7.64233398,6.73076547 L8.00036997,5.62892691 L7.06305777,4.94797175 L8.2216102,4.94797175 L8.57960299,3.84613319 L8.93759578,4.94797175 L10.0961482,4.94797175 L9.15883601,5.62892691 Z M9.15883601,2.40776931 L9.516872,3.50960787 L8.57960299,2.82865272 L7.64233398,3.50960787 L8.00036997,2.40776931 L7.06305777,1.72681415 L8.2216102,1.72681415 L8.57960299,0.624975586 L8.93759578,1.72681415 L10.0961482,1.72681415 L9.15883601,2.40776931 Z" id="Shape" fill="#0052B4"></path>
            </g>
        </g>
    </g>
</svg>