<?xml version="1.0" encoding="UTF-8"?>
<svg width="28px" height="28px" viewBox="0 0 28 28" version="1.1" xmlns="http://www.w3.org/2000/svg" xmlns:xlink="http://www.w3.org/1999/xlink">
    <!-- Generator: Sketch 49.3 (51167) - http://www.bohemiancoding.com/sketch -->
    <title>Artboard 3</title>
    <desc>Created with Sketch.</desc>
    <defs></defs>
    <g id="Artboard-3" stroke="none" stroke-width="1" fill="none" fill-rule="evenodd">
        <g id="EU" transform="translate(3.000000, 3.000000)" fill-rule="nonzero">
            <g id="european-union">
                <circle id="Oval" fill="#0052B4" cx="11.5" cy="11.5" r="11.5"></circle>
                <g id="Group" transform="translate(4.474403, 4.474403)" fill="#FFDA44">
                    <polygon id="Shape" points="7.02564231 0.00783624311 7.39894471 1.1566565 8.60680701 1.1566565 7.62957346 1.86664715 8.00287586 3.01546741 7.02564231 2.30543173 6.04836371 3.01546741 6.42166612 1.86664715 5.44443256 1.1566565 6.6523399 1.1566565"></polygon>
                    <polygon id="Shape" points="2.0632738 2.0632738 3.13963133 2.61163068 3.9937368 1.75757025 3.80472121 2.95057071 4.8810337 3.49897262 3.68798821 3.68794317 3.49901766 4.8810337 2.95061575 3.80472121 1.75761529 3.9937368 2.61172075 3.13963133"></polygon>
                    <polygon id="Shape" points="0.00788127899 7.02559727 1.15670154 6.65229486 1.15670154 5.44438753 1.86664715 6.42166612 3.01551245 6.04836371 2.30543173 7.02559727 3.01551245 8.00283083 1.86664715 7.62957346 1.15670154 8.60680701 1.15670154 7.39889968"></polygon>
                    <polygon id="Shape" points="2.0632738 11.9879207 2.61167571 10.9115632 1.75761529 10.0574577 2.95066078 10.2465184 3.49897262 9.17020587 3.68798821 10.3632514 4.88098867 10.5522219 3.80481128 11.1006238 3.9937368 12.2936243 3.13963133 11.4395188"></polygon>
                    <polygon id="Shape" points="7.02564231 14.0433583 6.65229486 12.894538 5.44443256 12.894538 6.42171116 12.1845474 6.04836371 11.0358172 7.02564231 11.7457628 8.00287586 11.0358172 7.62957346 12.1845474 8.60680701 12.894538 7.39889968 12.894538"></polygon>
                    <polygon id="Shape" points="11.9879658 11.9879207 10.9116533 11.4395639 10.0575028 12.2936693 10.2465184 11.1005788 9.17029594 10.5522219 10.3632964 10.3632514 10.552267 9.17020587 11.1006238 10.2465184 12.2936243 10.0574577 11.4395188 10.9116533"></polygon>
                    <polygon id="Shape" points="14.0433583 7.02559727 12.894538 7.39889968 12.894538 8.60680701 12.1845474 7.62952842 11.0358172 8.00283083 11.7458078 7.02559727 11.0358172 6.04836371 12.1845924 6.42166612 12.894538 5.44438753 12.894538 6.6523399"></polygon>
                    <polygon id="Shape" points="11.9879658 2.0632738 11.4395639 3.13963133 12.2936693 3.9937368 11.1005788 3.80467617 10.552267 4.88098867 10.3632964 3.68794317 9.17029594 3.49892758 10.2465184 2.95057071 10.0575028 1.75761529 10.9116983 2.61167571"></polygon>
                </g>
            </g>
        </g>
    </g>
</svg>