<?xml version="1.0" encoding="UTF-8"?>
<svg width="28px" height="28px" viewBox="0 0 28 28" version="1.1" xmlns="http://www.w3.org/2000/svg" xmlns:xlink="http://www.w3.org/1999/xlink">
    <!-- Generator: Sketch 49.3 (51167) - http://www.bohemiancoding.com/sketch -->
    <title>Artboard 3</title>
    <desc>Created with Sketch.</desc>
    <defs></defs>
    <g id="Artboard-3" stroke="none" stroke-width="1" fill="none" fill-rule="evenodd">
        <g id="hong-kong" transform="translate(3.000000, 3.000000)" fill-rule="nonzero">
            <circle id="Oval" fill="#D80027" cx="11.5" cy="11.5" r="11.5"></circle>
            <g id="Group" transform="translate(6.037500, 5.606250)" fill="#F0F0F0">
                <path d="M6.68655642,3.12961719 C6.4262179,4.21668164 5.96366732,4.00936719 5.73666537,4.95739844 C4.39948833,4.63463477 3.57596304,3.28473242 3.89747082,1.94224219 C4.21884436,0.599841797 5.5636284,-0.226900391 6.90085019,0.0958632812 C6.44680156,1.99188086 6.91946498,2.15737305 6.68655642,3.12961719 Z" id="Shape"></path>
                <path d="M3.21673346,3.93515625 C4.1661323,4.51958984 3.82677043,4.89724805 4.65468093,5.40697656 C3.93568482,6.58397461 2.40242607,6.95300781 1.22996304,6.23124805 C0.0575447471,5.50948828 -0.310142023,3.97015039 0.408854086,2.79315234 C2.06476459,3.81251953 2.3674786,3.41240039 3.21673346,3.93515625 Z" id="Shape"></path>
                <path d="M2.90757588,7.49710156 C3.75468288,6.77125391 4.00745914,7.2119375 4.74618872,6.57898828 C5.63911673,7.62912695 5.51489883,9.20714258 4.46889105,10.1035586 C3.42279377,10.9999746 1.85091829,10.8751367 0.958124514,9.82508789 C2.43540467,8.55905469 2.14987354,8.14626758 2.90757588,7.49710156 Z" id="Shape"></path>
                <path d="M6.18646304,8.89295898 C5.76047082,7.85989062 6.25608949,7.75459375 5.88473346,6.85377539 C7.15550584,6.32580859 8.61211284,6.93198437 9.13807004,8.2077207 C9.66398249,9.48345703 9.06007588,10.945709 7.7893035,11.4737207 C7.04663619,9.67194922 6.56743969,9.81700195 6.18646304,8.89295898 Z" id="Shape"></path>
                <path d="M8.52208171,6.19364844 C7.41177237,6.28111133 7.46506615,5.77529102 6.49696304,5.85156836 C6.3894358,4.47520703 7.41387549,3.27170508 8.78497082,3.16366797 C10.1560214,3.05590039 11.3547957,4.08425195 11.4622782,5.46074805 C9.52575875,5.61316797 9.5150642,6.1155293 8.52208171,6.19364844 Z" id="Shape"></path>
            </g>
        </g>
    </g>
</svg>