<?xml version="1.0" encoding="UTF-8"?>
<svg width="28px" height="28px" viewBox="0 0 28 28" version="1.1" xmlns="http://www.w3.org/2000/svg" xmlns:xlink="http://www.w3.org/1999/xlink">
    <!-- Generator: Sketch 49.2 (51160) - http://www.bohemiancoding.com/sketch -->
    <title>Artboard 3</title>
    <desc>Created with Sketch.</desc>
    <defs>
        <circle id="path-1" cx="9.5" cy="9.5" r="9.5"></circle>
    </defs>
    <g id="Artboard-3" stroke="none" stroke-width="1" fill="none" fill-rule="evenodd">
        <g id="united-kingdom" transform="translate(4.000000, 5.000000)" fill-rule="nonzero">
            <g id="Oval">
                <use fill="#F0F0F0" fill-rule="evenodd" xlink:href="#path-1"></use>
                <circle stroke="#FFFFFF" stroke-width="1.5" cx="9.5" cy="9.5" r="10.25"></circle>
            </g>
            <g id="Group" transform="translate(0.296875, 0.296875)" fill="#0052B4">
                <path d="M1.66695313,3.41933203 C0.920720703,4.39022461 0.35803125,5.50925781 0.0303925781,6.72492383 L4.97254492,6.72492383 L1.66695313,3.41933203 Z" id="Shape"></path>
                <path d="M18.3758574,6.72492383 C18.0482188,5.50929492 17.4854922,4.39026172 16.7392969,3.41936914 L13.4337793,6.72492383 L18.3758574,6.72492383 Z" id="Shape"></path>
                <path d="M0.0303925781,11.6814375 C0.358068359,12.8970664 0.920757812,14.0160996 1.66695312,14.9869551 L4.97243359,11.6814375 L0.0303925781,11.6814375 Z" id="Shape"></path>
                <path d="M14.986918,1.66699023 C14.0160254,0.920757812 12.8970293,0.358068359 11.6813633,0.0303925781 L11.6813633,4.97250781 L14.986918,1.66699023 Z" id="Shape"></path>
                <path d="M3.41933203,16.7392598 C4.39022461,17.4854922 5.50925781,18.0481816 6.72488672,18.3758574 L6.72488672,13.4337793 L3.41933203,16.7392598 Z" id="Shape"></path>
                <path d="M6.72484961,0.0303925781 C5.5092207,0.358068359 4.3901875,0.920757812 3.41933203,1.66695312 L6.72484961,4.9724707 L6.72484961,0.0303925781 Z" id="Shape"></path>
                <path d="M11.6814004,18.3758574 C12.8970293,18.0481816 14.0160625,17.4854922 14.986918,16.7392969 L11.6814004,13.4337793 L11.6814004,18.3758574 Z" id="Shape"></path>
                <path d="M13.4337793,11.6814375 L16.7392969,14.9869922 C17.4854922,14.0161367 18.0482188,12.8970664 18.3758574,11.6814375 L13.4337793,11.6814375 Z" id="Shape"></path>
            </g>
            <g id="Group" fill="#D80027">
                <path d="M18.919584,8.26088086 L10.7391934,8.26088086 L10.7391563,8.26088086 L10.7391563,0.0804160156 C10.3335137,0.027609375 9.9199668,0 9.5,0 C9.07995898,0 8.66648633,0.027609375 8.26088086,0.0804160156 L8.26088086,8.26080664 L8.26088086,8.26084375 L0.0804160156,8.26084375 C0.027609375,8.66648633 0,9.0800332 0,9.5 C0,9.92004102 0.027609375,10.3335137 0.0804160156,10.7391191 L8.26080664,10.7391191 L8.26084375,10.7391191 L8.26084375,18.919584 C8.66648633,18.9723906 9.07995898,19 9.5,19 C9.9199668,19 10.3335137,18.9724277 10.7391191,18.919584 L10.7391191,10.7391934 L10.7391191,10.7391563 L18.919584,10.7391563 C18.9723906,10.3335137 19,9.92004102 19,9.5 C19,9.0800332 18.9723906,8.66648633 18.919584,8.26088086 Z" id="Shape"></path>
                <path d="M11.9782754,11.9782754 L16.217502,16.2175391 C16.4124746,16.0226406 16.5984668,15.818873 16.7759238,15.6076465 L13.1465527,11.9782754 L11.9782754,11.9782754 Z" id="Shape"></path>
                <path d="M7.02172461,11.9783125 L7.02165039,11.9783125 L2.78246094,16.217502 C2.97735937,16.4124746 3.18112695,16.5984668 3.39235352,16.7759238 L7.02172461,13.1464785 L7.02172461,11.9783125 Z" id="Shape"></path>
                <path d="M7.02172461,7.02179883 L7.02172461,7.02172461 L2.78249805,2.78246094 C2.58752539,2.97735937 2.4015332,3.18112695 2.22407617,3.39235352 L5.85348437,7.02176172 L7.02172461,7.02179883 Z" id="Shape"></path>
                <path d="M11.9782754,7.02179883 L16.2175391,2.78249805 C16.0226406,2.58752539 15.818873,2.4015332 15.6076465,2.22411328 L11.9782754,5.85352148 L11.9782754,7.02179883 Z" id="Shape"></path>
            </g>
        </g>
    </g>
</svg>