<?xml version="1.0" encoding="UTF-8"?>
<svg width="28px" height="28px" viewBox="0 0 28 28" version="1.1" xmlns="http://www.w3.org/2000/svg" xmlns:xlink="http://www.w3.org/1999/xlink">
    <!-- Generator: Sketch 49.2 (51160) - http://www.bohemiancoding.com/sketch -->
    <title>Artboard 3</title>
    <desc>Created with Sketch.</desc>
    <defs>
        <circle id="path-1" cx="9.5" cy="9.5" r="9.5"></circle>
    </defs>
    <g id="Artboard-3" stroke="none" stroke-width="1" fill="none" fill-rule="evenodd">
        <g id="new-zealand" transform="translate(4.000000, 5.000000)" fill-rule="nonzero">
            <g id="Oval-Copy">
                <use fill="#0052B4" fill-rule="evenodd" xlink:href="#path-1"></use>
                <circle stroke="#FFFFFF" stroke-width="1.5" cx="9.5" cy="9.5" r="10.25"></circle>
            </g>
            <g id="Group" fill="#F0F0F0">
                <path d="M9.5,4.95651367 C9.5,3.28492187 9.5,2.18963867 9.50003711,0 L9.4984043,0 C4.2524375,0.000890625 0,4.25381055 0,9.5 L4.95651367,9.5 L4.95651367,6.7089668 L7.74758398,9.5 L9.47461719,9.5 C9.48307812,9.49153906 9.49157617,9.48307813 9.50003711,9.47458008 C9.50003711,8.83455469 9.50003711,8.26347852 9.50003711,7.74762109 L6.70892969,4.95651367 L9.5,4.95651367 Z" id="Shape"></path>
            </g>
            <g id="Group" transform="translate(1.224609, 1.224609)" fill="#D80027">
                <path d="M3.58161133,0.0145097656 C2.09578906,0.860566406 0.860566406,2.09578906 0.0145097656,3.58161133 L0.0145097656,8.27539062 L2.49278516,8.27539062 L2.49278516,2.49285937 L2.49278516,2.49278516 L8.27539062,2.49278516 C8.27539062,1.71115039 8.27539062,0.966513672 8.27539062,0.0145097656 L3.58161133,0.0145097656 Z" id="Shape"></path>
                <path d="M8.27539062,7.10715039 L4.90018164,3.73194141 C4.90018164,3.73194141 3.73194141,3.73201563 3.73194141,3.73194141 L3.73194141,3.73201563 L8.27539062,8.27539062 C8.27539062,8.27539062 8.27539062,7.46985742 8.27539062,7.10715039 Z" id="Shape"></path>
                <polygon id="Shape" points="15.2270898 5.82465039 15.4321191 6.45573242 16.0956719 6.45573242 15.5588477 6.84575195 15.7639141 7.47679687 15.2270898 7.08681445 14.6902285 7.47679687 14.8952949 6.84575195 14.3584336 6.45573242 15.0219863 6.45573242"></polygon>
                <polygon id="Shape" points="12.8550957 10.3680996 13.1626953 11.3147598 14.1580059 11.3147598 13.3527324 11.899752 13.6603691 12.846375 12.8550957 12.2613457 12.0498223 12.846375 12.357459 11.899752 11.5521855 11.3147598 12.5474961 11.3147598"></polygon>
                <polygon id="Shape" points="12.9446777 2.93334766 13.2010293 3.72225586 14.0304609 3.72225586 13.359375 4.2096875 13.6157266 4.99855859 12.9446777 4.51097852 12.273666 4.99855859 12.5299805 4.2096875 11.8589688 3.72225586 12.6883633 3.72225586"></polygon>
                <polygon id="Shape" points="10.6623398 5.79711523 10.9699023 6.74377539 11.96525 6.74377539 11.1599766 7.32876758 11.4676133 8.27539062 10.6623398 7.69036133 9.85706641 8.27539062 10.1647031 7.32876758 9.35942969 6.74377539 10.3547402 6.74377539"></polygon>
            </g>
        </g>
    </g>
</svg>