<?xml version="1.0" encoding="UTF-8"?>
<svg width="28px" height="28px" viewBox="0 0 28 28" version="1.1" xmlns="http://www.w3.org/2000/svg" xmlns:xlink="http://www.w3.org/1999/xlink">
    <!-- Generator: Sketch 49.2 (51160) - http://www.bohemiancoding.com/sketch -->
    <title>Artboard 3</title>
    <desc>Created with Sketch.</desc>
    <defs>
        <circle id="path-1" cx="9.5" cy="9.5" r="9.5"></circle>
    </defs>
    <g id="Artboard-3" stroke="none" stroke-width="1" fill="none" fill-rule="evenodd">
        <g id="china" transform="translate(4.000000, 5.000000)" fill-rule="nonzero">
            <g id="Oval">
                <use fill="#D80027" fill-rule="evenodd" xlink:href="#path-1"></use>
                <circle stroke="#FFFFFF" stroke-width="1.5" cx="9.5" cy="9.5" r="10.25"></circle>
            </g>
            <g id="Group" transform="translate(1.727273, 4.318182)" fill="#FFDA44">
                <polygon id="Shape" points="3.50293887 1.53074205 4.32562696 4.02094443 6.98726489 4.02094443 4.83561912 5.56267266 5.65830721 8.05287504 3.50293887 6.51480887 1.34757053 8.05287504 2.17398119 5.56267266 0.0186128527 4.02094443 2.68025078 4.02094443"></polygon>
                <polygon id="Shape" points="9.58561912 10.3453261 8.9565047 9.58361709 8.02586207 9.93883713 8.5656348 9.11487311 7.93652038 8.34950209 8.90066614 8.60218439 9.44416144 7.77822037 9.49627743 8.75965307 10.4641458 9.01233537 9.52978056 9.36389335"></polygon>
                <polygon id="Shape" points="10.8364028 8.11146804 11.1342085 7.17398008 10.3189655 6.60636042 11.3166144 6.59171217 11.6106975 5.65422422 11.9345611 6.58438805 12.93221 6.57340186 12.1318574 7.15933183 12.4519984 8.08949566 11.6367555 7.521876"></polygon>
                <polygon id="Shape" points="12.5227273 2.70626405 12.0834639 3.58882107 12.7981975 4.27362673 11.8117163 4.13446836 11.372453 5.01336332 11.2012147 4.04657886 10.211011 3.90742049 11.0969828 3.4496627 10.9257445 2.47921619 11.6404781 3.16402184"></polygon>
                <polygon id="Shape" points="9.61167712 0.0329585609 9.53722571 1.0107292 10.4641458 1.38059749 9.49255486 1.61496948 9.42182602 2.59640218 8.89694357 1.76145198 7.92535266 1.99582396 8.56935737 1.24510119 8.04075235 0.413813042 8.96767241 0.783681336"></polygon>
            </g>
        </g>
    </g>
</svg>