<?xml version="1.0" encoding="UTF-8"?>
<svg width="28px" height="28px" viewBox="0 0 28 28" version="1.1" xmlns="http://www.w3.org/2000/svg" xmlns:xlink="http://www.w3.org/1999/xlink">
    <!-- Generator: Sketch 49.2 (51160) - http://www.bohemiancoding.com/sketch -->
    <title>Artboard 3</title>
    <desc>Created with Sketch.</desc>
    <defs>
        <circle id="path-1" cx="9.5" cy="9.5" r="9.5"></circle>
    </defs>
    <g id="Artboard-3" stroke="none" stroke-width="1" fill="none" fill-rule="evenodd">
        <g id="canada" transform="translate(4.000000, 5.000000)" fill-rule="nonzero">
            <g id="Oval">
                <use fill="#F0F0F0" fill-rule="evenodd" xlink:href="#path-1"></use>
                <circle stroke="#FFFFFF" stroke-width="1.5" cx="9.5" cy="9.5" r="10.25"></circle>
            </g>
            <g id="Group" transform="translate(0.000000, 0.927734)" fill="#D80027">
                <path d="M19,8.57226563 C19,4.80588672 16.8081348,1.55154297 13.6304219,0.0149179687 L13.6304219,17.1295762 C16.8081348,15.5929883 19,12.3386445 19,8.57226563 Z" id="Shape"></path>
                <path d="M0,8.57226562 C0,12.3386445 2.19186523,15.5929883 5.36957812,17.1296133 L5.36957812,0.0149179688 C2.19186523,1.55154297 0,4.80588672 0,8.57226562 Z" id="Shape"></path>
                <polygon id="Shape" points="11.1521836 9.81138477 12.8043301 8.98529297 11.9782754 8.57226562 11.9782754 7.74617383 10.3260918 8.57226562 11.1521836 6.92008203 10.3260918 6.92008203 9.5 5.68096289 8.6739082 6.92008203 7.84781641 6.92008203 8.6739082 8.57226562 7.02172461 7.74617383 7.02172461 8.57226562 6.19566992 8.98529297 7.84781641 9.81138477 7.43478906 10.6374766 9.08697266 10.6374766 9.08697266 11.8765957 9.91302734 11.8765957 9.91302734 10.6374766 11.5652109 10.6374766"></polygon>
            </g>
        </g>
    </g>
</svg>