<?xml version="1.0" encoding="UTF-8"?>
<svg width="28px" height="28px" viewBox="0 0 28 28" version="1.1" xmlns="http://www.w3.org/2000/svg" xmlns:xlink="http://www.w3.org/1999/xlink">
    <!-- Generator: Sketch 49.3 (51167) - http://www.bohemiancoding.com/sketch -->
    <title>Artboard 3</title>
    <desc>Created with Sketch.</desc>
    <defs></defs>
    <g id="Artboard-3" stroke="none" stroke-width="1" fill="none" fill-rule="evenodd">
        <g id="mexico" transform="translate(3.000000, 3.000000)" fill-rule="nonzero">
            <circle id="Oval" fill="#F0F0F0" cx="11.5" cy="11.5" r="11.5"></circle>
            <path d="M23,11.5 C23,6.94069922 20.3466895,3.00123047 16.4999844,1.14110547 L16.4999844,21.8588496 C20.3466895,19.9987695 23,16.0593008 23,11.5 Z" id="Shape" fill="#D80027"></path>
            <g id="Group" transform="translate(0.000000, 1.123047)" fill="#6DA544">
                <path d="M0,10.3769531 C0,14.9362539 2.65331055,18.8757227 6.50001562,20.7358477 L6.50001562,0.0180585938 C2.65331055,1.87818359 0,5.81765234 0,10.3769531 Z" id="Shape"></path>
                <path d="M8.49998242,10.3769531 C8.49998242,12.0338066 9.84314648,13.3769707 11.5,13.3769707 C13.1568535,13.3769707 14.5000176,12.0338066 14.5000176,10.3769531 L14.5000176,9.37694727 L8.49998242,9.37694727 L8.49998242,10.3769531 Z" id="Shape"></path>
            </g>
            <path d="M15.4999785,9.49998828 L12.4999609,9.49998828 C12.4999609,8.94771875 12.0522246,8.49998242 11.4999551,8.49998242 C10.9476855,8.49998242 10.4999492,8.94771875 10.4999492,9.49998828 L7.49993164,9.49998828 C7.49993164,10.0523027 7.981,10.4999941 8.53322461,10.4999941 L8.4999375,10.4999941 C8.4999375,11.0523086 8.94762891,11.5 9.49994336,11.5 C9.49994336,12.0523145 9.94763477,12.5000059 10.4999492,12.5000059 L12.4999609,12.5000059 C13.0522754,12.5000059 13.4999668,12.0523145 13.4999668,11.5 C14.0522813,11.5 14.4999727,11.0523086 14.4999727,10.4999941 L14.4666406,10.4999941 C15.0189551,10.4999941 15.4999785,10.0523027 15.4999785,9.49998828 Z" id="Shape" fill="#FF9811"></path>
        </g>
    </g>
</svg>