<?xml version="1.0" encoding="UTF-8"?>
<svg width="28px" height="28px" viewBox="0 0 28 28" version="1.1" xmlns="http://www.w3.org/2000/svg" xmlns:xlink="http://www.w3.org/1999/xlink">
    <!-- Generator: Sketch 49.3 (51167) - http://www.bohemiancoding.com/sketch -->
    <title>Artboard 3</title>
    <desc>Created with Sketch.</desc>
    <defs></defs>
    <g id="Artboard-3" stroke="none" stroke-width="1" fill="none" fill-rule="evenodd">
        <g id="new-zealand" transform="translate(3.000000, 3.000000)" fill-rule="nonzero">
            <circle id="Oval-Copy" fill="#0052B4" cx="11.5" cy="11.5" r="11.5"></circle>
            <g id="Group" fill="#F0F0F0">
                <path d="M11.5,5.99999023 C11.5,3.97648437 11.5,2.65061523 11.5000449,0 L11.4980684,0 C5.1476875,0.001078125 0,5.14934961 0,11.5 L5.99999023,11.5 L5.99999023,8.12138086 L9.3786543,11.5 L11.4692734,11.5 C11.4795156,11.4897578 11.4898027,11.4795156 11.5000449,11.4692285 C11.5000449,10.6944609 11.5000449,10.0031582 11.5000449,9.37869922 L8.12133594,5.99999023 L11.5,5.99999023 Z" id="Shape"></path>
            </g>
            <g id="Group" transform="translate(1.482422, 1.482422)" fill="#D80027">
                <path d="M4.33563477,0.0175644531 C2.53700781,1.04173828 1.04173828,2.53700781 0.0175644531,4.33563477 L0.0175644531,10.0175781 L3.01758203,10.0175781 L3.01758203,3.01767187 L3.01758203,3.01758203 L10.0175781,3.01758203 C10.0175781,2.07139258 10.0175781,1.16999023 10.0175781,0.0175644531 L4.33563477,0.0175644531 Z" id="Shape"></path>
                <path d="M10.0175781,8.60339258 L5.93179883,4.51761328 C5.93179883,4.51761328 4.51761328,4.51770313 4.51761328,4.51761328 L4.51761328,4.51770313 L10.0175781,10.0175781 C10.0175781,10.0175781 10.0175781,9.04245898 10.0175781,8.60339258 Z" id="Shape"></path>
                <polygon id="Shape" points="18.432793 7.05089258 18.6809863 7.81483398 19.4842344 7.81483398 18.8343945 8.28696289 19.0826328 9.05085937 18.432793 8.57877539 17.7829082 9.05085937 18.0311465 8.28696289 17.3812617 7.81483398 18.1845098 7.81483398"></polygon>
                <polygon id="Shape" points="15.5614316 12.5508574 15.9337891 13.6968145 17.1386387 13.6968145 16.163834 14.4049629 16.5362363 15.550875 15.5614316 14.8426816 14.586627 15.550875 14.9590293 14.4049629 13.9842246 13.6968145 15.1890742 13.6968145"></polygon>
                <polygon id="Shape" points="15.669873 3.55089453 15.9801934 4.50588867 16.9842422 4.50588867 16.171875 5.0959375 16.4821953 6.05088672 15.669873 5.4606582 14.8575957 6.05088672 15.1678711 5.0959375 14.3555937 4.50588867 15.3595977 4.50588867"></polygon>
                <polygon id="Shape" points="12.907043 7.01756055 13.2793555 8.16351758 14.48425 8.16351758 13.5094453 8.87166602 13.8818477 10.0175781 12.907043 9.30938477 11.9322383 10.0175781 12.3046406 8.87166602 11.3298359 8.16351758 12.5346855 8.16351758"></polygon>
            </g>
        </g>
    </g>
</svg>