<?xml version="1.0" encoding="UTF-8"?>
<svg width="28px" height="28px" viewBox="0 0 28 28" version="1.1" xmlns="http://www.w3.org/2000/svg" xmlns:xlink="http://www.w3.org/1999/xlink">
    <!-- Generator: Sketch 49.2 (51160) - http://www.bohemiancoding.com/sketch -->
    <title>Artboard 3</title>
    <desc>Created with Sketch.</desc>
    <defs>
        <circle id="path-1" cx="9.5" cy="9.5" r="9.5"></circle>
    </defs>
    <g id="Artboard-3" stroke="none" stroke-width="1" fill="none" fill-rule="evenodd">
        <g id="mexico" transform="translate(4.000000, 5.000000)" fill-rule="nonzero">
            <g id="Oval">
                <use fill="#F0F0F0" fill-rule="evenodd" xlink:href="#path-1"></use>
                <circle stroke="#FFFFFF" stroke-width="1.5" cx="9.5" cy="9.5" r="10.25"></circle>
            </g>
            <path d="M19,9.5 C19,5.73362109 16.8081348,2.47927734 13.6304219,0.942652344 L13.6304219,18.0573105 C16.8081348,16.5207227 19,13.2663789 19,9.5 Z" id="Shape" fill="#D80027"></path>
            <g id="Group" transform="translate(0.000000, 0.927734)" fill="#6DA544">
                <path d="M0,8.57226562 C0,12.3386445 2.19186523,15.5929883 5.36957812,17.1296133 L5.36957812,0.0149179688 C2.19186523,1.55154297 0,4.80588672 0,8.57226562 Z" id="Shape"></path>
                <path d="M7.02172461,8.57226562 C7.02172461,9.9409707 8.13129492,11.050541 9.5,11.050541 C10.8687051,11.050541 11.9782754,9.9409707 11.9782754,8.57226562 L11.9782754,7.74617383 L7.02172461,7.74617383 L7.02172461,8.57226562 Z" id="Shape"></path>
            </g>
            <path d="M12.8043301,7.84781641 L10.3260547,7.84781641 C10.3260547,7.39159375 9.95618555,7.02172461 9.49996289,7.02172461 C9.04374023,7.02172461 8.67387109,7.39159375 8.67387109,7.84781641 L6.1955957,7.84781641 C6.1955957,8.30407617 6.593,8.6739082 7.04918555,8.6739082 L7.0216875,8.6739082 C7.0216875,9.13016797 7.39151953,9.5 7.8477793,9.5 C7.8477793,9.95625977 8.21761133,10.3260918 8.67387109,10.3260918 L10.3260547,10.3260918 C10.7823145,10.3260918 11.1521465,9.95625977 11.1521465,9.5 C11.6084062,9.5 11.9782383,9.13016797 11.9782383,8.6739082 L11.9507031,8.6739082 C12.4069629,8.6739082 12.8043301,8.30407617 12.8043301,7.84781641 Z" id="Shape" fill="#FF9811"></path>
        </g>
    </g>
</svg>