<?xml version="1.0" encoding="UTF-8"?>
<svg width="28px" height="28px" viewBox="0 0 28 28" version="1.1" xmlns="http://www.w3.org/2000/svg" xmlns:xlink="http://www.w3.org/1999/xlink">
    <!-- Generator: Sketch 49.3 (51167) - http://www.bohemiancoding.com/sketch -->
    <title>Artboard 3</title>
    <desc>Created with Sketch.</desc>
    <defs></defs>
    <g id="Artboard-3" stroke="none" stroke-width="1" fill="none" fill-rule="evenodd">
        <g id="india" transform="translate(3.000000, 3.000000)" fill-rule="nonzero">
            <circle id="Oval" fill="#F0F0F0" cx="11.5" cy="11.5" r="11.5"></circle>
            <path d="M11.5,0 C6.94069922,0 3.00123047,2.65331055 1.14110547,6.50001562 L21.8588496,6.50001562 C19.9987695,2.65331055 16.0592559,0 11.5,0 Z" id="Shape" fill="#FF9811"></path>
            <path d="M11.5,23 C16.0592559,23 19.9987695,20.3466895 21.8588945,16.4999844 L1.14110547,16.4999844 C3.00123047,20.3466895 6.94069922,23 11.5,23 Z" id="Shape" fill="#6DA544"></path>
            <circle id="Oval" fill="#0052B4" cx="11.5" cy="11.5" r="3.99997852"></circle>
            <circle id="Oval" fill="#F0F0F0" cx="11.5" cy="11.5" r="2.49999219"></circle>
            <polygon id="Shape" fill="#0052B4" points="11.5 8.41503516 12.2712637 10.1642031 14.1716387 9.95751758 13.0424824 11.5 14.1716387 13.0424824 12.2712637 12.8357969 11.5 14.5849648 10.7287363 12.8357969 8.82836133 13.0424375 9.95751758 11.5 8.82836133 9.95751758 10.7287363 10.1642031"></polygon>
        </g>
    </g>
</svg>