<?xml version="1.0" encoding="UTF-8"?>
<svg width="28px" height="28px" viewBox="0 0 28 28" version="1.1" xmlns="http://www.w3.org/2000/svg" xmlns:xlink="http://www.w3.org/1999/xlink">
    <!-- Generator: Sketch 49.2 (51160) - http://www.bohemiancoding.com/sketch -->
    <title>Artboard 3</title>
    <desc>Created with Sketch.</desc>
    <defs>
        <circle id="path-1" cx="9.5" cy="9.5" r="9.5"></circle>
    </defs>
    <g id="Artboard-3" stroke="none" stroke-width="1" fill="none" fill-rule="evenodd">
        <g id="hong-kong" transform="translate(4.000000, 5.000000)" fill-rule="nonzero">
            <g id="Oval">
                <use fill="#D80027" fill-rule="evenodd" xlink:href="#path-1"></use>
                <circle stroke="#FFFFFF" stroke-width="1.5" cx="9.5" cy="9.5" r="10.25"></circle>
            </g>
            <g id="Group" transform="translate(4.987500, 4.631250)" fill="#F0F0F0">
                <path d="M5.52367704,2.58533594 C5.30861479,3.4833457 4.92650778,3.31208594 4.73898444,4.09524219 C3.63435992,3.82861133 2.95405642,2.71347461 3.21964981,1.60446094 C3.4851323,0.495521484 4.59604086,-0.187439453 5.70070233,0.0791914062 C5.32561868,1.6454668 5.71607977,1.78217773 5.52367704,2.58533594 Z" id="Shape"></path>
                <path d="M2.65730156,3.25078125 C3.44158755,3.73357422 3.16124514,4.04555273 3.84517121,4.46663281 C3.2512179,5.43893555 1.98461284,5.74378906 1.01605642,5.14755273 C0.047536965,4.55131641 -0.25620428,3.27968945 0.337749027,2.30738672 C1.7056751,3.14947266 1.95574319,2.81893945 2.65730156,3.25078125 Z" id="Shape"></path>
                <path d="M2.40191051,6.19325781 C3.10169455,5.59364453 3.31050973,5.9576875 3.92076459,5.43481641 C4.65840078,6.30232227 4.55578599,7.60590039 3.69169261,8.34641797 C2.82752529,9.08693555 1.52901946,8.98380859 0.791494163,8.11637695 C2.01185603,7.07052344 1.77598249,6.72952539 2.40191051,6.19325781 Z" id="Shape"></path>
                <path d="M5.11055642,7.34635742 C4.75864981,6.49295312 5.16807393,6.40596875 4.86130156,5.66181445 C5.91107004,5.22566797 7.11435409,5.72642187 7.54884047,6.78029102 C7.98328988,7.83416016 7.48441051,9.04210742 6.43464202,9.47829102 C5.82113424,7.98987109 5.42527626,8.10969727 5.11055642,7.34635742 Z" id="Shape"></path>
                <path d="M7.03998054,5.11649219 C6.12276848,5.18874414 6.16679377,4.77089258 5.36705642,4.8339043 C5.27822957,3.69691016 6.12450584,2.70271289 7.25714981,2.61346484 C8.38975681,2.52443945 9.38004864,3.37394727 9.46883852,4.51105273 C7.86910506,4.63696484 7.86027043,5.05195898 7.03998054,5.11649219 Z" id="Shape"></path>
            </g>
        </g>
    </g>
</svg>