<?xml version="1.0" encoding="UTF-8"?>
<svg width="28px" height="28px" viewBox="0 0 28 28" version="1.1" xmlns="http://www.w3.org/2000/svg" xmlns:xlink="http://www.w3.org/1999/xlink">
    <!-- Generator: Sketch 49.3 (51167) - http://www.bohemiancoding.com/sketch -->
    <title>Artboard 3</title>
    <desc>Created with Sketch.</desc>
    <defs></defs>
    <g id="Artboard-3" stroke="none" stroke-width="1" fill="none" fill-rule="evenodd">
        <g id="united-kingdom" transform="translate(3.000000, 3.000000)" fill-rule="nonzero">
            <circle id="Oval" fill="#F0F0F0" cx="11.5" cy="11.5" r="11.5"></circle>
            <g id="Group" transform="translate(0.359375, 0.359375)" fill="#0052B4">
                <path d="M2.01789063,4.13919141 C1.11455664,5.31448242 0.43340625,6.66910156 0.0367910156,8.14069727 L6.01939648,8.14069727 L2.01789063,4.13919141 Z" id="Shape"></path>
                <path d="M22.244459,8.14069727 C21.8478438,6.66914648 21.1666484,5.31452734 20.2633594,4.13923633 L16.2619434,8.14069727 L22.244459,8.14069727 Z" id="Shape"></path>
                <path d="M0.0367910156,14.1406875 C0.433451172,15.6122383 1.11460156,16.9668574 2.01789062,18.1421035 L6.01926172,14.1406875 L0.0367910156,14.1406875 Z" id="Shape"></path>
                <path d="M18.1420586,2.01793555 C16.9667676,1.11460156 15.6121934,0.433451172 14.1405977,0.0367910156 L14.1405977,6.01935156 L18.1420586,2.01793555 Z" id="Shape"></path>
                <path d="M4.13919141,20.2633145 C5.31448242,21.1666484 6.66910156,21.8477988 8.14065234,22.244459 L8.14065234,16.2619434 L4.13919141,20.2633145 Z" id="Shape"></path>
                <path d="M8.14060742,0.0367910156 C6.66905664,0.433451172 5.3144375,1.11460156 4.13919141,2.01789062 L8.14060742,6.01930664 L8.14060742,0.0367910156 Z" id="Shape"></path>
                <path d="M14.1406426,22.244459 C15.6121934,21.8477988 16.9668125,21.1666484 18.1420586,20.2633594 L14.1406426,16.2619434 L14.1406426,22.244459 Z" id="Shape"></path>
                <path d="M16.2619434,14.1406875 L20.2633594,18.1421484 C21.1666484,16.9669023 21.8478438,15.6122383 22.244459,14.1406875 L16.2619434,14.1406875 Z" id="Shape"></path>
            </g>
            <g id="Group" fill="#D80027">
                <path d="M22.9026543,10.0000137 L13.0000762,10.0000137 L13.0000313,10.0000137 L13.0000313,0.0973457031 C12.5089902,0.033421875 12.0083809,0 11.5,0 C10.9915293,0 10.4910098,0.033421875 10.0000137,0.0973457031 L10.0000137,9.99992383 L10.0000137,9.99996875 L0.0973457031,9.99996875 C0.033421875,10.4910098 0,10.9916191 0,11.5 C0,12.0084707 0.033421875,12.5089902 0.0973457031,12.9999863 L9.99992383,12.9999863 L9.99996875,12.9999863 L9.99996875,22.9026543 C10.4910098,22.9665781 10.9915293,23 11.5,23 C12.0083809,23 12.5089902,22.966623 12.9999863,22.9026543 L12.9999863,13.0000762 L12.9999863,13.0000313 L22.9026543,13.0000313 C22.9665781,12.5089902 23,12.0084707 23,11.5 C23,10.9916191 22.9665781,10.4910098 22.9026543,10.0000137 Z" id="Shape"></path>
                <path d="M14.5000176,14.5000176 L19.6317129,19.6317578 C19.8677324,19.3958281 20.0928809,19.1491621 20.3076973,18.8934668 L15.914248,14.5000176 L14.5000176,14.5000176 Z" id="Shape"></path>
                <path d="M8.49998242,14.5000625 L8.49989258,14.5000625 L3.36824219,19.6317129 C3.60417187,19.8677324 3.85083789,20.0928809 4.1065332,20.3076973 L8.49998242,15.9141582 L8.49998242,14.5000625 Z" id="Shape"></path>
                <path d="M8.49998242,8.50007227 L8.49998242,8.49998242 L3.36828711,3.36824219 C3.13226758,3.60417187 2.90711914,3.85083789 2.69230273,4.1065332 L7.08579687,8.50002734 L8.49998242,8.50007227 Z" id="Shape"></path>
                <path d="M14.5000176,8.50007227 L19.6317578,3.36828711 C19.3958281,3.13226758 19.1491621,2.90711914 18.8934668,2.69234766 L14.5000176,7.0858418 L14.5000176,8.50007227 Z" id="Shape"></path>
            </g>
        </g>
    </g>
</svg>