<?xml version="1.0" encoding="UTF-8"?>
<svg width="28px" height="28px" viewBox="0 0 28 28" version="1.1" xmlns="http://www.w3.org/2000/svg" xmlns:xlink="http://www.w3.org/1999/xlink">
    <!-- Generator: Sketch 49.3 (51167) - http://www.bohemiancoding.com/sketch -->
    <title>Artboard 3</title>
    <desc>Created with Sketch.</desc>
    <defs></defs>
    <g id="Artboard-3" stroke="none" stroke-width="1" fill="none" fill-rule="evenodd">
        <g id="australia" transform="translate(3.000000, 3.000000)" fill-rule="nonzero">
            <circle id="Oval-Copy" fill="#0052B4" cx="11.5" cy="11.5" r="11.5"></circle>
            <path d="M23,11.5 C23,17.8512344 17.8512344,23 11.5,23 C5.14876562,23 0,17.8512344 0,11.5 C0,11.5026953 11.5,0.00130273438 11.5,0 C17.8512344,0 23,5.14876563 23,11.5 Z" id="Shape" fill="#0052B4"></path>
            <g id="Group" fill="#F0F0F0">
                <path d="M11.5,6.00003516 C11.5,3.9765293 11.5,2.65057031 11.5000449,4.4921875e-05 L11.4980684,4.4921875e-05 C5.1476875,0.001078125 0,5.14934961 0,11.5 L5.99999023,11.5 L5.99999023,8.12133594 L9.3786543,11.5 L11.4692734,11.5 C11.4795605,11.4897578 11.4898027,11.4795156 11.5000449,11.4692285 C11.5000449,10.6944609 11.5000449,10.0031582 11.5000449,9.37874414 L8.12133594,6.00003516 L11.5,6.00003516 Z" id="Shape"></path>
            </g>
            <g id="Group" transform="translate(1.482422, 1.482422)" fill="#D80027">
                <path d="M4.33563477,0.0175644531 C2.53700781,1.04173828 1.04173828,2.53700781 0.0175644531,4.33563477 L0.0175644531,10.0175781 L3.01758203,10.0175781 L3.01758203,3.01762695 L3.01758203,3.01758203 L10.0175781,3.01758203 C10.0175781,2.07139258 10.0175781,1.16999023 10.0175781,0.0175644531 L4.33563477,0.0175644531 Z" id="Shape"></path>
                <path d="M10.0175781,8.60339258 L5.93179883,4.5176582 L4.51761328,4.51763824 C4.51761328,4.51763824 4.51761328,4.51763824 4.51761328,4.51763824 L10.0175781,10.0175781 C10.0175781,10.0175781 10.0175781,9.04254883 10.0175781,8.60339258 Z" id="Shape"></path>
            </g>
            <g id="Group" transform="translate(4.357422, 4.986328)" fill="#F0F0F0">
                <polygon id="Shape" points="2.57829102 8.51368359 3.20944336 9.83339844 4.63467969 9.50398633 3.99642969 10.8202871 5.14256641 11.7291914 3.7155332 12.050832 3.71953125 13.513668 2.57829102 12.5984746 1.4370957 13.513668 1.44109375 12.050832 0.014015625 11.7291914 1.16019727 10.8202871 0.521857422 9.50398633 1.94718359 9.83339844"></polygon>
                <polygon id="Shape" points="12.8604141 11.0136758 13.1759902 11.6735332 13.8886309 11.5088047 13.5694609 12.1669551 14.1425742 12.6214297 13.4290352 12.78225 13.4310117 13.513668 12.8604141 13.0560488 12.2898164 13.513668 12.291793 12.78225 11.5782988 12.6214297 12.1513672 12.1669551 11.8322422 11.5088047 12.5448379 11.6735332"></polygon>
                <polygon id="Shape" points="9.92472461 4.01367969 10.2402559 4.67358203 10.9528965 4.50880859 10.6337715 5.16695898 11.2068398 5.62143359 10.4933457 5.78225391 10.4952773 6.51367188 9.92472461 6.05605273 9.35412695 6.51367188 9.35605859 5.78225391 8.64256445 5.62143359 9.21563281 5.16695898 8.89650781 4.50880859 9.60914844 4.67358203"></polygon>
                <polygon id="Shape" points="12.8604141 0.01365625 13.1759902 0.673558594 13.8886309 0.508830078 13.5695059 1.16698047 14.1425293 1.62141016 13.4290352 1.78227539 13.4310117 2.51369336 12.8604141 2.05607422 12.2898164 2.51369336 12.291793 1.78227539 11.5782988 1.62141016 12.1513223 1.16698047 11.8322422 0.508830078 12.5448379 0.673558594"></polygon>
                <polygon id="Shape" points="15.4247344 3.01367383 15.7402656 3.67357617 16.4529062 3.50880273 16.1337812 4.16695313 16.7068496 4.62142773 15.9933105 4.78229297 15.9952871 5.51366602 15.4247344 5.0560918 14.8541367 5.51366602 14.8560684 4.78229297 14.1425742 4.62142773 14.7156426 4.16695313 14.3965176 3.50880273 15.1091133 3.67357617"></polygon>
                <polygon id="Shape" points="13.5911133 6.51367188 13.8393066 7.27761328 14.6425996 7.27761328 13.9927148 7.74978711 14.240998 8.51368359 13.5911133 8.04155469 12.9412734 8.51368359 13.1894668 7.74978711 12.539627 7.27761328 13.342875 7.27761328"></polygon>
            </g>
        </g>
    </g>
</svg>