<?xml version="1.0" encoding="UTF-8"?>
<svg width="28px" height="28px" viewBox="0 0 28 28" version="1.1" xmlns="http://www.w3.org/2000/svg" xmlns:xlink="http://www.w3.org/1999/xlink">
    <!-- Generator: Sketch 49.3 (51167) - http://www.bohemiancoding.com/sketch -->
    <title>Artboard 3</title>
    <desc>Created with Sketch.</desc>
    <defs></defs>
    <g id="Artboard-3" stroke="none" stroke-width="1" fill="none" fill-rule="evenodd">
        <g id="canada" transform="translate(3.000000, 3.000000)" fill-rule="nonzero">
            <circle id="Oval" fill="#F0F0F0" cx="11.5" cy="11.5" r="11.5"></circle>
            <g id="Group" transform="translate(0.000000, 1.123047)" fill="#D80027">
                <path d="M23,10.3769531 C23,5.81765234 20.3466895,1.87818359 16.4999844,0.0180585937 L16.4999844,20.7358027 C20.3466895,18.8757227 23,14.9362539 23,10.3769531 Z" id="Shape"></path>
                <path d="M0,10.3769531 C0,14.9362539 2.65331055,18.8757227 6.50001562,20.7358477 L6.50001562,0.0180585938 C2.65331055,1.87818359 0,5.81765234 0,10.3769531 Z" id="Shape"></path>
                <polygon id="Shape" points="13.5000117 11.8769395 15.4999785 10.8769336 14.5000176 10.3769531 14.5000176 9.37694727 12.5000059 10.3769531 13.5000117 8.37694141 12.5000059 8.37694141 11.5 6.87695508 10.4999941 8.37694141 9.49998828 8.37694141 10.4999941 10.3769531 8.49998242 9.37694727 8.49998242 10.3769531 7.50002148 10.8769336 9.49998828 11.8769395 9.00000781 12.8769453 11.0000195 12.8769453 11.0000195 14.3769316 11.9999805 14.3769316 11.9999805 12.8769453 13.9999922 12.8769453"></polygon>
            </g>
        </g>
    </g>
</svg>