<?xml version="1.0" encoding="UTF-8"?>
<svg width="28px" height="28px" viewBox="0 0 28 28" version="1.1" xmlns="http://www.w3.org/2000/svg" xmlns:xlink="http://www.w3.org/1999/xlink">
    <!-- Generator: Sketch 49.3 (51167) - http://www.bohemiancoding.com/sketch -->
    <title>Artboard 3</title>
    <desc>Created with Sketch.</desc>
    <defs></defs>
    <g id="Artboard-3" stroke="none" stroke-width="1" fill="none" fill-rule="evenodd">
        <g id="south-korea" transform="translate(3.000000, 3.000000)" fill-rule="nonzero">
            <circle id="Oval" fill="#F0F0F0" cx="11.5" cy="11.5" r="11.5"></circle>
            <path d="M15.4999785,11.5 C15.4999785,12.5000059 13.709123,14.999998 11.5,14.999998 C9.29087695,14.999998 7.50002148,12.5000059 7.50002148,11.5 C7.50002148,9.29083203 9.29087695,7.50002148 11.5,7.50002148 C13.709123,7.50002148 15.4999785,9.29083203 15.4999785,11.5 Z" id="Shape" fill="#D80027"></path>
            <path d="M15.4999785,11.5 C15.4999785,13.709168 13.709123,15.4999785 11.5,15.4999785 C9.29087695,15.4999785 7.50002148,13.709168 7.50002148,11.5" id="Shape" fill="#0052B4"></path>
            <rect id="Rectangle-path" fill="#000000" transform="translate(16.626378, 14.858804) rotate(-45.000000) translate(-16.626378, -14.858804) " x="15.8763921" y="14.3588057" width="1.49997194" height="1"></rect>
            <rect id="Rectangle-path" fill="#000000" transform="translate(14.858383, 16.626675) rotate(-45.000000) translate(-14.858383, -16.626675) " x="14.1083967" y="16.1266771" width="1.49997194" height="1"></rect>
            <rect id="Rectangle-path" fill="#000000" transform="translate(18.747963, 16.979668) rotate(-45.000000) translate(-18.747963, -16.979668) " x="17.9979773" y="16.4796698" width="1.49997194" height="1"></rect>
            <rect id="Rectangle-path" fill="#000000" transform="translate(16.979988, 18.747847) rotate(-45.000000) translate(-16.979988, -18.747847) " x="16.2300021" y="18.2478489" width="1.49997194" height="1"></rect>
            <rect id="Rectangle-path" fill="#000000" transform="translate(17.687112, 15.919318) rotate(-45.000000) translate(-17.687112, -15.919318) " x="16.9371264" y="15.4193197" width="1.49997194" height="1"></rect>
            <rect id="Rectangle-path" fill="#000000" transform="translate(15.919615, 17.687190) rotate(-45.000000) translate(-15.919615, -17.687190) " x="15.1696287" y="17.1871921" width="1.49997194" height="1"></rect>
            <rect id="Rectangle-path" fill="#000000" transform="translate(16.803785, 6.196429) rotate(-135.000000) translate(-16.803785, -6.196429) " x="14.8038154" y="5.69643065" width="3.99994016" height="1"></rect>
            <rect id="Rectangle-path" fill="#000000" transform="translate(14.859171, 6.373641) rotate(-135.000000) translate(-14.859171, -6.373641) " x="14.1091855" y="5.87366555" width="1.49997194" height="1"></rect>
            <rect id="Rectangle-path" fill="#000000" transform="translate(16.626695, 8.141244) rotate(-135.000000) translate(-16.626695, -8.141244) " x="15.8767095" y="7.64126791" width="1.49997194" height="1"></rect>
            <rect id="Rectangle-path" fill="#000000" transform="translate(16.979562, 4.252296) rotate(-135.000000) translate(-16.979562, -4.252296) " x="16.2295763" y="3.75229751" width="1.49997194" height="1"></rect>
            <rect id="Rectangle-path" fill="#000000" transform="translate(18.748046, 6.020101) rotate(-135.000000) translate(-18.748046, -6.020101) " x="17.9980601" y="5.52010238" width="1.49997194" height="1"></rect>
            <rect id="Rectangle-path" fill="#000000" transform="translate(5.136070, 17.864052) rotate(45.000000) translate(-5.136070, -17.864052) " x="3.13609968" y="17.3640537" width="3.99994016" height="1"></rect>
            <rect id="Rectangle-path" fill="#000000" transform="translate(7.080394, 17.686914) rotate(45.000000) translate(-7.080394, -17.686914) " x="6.33040815" y="17.1869388" width="1.49997194" height="1"></rect>
            <rect id="Rectangle-path" fill="#000000" transform="translate(5.312711, 15.919378) rotate(45.000000) translate(-5.312711, -15.919378) " x="4.56272483" y="15.4193797" width="1.49997194" height="1"></rect>
            <rect id="Rectangle-path" fill="#000000" transform="translate(7.257288, 15.742552) rotate(45.000000) translate(-7.257288, -15.742552) " x="5.25731842" y="15.2425537" width="3.99994016" height="1"></rect>
            <rect id="Rectangle-path" fill="#000000" transform="translate(5.136007, 5.135963) rotate(135.000000) translate(-5.136007, -5.135963) " x="3.13603741" y="4.63596476" width="3.99994016" height="1"></rect>
            <rect id="Rectangle-path" fill="#000000" transform="translate(6.196309, 6.196352) rotate(135.000000) translate(-6.196309, -6.196352) " x="4.19633877" y="5.69635364" width="3.99994016" height="1"></rect>
            <rect id="Rectangle-path" fill="#000000" transform="translate(7.257619, 7.257491) rotate(135.000000) translate(-7.257619, -7.257491) " x="5.25764918" y="6.75751533" width="3.99994016" height="1"></rect>
        </g>
    </g>
</svg>