<?xml version="1.0" encoding="UTF-8"?>
<svg width="28px" height="28px" viewBox="0 0 28 28" version="1.1" xmlns="http://www.w3.org/2000/svg" xmlns:xlink="http://www.w3.org/1999/xlink">
    <!-- Generator: Sketch 49.2 (51160) - http://www.bohemiancoding.com/sketch -->
    <title>Artboard 3</title>
    <desc>Created with Sketch.</desc>
    <defs>
        <circle id="path-1" cx="9.5" cy="9.5" r="9.5"></circle>
    </defs>
    <g id="Artboard-3" stroke="none" stroke-width="1" fill="none" fill-rule="evenodd">
        <g id="EU" transform="translate(4.000000, 5.000000)" fill-rule="nonzero">
            <g id="european-union">
                <g id="Oval">
                    <use fill="#0052B4" fill-rule="evenodd" xlink:href="#path-1"></use>
                    <circle stroke="#FFFFFF" stroke-width="1.5" cx="9.5" cy="9.5" r="10.25"></circle>
                </g>
                <g id="Group" transform="translate(3.696246, 3.696246)" fill="#FFDA44">
                    <polygon id="Shape" points="5.80379147 0.00647341822 6.11217172 0.955498851 7.10997101 0.955498851 6.30269112 1.54201286 6.61107137 2.4910383 5.80379147 1.90448708 4.99647437 2.4910383 5.30485462 1.54201286 4.49757472 0.955498851 5.49541122 0.955498851"></polygon>
                    <polygon id="Shape" points="1.70444358 1.70444358 2.59360849 2.15743404 3.29917388 1.45190586 3.14303056 2.43742798 4.03215828 2.89045564 3.04659895 3.04656175 2.89049285 4.03215828 2.43746518 3.14303056 1.45194306 3.29917388 2.15750844 2.59360849"></polygon>
                    <polygon id="Shape" points="0.00651062177 5.80375427 0.955536055 5.49537402 0.955536055 4.49753752 1.54201286 5.30485462 2.4910755 4.99647437 1.90448708 5.80375427 2.4910755 6.61103416 1.54201286 6.30269112 0.955536055 7.10997101 0.955536055 6.11213452"></polygon>
                    <polygon id="Shape" points="1.70444358 9.90306496 2.15747124 9.01390004 1.45194306 8.30833466 2.43750238 8.46451517 2.89045564 7.57538746 3.04659895 8.56094678 4.03212107 8.71705289 3.14310497 9.17008055 3.29917388 10.1556027 2.59360849 9.45003729"></polygon>
                    <polygon id="Shape" points="5.80379147 11.6010351 5.49537402 10.6520097 4.49757472 10.6520097 5.30489182 10.0654957 4.99647437 9.11654464 5.80379147 9.70302145 6.61107137 9.11654464 6.30269112 10.0654957 7.10997101 10.6520097 6.11213452 10.6520097"></polygon>
                    <polygon id="Shape" points="9.90310216 9.90306496 9.01397445 9.45007449 8.30837186 10.1556399 8.46451517 9.17004335 7.57546187 8.71705289 8.56098399 8.56094678 8.71709009 7.57538746 9.17008055 8.46451517 10.1556027 8.30833466 9.45003729 9.01397445"></polygon>
                    <polygon id="Shape" points="11.6010351 5.80375427 10.6520097 6.11213452 10.6520097 7.10997101 10.0654957 6.30265391 9.11654464 6.61103416 9.70305865 5.80375427 9.11654464 4.99647437 10.0655329 5.30485462 10.6520097 4.49753752 10.6520097 5.49541122"></polygon>
                    <polygon id="Shape" points="9.90310216 1.70444358 9.45007449 2.59360849 10.1556399 3.29917388 9.17004335 3.14299336 8.71709009 4.03212107 8.56098399 3.04656175 7.57546187 2.89041844 8.46451517 2.43742798 8.30837186 1.45194306 9.01401165 2.15747124"></polygon>
                </g>
            </g>
        </g>
    </g>
</svg>