<?xml version="1.0" encoding="UTF-8"?>
<svg width="28px" height="28px" viewBox="0 0 28 28" version="1.1" xmlns="http://www.w3.org/2000/svg" xmlns:xlink="http://www.w3.org/1999/xlink">
    <!-- Generator: Sketch 49.3 (51167) - http://www.bohemiancoding.com/sketch -->
    <title>Artboard 3</title>
    <desc>Created with Sketch.</desc>
    <defs></defs>
    <g id="Artboard-3" stroke="none" stroke-width="1" fill="none" fill-rule="evenodd">
        <g id="china" transform="translate(3.000000, 3.000000)" fill-rule="nonzero">
            <circle id="Oval" fill="#D80027" cx="11.5" cy="11.5" r="11.5"></circle>
            <g id="Group" transform="translate(2.090909, 5.227273)" fill="#FFDA44">
                <polygon id="Shape" points="4.24039969 1.85300353 5.23628527 4.86745904 8.45826803 4.86745904 5.8536442 6.73376164 6.84952978 9.74821715 4.24039969 7.88634757 1.63126959 9.74821715 2.63166144 6.73376164 0.022531348 4.86745904 3.24451411 4.86745904"></polygon>
                <polygon id="Shape" points="11.6036442 12.5232894 10.8420846 11.6012207 9.71551724 12.0312239 10.3689263 11.0337938 9.60736677 10.107292 10.7744906 10.4131706 11.432406 9.41574044 11.4954937 10.6037906 12.6671238 10.9096691 11.5360502 11.3352393"></polygon>
                <polygon id="Shape" points="13.1177508 9.81914552 13.4782524 8.68429168 12.4913793 7.99717314 13.6990596 7.97944105 14.0550549 6.84458721 14.4471003 7.97057501 15.6547806 7.95727594 14.6859326 8.66655959 15.0734718 9.79254738 14.0865987 9.10542885"></polygon>
                <polygon id="Shape" points="15.1590909 3.27600385 14.6273511 4.34436235 15.4925549 5.17333762 14.2983934 5.00488275 13.7666536 6.06880822 13.5593652 4.8984902 12.3606975 4.73003534 13.4331897 4.17590748 13.2259013 3.00115644 14.091105 3.83013171"></polygon>
                <polygon id="Shape" points="11.6351881 0.0398972053 11.5450627 1.22351429 12.6671238 1.6712496 11.4909875 1.95496306 11.4053683 3.14301317 10.7699843 2.13228397 9.59384796 2.41599743 10.3734326 1.50722775 9.73354232 0.500931577 10.8556034 0.948666881"></polygon>
            </g>
        </g>
    </g>
</svg>