<?xml version="1.0" encoding="UTF-8"?>
<svg width="28px" height="28px" viewBox="0 0 28 28" version="1.1" xmlns="http://www.w3.org/2000/svg" xmlns:xlink="http://www.w3.org/1999/xlink">
    <!-- Generator: Sketch 49.2 (51160) - http://www.bohemiancoding.com/sketch -->
    <title>Artboard 3</title>
    <desc>Created with Sketch.</desc>
    <defs>
        <circle id="path-1" cx="9.5" cy="9.5" r="9.5"></circle>
    </defs>
    <g id="Artboard-3" stroke="none" stroke-width="1" fill="none" fill-rule="evenodd">
        <g id="australia" transform="translate(4.000000, 5.000000)" fill-rule="nonzero">
            <g id="Oval-Copy">
                <use fill="#0052B4" fill-rule="evenodd" xlink:href="#path-1"></use>
                <circle stroke="#FFFFFF" stroke-width="1.5" cx="9.5" cy="9.5" r="10.25"></circle>
            </g>
            <path d="M19,9.5 C19,14.7466719 14.7466719,19 9.5,19 C4.25332812,19 0,14.7466719 0,9.5 C0,9.50222656 9.5,0.00107617188 9.5,0 C14.7466719,0 19,4.25332813 19,9.5 Z" id="Shape" fill="#0052B4"></path>
            <g id="Group" fill="#F0F0F0">
                <path d="M9.5,4.95655078 C9.5,3.28495898 9.5,2.18960156 9.50003711,3.7109375e-05 L9.4984043,3.7109375e-05 C4.2524375,0.000890625 0,4.25381055 0,9.5 L4.95651367,9.5 L4.95651367,6.70892969 L7.74758398,9.5 L9.47461719,9.5 C9.48311523,9.49153906 9.49157617,9.48307813 9.50003711,9.47458008 C9.50003711,8.83455469 9.50003711,8.26347852 9.50003711,7.7476582 L6.70892969,4.95655078 L9.5,4.95655078 Z" id="Shape"></path>
            </g>
            <g id="Group" transform="translate(1.224609, 1.224609)" fill="#D80027">
                <path d="M3.58161133,0.0145097656 C2.09578906,0.860566406 0.860566406,2.09578906 0.0145097656,3.58161133 L0.0145097656,8.27539062 L2.49278516,8.27539062 L2.49278516,2.49282227 L2.49278516,2.49278516 L8.27539062,2.49278516 C8.27539062,1.71115039 8.27539062,0.966513672 8.27539062,0.0145097656 L3.58161133,0.0145097656 Z" id="Shape"></path>
                <path d="M8.27539062,7.10715039 L4.90018164,3.73197852 L3.73194141,3.73196202 C3.73194141,3.73196202 3.73194141,3.73196202 3.73194141,3.73196202 L8.27539062,8.27539062 C8.27539062,8.27539062 8.27539062,7.46993164 8.27539062,7.10715039 Z" id="Shape"></path>
            </g>
            <g id="Group" transform="translate(3.599609, 4.119141)" fill="#F0F0F0">
                <polygon id="Shape" points="2.12989258 7.03304297 2.6512793 8.12324219 3.82864844 7.85111914 3.30139844 8.93849805 4.24820703 9.68933203 3.06935352 9.95503516 3.07265625 11.1634648 2.12989258 10.4074355 1.18716602 11.1634648 1.19046875 9.95503516 0.011578125 9.68933203 0.958423828 8.93849805 0.431099609 7.85111914 1.60854297 8.12324219"></polygon>
                <polygon id="Shape" points="10.6238203 9.09825391 10.8845137 9.64335352 11.4732168 9.50727344 11.2095547 10.0509629 11.6829961 10.4263984 11.0935508 10.55925 11.0951836 11.1634648 10.6238203 10.7854316 10.152457 11.1634648 10.1540898 10.55925 9.56468164 10.4263984 10.0380859 10.0509629 9.77446094 9.50727344 10.363127 9.64335352"></polygon>
                <polygon id="Shape" points="8.19868555 3.31564844 8.4593418 3.86078516 9.04804492 3.72466797 8.78441992 4.26835742 9.25782422 4.64379297 8.66841602 4.77664453 8.67001172 5.38085938 8.19868555 5.00282617 7.72732227 5.38085938 7.72891797 4.77664453 7.13950977 4.64379297 7.61291406 4.26835742 7.34928906 3.72466797 7.93799219 3.86078516"></polygon>
                <polygon id="Shape" points="10.6238203 0.01128125 10.8845137 0.556417969 11.4732168 0.420337891 11.2095918 0.964027344 11.682959 1.33942578 11.0935508 1.47231445 11.0951836 2.0765293 10.6238203 1.69849609 10.152457 2.0765293 10.1540898 1.47231445 9.56468164 1.33942578 10.0380488 0.964027344 9.77446094 0.420337891 10.363127 0.556417969"></polygon>
                <polygon id="Shape" points="12.7421719 2.48955664 13.0028281 3.03469336 13.5915312 2.89857617 13.3279062 3.44226563 13.8013105 3.81770117 13.2118652 3.95058984 13.213498 4.55476758 12.7421719 4.17677148 12.2708086 4.55476758 12.2724043 3.95058984 11.6829961 3.81770117 12.1564004 3.44226563 11.8927754 2.89857617 12.4814414 3.03469336"></polygon>
                <polygon id="Shape" points="11.2274414 5.38085938 11.4324707 6.01194141 12.0960605 6.01194141 11.5591992 6.40199805 11.7643027 7.03304297 11.2274414 6.64302344 10.6906172 7.03304297 10.8956465 6.40199805 10.3588223 6.01194141 11.022375 6.01194141"></polygon>
            </g>
        </g>
    </g>
</svg>