<?xml version="1.0" encoding="UTF-8"?>
<svg width="30px" height="30px" viewBox="0 0 30 30" version="1.1" xmlns="http://www.w3.org/2000/svg" xmlns:xlink="http://www.w3.org/1999/xlink">
    <!-- Generator: Sketch 42 (36781) - http://www.bohemiancoding.com/sketch -->
    <title>icon_edit_white</title>
    <desc>Created with Sketch.</desc>
    <defs>
        <circle id="path-1" cx="15" cy="15" r="15"></circle>
        <mask id="mask-2" maskContentUnits="userSpaceOnUse" maskUnits="objectBoundingBox" x="0" y="0" width="30" height="30" fill="white">
            <use xlink:href="#path-1"></use>
        </mask>
    </defs>
    <g id="Page-1" stroke="none" stroke-width="1" fill="none" fill-rule="evenodd">
        <g id="icon_edit_white">
            <g id="Group-21">
                <g id="Admin-Sign-In">
                    <g id="Artboard-2">
                        <g id="Group-21">
                            <use id="Mask" stroke="#AAAAAA" mask="url(#mask-2)" stroke-width="2" fill="#FFFFFF" fill-rule="nonzero" xlink:href="#path-1"></use>
                            <path d="M8.4939759,10.9905254 L9.03614458,10.9905254 L10.3012048,21.5658915 C10.3253012,21.8191214 10.5421687,22 10.7951807,22 L19.2048193,22 C19.4578313,22 19.6626506,21.8191214 19.6987952,21.5658915 L20.9638554,10.9905254 L21.5060241,10.9905254 C21.7831325,10.9905254 22,10.7734711 22,10.496124 C22,10.2187769 21.7831325,10.0017227 21.5060241,10.0017227 L20.5180723,10.0017227 L17.7228916,10.0017227 L17.7228916,8.49440138 C17.7228916,8.21705426 17.5060241,8 17.2289157,8 L12.7710843,8 C12.4939759,8 12.2771084,8.21705426 12.2771084,8.49440138 L12.2771084,10.0017227 L9.48192771,10.0017227 L8.4939759,10.0017227 C8.21686747,10.0017227 8,10.2187769 8,10.496124 C8,10.7734711 8.22891566,10.9905254 8.4939759,10.9905254 L8.4939759,10.9905254 Z M13.2650602,8.98880276 L16.7349398,8.98880276 L16.7349398,10.0017227 L13.2650602,10.0017227 L13.2650602,8.98880276 L13.2650602,8.98880276 Z M19.9638554,10.9905254 L18.7710843,21.0232558 L11.2289157,21.0232558 L10.0361446,10.9905254 L19.9638554,10.9905254 L19.9638554,10.9905254 Z M13.3614458,19.5159345 C13.6385542,19.5159345 13.8554217,19.2988803 13.8554217,19.0215332 L13.8554217,13.1007752 C13.8554217,12.8234281 13.6385542,12.6063738 13.3614458,12.6063738 C13.0843373,12.6063738 12.8674699,12.8234281 12.8674699,13.1007752 L12.8674699,19.0215332 C12.8674699,19.2988803 13.0843373,19.5159345 13.3614458,19.5159345 Z M16.6385542,19.5159345 C16.9156627,19.5159345 17.1325301,19.2988803 17.1325301,19.0215332 L17.1325301,13.1007752 C17.1325301,12.8234281 16.9156627,12.6063738 16.6385542,12.6063738 C16.3614458,12.6063738 16.1445783,12.8234281 16.1445783,13.1007752 L16.1445783,19.0215332 C16.1445783,19.2988803 16.373494,19.5159345 16.6385542,19.5159345 Z" id="garbage" stroke="#060606" stroke-width="0.5" fill="#060606"></path>
                        </g>
                    </g>
                </g>
            </g>
        </g>
    </g>
</svg>