<?xml version="1.0" encoding="UTF-8"?>
<svg width="75px" height="75px" viewBox="0 0 75 75" version="1.1" xmlns="http://www.w3.org/2000/svg" xmlns:xlink="http://www.w3.org/1999/xlink">
    <!-- Generator: Sketch 42 (36781) - http://www.bohemiancoding.com/sketch -->
    <title>Group</title>
    <desc>Created with Sketch.</desc>
    <defs></defs>
    <g id="Page-1" stroke="none" stroke-width="1" fill="none" fill-rule="evenodd">
        <g id="Group">
            <circle id="Oval" fill="#FFFFFF" cx="37.5" cy="37.5" r="37.5"></circle>
            <g id="icon_zoom" transform="translate(16.000000, 16.000000)">
                <path d="M20.94,5 C29.1911342,5 35.88,11.6888658 35.88,19.94 C35.88,28.1911342 29.1911342,34.88 20.94,34.88 C12.6888658,34.88 6,28.1911342 6,19.94 C6.03288452,11.7025255 12.7025255,5.03288452 20.94,5 L20.94,5 Z M20.94,-2.66453526e-15 C12.8741141,-0.00404507872 5.60019799,4.85161446 2.51071379,12.3023607 C-0.578770405,19.753107 1.12474213,28.3312962 6.82675481,34.0361698 C12.5287675,39.7410435 21.106101,41.4488589 28.5583961,38.3631127 C36.0106912,35.2773664 40.869999,28.005887 40.87,19.94 C40.8700014,8.93134615 31.9486525,0.00552088959 20.94,-2.21378456e-15 L20.94,-2.66453526e-15 Z" id="Shape" fill="#000000" fill-rule="nonzero"></path>
                <polygon id="Shape" fill="#000000" fill-rule="nonzero" points="34.32 30.91 30.81 34.42 40.17 43.78 43.69 40.27 34.32 30.91"></polygon>
                <path d="M12.19,20 L30.11,20" id="Shape" stroke="#000000" stroke-width="5"></path>
                <path d="M21.15,11.04 L21.15,28.96" id="Shape" stroke="#000000" stroke-width="5"></path>
            </g>
        </g>
    </g>
</svg>