<svg id="Layer_1" data-name="Layer 1" xmlns="http://www.w3.org/2000/svg" viewBox="0 0 512 290.15"><defs><style>.cls-1{fill:#888;}.cls-2{fill:#f95428;}.cls-3{fill:#fff;}</style></defs><title>Artboard 1</title><path class="cls-1" d="M484.68,208.09,267,146.12V117.34a59.19,59.19,0,1,0-70.21-58.15v11h22.06v-11A37.13,37.13,0,1,1,256,96.31H245v49.81l-217.66,62C8.8,213.36-2.27,230.36.39,249.43s18,32.38,37.21,32.38H474.39c19.25,0,34.55-13.31,37.21-32.38S503.2,213.36,484.68,208.09Zm5.08,38.28c-.9,6.47-5.41,13.37-15.37,13.37H37.61c-10,0-14.47-6.91-15.37-13.37S23.78,232,33.36,229.3L256,165.91,478.64,229.3C488.22,232,490.67,239.91,489.76,246.38Z"/><path class="cls-2" d="M328.44,185.94c3.6,8.68-3.57,20-3.57,30s7.17,21.32,3.57,30c-3.73,9-17,11.9-23.74,18.68s-9.69,20-18.69,23.74c-8.68,3.61-20-3.57-30-3.57s-21.33,7.18-30,3.57c-9-3.73-11.91-17-18.69-23.74s-19.6-9.59-23.56-18.26c-.07-.13-.13-.28-.19-.42-3.6-8.68,3.57-20,3.57-30s-7.17-21.33-3.57-30c3.73-9,17-11.91,23.74-18.69s9.69-20,18.69-23.74c8.68-3.6,20,3.58,30,3.58s21.32-7.18,30-3.58a15.19,15.19,0,0,1,5.23,3.74c5.26,5.58,8.19,14.73,13.46,20C311.47,174,324.71,176.94,328.44,185.94Z"/><path class="cls-3" d="M256,177.77a24,24,0,0,0-24,24v4.46h0s0,0,0,.06a4.46,4.46,0,0,0,8.92,0s0,0,0-.06h0v-4.46a15,15,0,1,1,15,15h-4.46v20h0a4.46,4.46,0,0,0,8.92,0h0V225.26A24,24,0,0,0,256,177.77Z"/><circle class="cls-3" cx="256" cy="249.65" r="4.46"/></svg>