<?xml version="1.0" encoding="UTF-8"?>
<svg width="480px" height="300px" viewBox="0 0 480 300" version="1.1" xmlns="http://www.w3.org/2000/svg" xmlns:xlink="http://www.w3.org/1999/xlink">
    <!-- Generator: Sketch 42 (36781) - http://www.bohemiancoding.com/sketch -->
    <title>Group</title>
    <desc>Created with Sketch.</desc>
    <defs>
        <rect id="path-1" x="0" y="0" width="480" height="300" rx="30"></rect>
    </defs>
    <g id="Page-1" stroke="none" stroke-width="1" fill="none" fill-rule="evenodd">
        <g id="Group">
            <g id="Page-1">
                <mask id="mask-2" fill="white">
                    <use xlink:href="#path-1"></use>
                </mask>
                <use id="Mask" fill="#3957A7" xlink:href="#path-1"></use>
                <g mask="url(#mask-2)">
                    <g transform="translate(81.000000, 99.000000)">
                        <polygon id="Fill-4" fill="#FFFFFF" points="139.704833 103.383237 113.411189 103.383237 129.847399 2.16017652 156.141042 2.16017652"></polygon>
                        <path d="M91.2922572,2.16146681 L66.2216736,71.7810834 L63.2562897,56.7922427 L63.2562897,56.7965437 L54.411635,11.275198 C54.411635,11.275198 53.3387753,2.16146681 41.9407147,2.16146681 L0.494001905,2.16146681 L0.0133607955,3.87754929 C0.0133607955,3.87754929 12.6902701,6.5140369 27.51719,15.4471279 L50.3562256,103.384527 L77.7570603,103.384527 L119.598585,2.16146681 L91.2922572,2.16146681 Z" id="Fill-6" fill="#FFFFFF"></path>
                        <path d="M269.185686,67.5811973 L282.999826,29.6940532 L290.775913,67.5811973 L269.185686,67.5811973 Z M298.118564,103.382377 L322.257905,103.382377 L301.212691,2.16361729 L280.073065,2.16361729 C270.310043,2.16361729 267.928294,9.70319768 267.928294,9.70319768 L228.717421,103.382377 L256.126838,103.382377 L261.598422,88.3505263 L295.03302,88.3505263 L298.118564,103.382377 Z" id="Fill-8" fill="#FFFFFF"></path>
                        <path d="M230.772162,26.5014516 L234.518587,4.76440695 C234.518587,4.76440695 222.944578,0.35162344 210.872761,0.35162344 C197.822497,0.35162344 166.838311,6.07189835 166.838311,33.8603918 C166.838311,60.0145209 203.212544,60.3413937 203.212544,74.0700535 C203.212544,87.7987133 170.584737,85.3471669 159.821809,76.6850364 L155.908017,99.4070005 C155.908017,99.4070005 167.649393,105.127275 185.587606,105.127275 C203.53011,105.127275 230.604795,95.8113992 230.604795,70.4744522 C230.604795,44.1568866 193.908705,41.7010392 193.908705,30.2647904 C193.908705,18.8156386 219.524301,20.2865665 230.772162,26.5014516" id="Fill-10" fill="#FFFFFF"></path>
                        <path d="M63.2554314,56.7952534 L54.4107767,11.2782087 C54.4107767,11.2782087 53.337917,2.16017652 41.9398564,2.16017652 L0.493143617,2.16017652 L0.0167939462,3.876259 C0.0167939462,3.876259 19.9290685,8.01378115 39.0302612,23.5101349 C57.2946233,38.3312382 63.2554314,56.7952534 63.2554314,56.7952534" id="Fill-12" fill="#F9A533"></path>
                    </g>
                </g>
            </g>
        </g>
    </g>
</svg>