<?xml version="1.0" encoding="UTF-8"?>
<svg width="480px" height="300px" viewBox="0 0 480 300" version="1.1" xmlns="http://www.w3.org/2000/svg" xmlns:xlink="http://www.w3.org/1999/xlink">
    <!-- Generator: Sketch 42 (36781) - http://www.bohemiancoding.com/sketch -->
    <title>Group Copy</title>
    <desc>Created with Sketch.</desc>
    <defs>
        <rect id="path-1" x="0" y="0" width="480" height="300" rx="30"></rect>
        <mask id="mask-2" maskContentUnits="userSpaceOnUse" maskUnits="objectBoundingBox" x="0" y="0" width="480" height="300" fill="white">
            <use xlink:href="#path-1"></use>
        </mask>
        <mask id="mask-4" maskContentUnits="userSpaceOnUse" maskUnits="objectBoundingBox" x="0" y="0" width="480" height="300" fill="white">
            <use xlink:href="#path-1"></use>
        </mask>
        <linearGradient x1="0%" y1="0%" x2="0%" y2="0%" id="linearGradient-5"></linearGradient>
        <polygon id="path-6" points="0 185.889308 407.433807 185.889308 407.433807 0.54222231 0 0.54222231"></polygon>
        <radialGradient cx="50%" cy="50%" fx="50%" fy="50%" r="100%" id="radialGradient-8">
            <stop stop-color="#FBDA61" offset="0%"></stop>
            <stop stop-color="#F76B1C" offset="100%"></stop>
        </radialGradient>
    </defs>
    <g id="Page-1" stroke="none" stroke-width="1" fill="none" fill-rule="evenodd">
        <g id="Group-Copy">
            <g id="Page-1">
                <mask id="mask-3" fill="white">
                    <use xlink:href="#path-1"></use>
                </mask>
                <g id="Mask" stroke="#888888" mask="url(#mask-2)" stroke-width="4" fill="#F5F5F5">
                    <use mask="url(#mask-4)" xlink:href="#path-1"></use>
                </g>
                <g mask="url(#mask-3)">
                    <g transform="translate(58.000000, 104.000000)">
                        <path d="M52.1718925,195.249111 L405.412549,195.249111 C414.808417,195.249111 422.433399,187.593755 422.433399,178.156373 L422.433399,58.1843124 C388.530113,79.7607273 260.70886,154.152151 52.1718925,195.249111" id="Fill-1" fill="#F6821F"></path>
                        <path d="M147.877435,34.7400396 C147.877435,49.221047 158.787715,60.0358214 173.365965,60.0358214 L173.365965,60.0358214 C187.553399,60.0358214 198.764933,49.0779944 198.764933,35.0179703 L198.764933,35.0179703 C198.764933,21.0519522 187.626677,10.090038 173.365965,10.090038 L173.365965,10.090038 C159.292519,10.090038 147.877435,21.1214348 147.877435,34.7400396" id="Fill-3" fill="none"></path>
                        <g id="Group-16" stroke-width="1" fill="none" transform="translate(15.000000, 9.359804)">
                            <mask id="mask-7" fill="white">
                                <use xlink:href="#path-6"></use>
                            </mask>
                            <g id="Clip-8"></g>
                        </g>
                        <g id="Group-2" stroke-width="1" fill="none">
                            <ellipse id="Oval" fill="url(#radialGradient-8)" cx="193.352339" cy="29.8052434" rx="29.7465137" ry="29.7109186"></ellipse>
                            <path d="M29.9497816,45.0573435 C33.8713636,41.5861178 36.206465,35.9955133 36.206465,30.4049088 C36.206465,24.8341115 33.8713636,19.436628 29.9497816,15.9455951 C26.1818898,12.5535985 21.7496593,11.2463181 14.3973126,11.2463181 L11.348295,11.2463181 L11.348295,49.6823431 L14.3973126,49.6823431 C21.7496593,49.6823431 26.3554112,48.2859299 29.9497816,45.0573435 Z M16.6729209,1.40210041 C35.0810552,1.40210041 47.9117181,13.335986 47.9117181,30.4940415 C47.9117181,39.0408824 43.9802205,47.3203251 37.3566635,52.8217968 C31.7692767,57.4368929 25.398565,59.5265608 16.5985547,59.5265608 L0,59.5265608 L0,1.40210041 L16.6729209,1.40210041 Z" id="Fill-5" fill="#001722"></path>
                            <polygon id="Fill-7" fill="#001722" points="53.1520623 59.5245801 64.4805263 59.5245801 64.4805263 1.40011968 53.1520623 1.40011968"></polygon>
                            <path d="M92.2414602,23.6927171 C85.4245508,21.1771926 83.4315344,19.5133812 83.4315344,16.3788793 C83.4315344,12.7244363 87.001116,9.94151359 91.8944175,9.94151359 C95.2904778,9.94151359 98.0816924,11.3329749 101.061302,14.6308869 L106.990773,6.89119262 C102.097472,2.60786852 96.2522818,0.434019646 89.8766123,0.434019646 C79.5942341,0.434019646 71.731239,7.57949557 71.731239,17.0770859 C71.731239,25.1039857 75.3950179,29.1941888 86.0442698,33.0268973 C90.4963314,34.5916724 92.7620242,35.6365064 93.8973495,36.3446166 C96.1630423,37.8301625 97.3033253,39.9099268 97.3033253,42.351174 C97.3033253,47.0702582 93.5602223,50.5414838 88.483484,50.5414838 C83.0696185,50.5414838 78.7117542,47.8526457 76.0990187,42.7918859 L68.7813764,49.8630845 C73.9969318,57.5235497 80.2833617,60.9304017 88.9296817,60.9304017 C100.704343,60.9304017 108.993705,53.0768156 108.993705,41.8361847 C108.993705,32.6010408 105.16632,28.4118013 92.2414602,23.6927171" id="Fill-9" fill="#001722"></path>
                            <path d="M112.566261,30.4920608 C112.566261,47.5906944 126.006728,60.8318605 143.289452,60.8318605 C148.182754,60.8318605 152.362139,59.8761593 157.513244,57.4349121 L157.513244,44.0996615 C152.971943,48.6355284 148.956163,50.4528463 143.814974,50.4528463 C132.387355,50.4528463 124.261599,42.1734036 124.261599,30.402928 C124.261599,19.2613336 132.630285,10.4520462 143.289452,10.4520462 C148.693402,10.4520462 152.798421,12.3783041 157.513244,16.9884483 L157.513244,3.65319767 C152.545576,1.12776959 148.430642,0.0928392639 143.552213,0.0928392639 C126.353771,0.0928392639 112.566261,13.6063554 112.566261,30.4920608" id="Fill-10" fill="#001722"></path>
                            <polygon id="Fill-11" fill="#001722" points="249.476078 40.443733 233.953356 1.39863414 221.54906 1.39863414 246.263455 61.0135923 252.36149 61.0135923 277.497294 1.39863414 265.202068 1.39863414"></polygon>
                            <polygon id="Fill-12" fill="#001722" points="282.659802 59.5260656 314.845529 59.5260656 314.845529 49.6818479 293.988266 49.6818479 293.988266 33.9845793 314.052289 33.9845793 314.052289 24.1453134 293.988266 24.1453134 293.988266 11.2458229 314.845529 11.2458229 314.845529 1.40160523 282.659802 1.40160523"></polygon>
                            <path d="M337.001724,28.1513356 L333.699861,28.1513356 L333.699861,10.5377127 L337.185161,10.5377127 C344.264832,10.5377127 348.097174,13.5187082 348.097174,19.1687345 C348.097174,25.00693 344.264832,28.1513356 337.001724,28.1513356 M359.777638,18.5596607 C359.777638,7.66565723 352.281517,1.40160523 339.188093,1.40160523 L322.341651,1.40160523 L322.341651,59.5260656 L333.699861,59.5260656 L333.699861,36.1683318 L335.182229,36.1683318 L350.888389,59.5260656 L364.839504,59.5260656 L346.510693,35.0393169 C355.072732,33.2962763 359.777638,27.453129 359.777638,18.5596607" id="Fill-13" fill="#001722"></path>
                            <path d="M365.634231,6.42918783 L365.421048,6.42918783 L365.421048,5.10210014 L365.644147,5.10210014 C366.263866,5.10210014 366.561331,5.31502839 366.561331,5.75078853 C366.561331,6.19645231 366.25395,6.42918783 365.634231,6.42918783 M367.785896,5.73098125 C367.785896,4.7158582 367.096768,4.15630256 365.847415,4.15630256 L364.201441,4.15630256 L364.201441,9.28143602 L365.421048,9.28143602 L365.421048,7.29080447 L366.843923,9.28143602 L368.375868,9.28143602 L366.670401,7.16205716 C367.389276,6.96893619 367.785896,6.44899511 367.785896,5.73098125" id="Fill-14" fill="#231F1F"></path>
                        </g>
                    </g>
                </g>
            </g>
        </g>
    </g>
</svg>