<?xml version="1.0" encoding="UTF-8"?>
<svg width="480px" height="300px" viewBox="0 0 480 300" version="1.1" xmlns="http://www.w3.org/2000/svg" xmlns:xlink="http://www.w3.org/1999/xlink">
    <!-- Generator: Sketch 42 (36781) - http://www.bohemiancoding.com/sketch -->
    <title>Group Copy</title>
    <desc>Created with Sketch.</desc>
    <defs>
        <rect id="path-1" x="0" y="0" width="480" height="300" rx="30"></rect>
        <polygon id="path-3" points="524.756908 328.392857 0 328.392857 0 0.823360714 524.756908 0.823360714 524.756908 328.392857"></polygon>
    </defs>
    <g id="Page-1" stroke="none" stroke-width="1" fill="none" fill-rule="evenodd">
        <g id="Group-Copy">
            <g id="Page-1">
                <mask id="mask-2" fill="white">
                    <use xlink:href="#path-1"></use>
                </mask>
                <use id="Mask" fill="#3957A7" xlink:href="#path-1"></use>
                <g mask="url(#mask-2)">
                    <g transform="translate(-17.000000, -17.000000)">
                        <g id="Group-3" stroke="none" stroke-width="1" fill="none" fill-rule="evenodd" transform="translate(0.000000, 0.785454)">
                            <mask id="mask-4" fill="white">
                                <use xlink:href="#path-3"></use>
                            </mask>
                            <g id="Clip-2"></g>
                            <path d="M524.756908,310.927682 C524.756908,320.580182 516.920888,328.394111 507.260786,328.394111 L17.4865,328.394111 C7.82639796,328.394111 -0.00125510204,320.580182 -0.00125510204,310.927682 L-0.00125510204,18.2981464 C-0.00125510204,8.64564643 7.82639796,0.823360714 17.4865,0.823360714 L507.260786,0.823360714 C516.920888,0.823360714 524.756908,8.64564643 524.756908,18.2981464 L524.756908,310.927682 Z" id="Fill-1" fill="#13457C" mask="url(#mask-4)"></path>
                        </g>
                        <polygon id="Fill-4" stroke="none" fill="#FBB231" fill-rule="evenodd" points="325.345878 259.423746 330.207306 259.298389 335.00598 258.951568 339.704245 258.354032 344.377408 257.522496 348.920878 256.477854 353.397408 255.207568 357.777714 253.715818 362.057612 252.036032 366.249653 250.134782 370.320367 248.074746 374.257204 245.784889 378.097816 243.344604 381.783633 240.716282 385.339755 237.920818 388.770367 234.970746 392.037816 231.832639 395.183939 228.564996 398.133429 225.134389 400.93649 221.586782 403.56802 217.905461 406.011286 214.069532 408.299755 210.133318 410.358122 206.071746 412.261694 201.888996 413.947714 197.605961 415.441286 193.226818 416.717306 188.759925 417.763224 184.221996 418.587408 179.562889 419.194041 174.866175 419.545469 170.077532 419.666796 165.222032 419.545469 160.399961 419.194041 155.644746 418.587408 150.952211 417.763224 146.347425 416.717306 141.813675 415.441286 137.371854 413.947714 132.996889 412.261694 128.747282 410.358122 124.593782 408.299755 120.528032 406.011286 116.629425 403.56802 112.793496 400.93649 109.112175 398.133429 105.593818 395.183939 102.171568 392.037816 98.8997464 388.770367 95.7908893 385.339755 92.8408179 381.783633 90.0495321 378.097816 87.4170321 374.257204 84.9725679 370.320367 82.7244964 366.249653 80.6644607 362.057612 78.7548536 357.777714 77.0750679 353.397408 75.5874964 348.920878 74.3172107 344.377408 73.2725679 339.704245 72.4493893 335.00598 71.8434964 330.207306 71.4924964 325.345878 71.3671393 320.526286 71.4924964 315.727612 71.8434964 311.029347 72.4493893 306.389653 73.2725679 301.846184 74.3172107 297.369653 75.5874964 293.018633 77.0750679 288.730367 78.7548536 284.571796 80.6644607 280.542918 82.7244964 276.606082 84.9725679 272.786388 87.4170321 269.113122 90.0495321 265.548633 92.8408179 262.15149 95.7908893 258.879857 98.8997464 255.767204 102.171568 252.817714 105.593818 250.02302 109.112175 247.416592 112.793496 244.964959 116.629425 242.718327 120.528032 240.618122 124.593782 238.74802 128.747282 237.062 132.996889 235.601898 137.371854 234.334245 141.813675 233.279959 146.347425 232.455776 150.952211 231.85751 155.644746 231.506082 160.399961 231.376388 165.222032 231.506082 170.077532 231.85751 174.866175 232.455776 179.562889 233.279959 184.221996 234.334245 188.759925 235.601898 193.226818 237.062 197.605961 238.74802 201.888996 240.618122 206.071746 242.718327 210.133318 244.964959 214.069532 247.416592 217.905461 250.02302 221.586782 252.817714 225.134389 255.767204 228.564996 258.879857 231.832639 262.15149 234.970746 265.548633 237.920818 269.113122 240.716282 272.786388 243.344604 276.606082 245.784889 280.542918 248.074746 284.571796 250.134782 288.730367 252.036032 293.018633 253.715818 297.369653 255.207568 301.846184 256.477854 306.389653 257.522496 311.029347 258.354032 315.727612 258.951568 320.526286 259.298389"></polygon>
                        <polygon id="Fill-6" stroke="none" fill="#EC1C2E" fill-rule="evenodd" points="199.402663 259.423746 204.222255 259.298389 209.020929 258.951568 213.727561 258.354032 218.358888 257.522496 222.902357 256.477854 227.374704 255.207568 231.729908 253.715818 236.018173 252.036032 240.176745 250.134782 244.21399 248.074746 248.142459 245.784889 251.962153 243.344604 255.643786 240.716282 259.199908 237.920818 262.597051 234.970746 265.868684 231.832639 268.981337 228.564996 271.939194 225.134389 274.72552 221.586782 277.331949 217.905461 279.775214 214.069532 282.030214 210.133318 284.130418 206.071746 286.00052 201.888996 287.686541 197.605961 289.146643 193.226818 290.414296 188.759925 291.468582 184.221996 292.284398 179.562889 292.899398 174.866175 293.242459 170.077532 293.363786 165.222032 293.242459 160.399961 292.899398 155.644746 292.284398 150.952211 291.468582 146.347425 290.414296 141.813675 289.146643 137.371854 287.686541 132.996889 286.00052 128.747282 284.130418 124.593782 282.030214 120.528032 279.775214 116.629425 277.331949 112.793496 274.72552 109.112175 271.939194 105.593818 268.981337 102.171568 265.868684 98.8997464 262.597051 95.7908893 259.199908 92.8408179 255.643786 90.0495321 251.962153 87.4170321 248.142459 84.9725679 244.21399 82.7244964 240.176745 80.6644607 236.018173 78.7548536 231.729908 77.0750679 227.374704 75.5874964 222.902357 74.3172107 218.358888 73.2725679 213.727561 72.4493893 209.020929 71.8434964 204.222255 71.4924964 199.402663 71.3671393 194.541235 71.4924964 189.742561 71.8434964 185.044296 72.4493893 180.371133 73.2725679 175.836031 74.3172107 171.3595 75.5874964 166.970827 77.0750679 162.690929 78.7548536 158.498888 80.6644607 154.436541 82.7244964 150.499704 84.9725679 146.650724 87.4170321 142.964908 90.0495321 139.408786 92.8408179 135.978173 95.7908893 132.710724 98.8997464 129.564602 102.171568 126.615112 105.593818 123.820418 109.112175 121.18052 112.793496 118.737255 116.629425 116.448786 120.528032 114.390418 124.593782 112.47848 128.747282 110.800827 132.996889 109.307255 137.371854 108.031235 141.813675 106.985316 146.347425 106.161133 150.952211 105.5545 155.644746 105.203071 160.399961 105.081745 165.222032 105.203071 170.077532 105.5545 174.866175 106.161133 179.562889 106.985316 184.221996 108.031235 188.759925 109.307255 193.226818 110.800827 197.605961 112.47848 201.888996 114.390418 206.071746 116.448786 210.133318 118.737255 214.069532 121.18052 217.905461 123.820418 221.586782 126.615112 225.134389 129.564602 228.564996 132.710724 231.832639 135.978173 234.970746 139.408786 237.920818 142.964908 240.716282 146.650724 243.344604 150.499704 245.784889 154.436541 248.074746 158.498888 250.134782 162.690929 252.036032 166.970827 253.715818 171.3595 255.207568 175.836031 256.477854 180.371133 257.522496 185.044296 258.354032 189.742561 258.951568 194.541235 259.298389"></polygon>
                        <polygon id="Fill-8" stroke="none" fill="#FBB231" fill-rule="evenodd" points="251.35552 107.432389 301.379704 107.432389 301.379704 102.321996 255.668888 102.321996"></polygon>
                        <polygon id="Fill-10" stroke="none" fill="#FBB231" fill-rule="evenodd" points="243.862143 118.784732 301.379286 118.784732 301.379286 113.674339 246.878571 113.674339"></polygon>
                        <polygon id="Fill-12" stroke="none" fill="#FBB231" fill-rule="evenodd" points="238.265224 130.110332 301.380122 130.110332 301.380122 124.999939 240.495122 124.999939"></polygon>
                        <polygon id="Fill-14" stroke="none" fill="#FBB231" fill-rule="evenodd" points="234.424612 141.464764 301.380122 141.464764 301.380122 136.35855 236.018592 136.35855"></polygon>
                        <polygon id="Fill-16" stroke="none" fill="#FBB231" fill-rule="evenodd" points="236.655347 196.339436 301.535755 196.339436 301.535755 191.233221 235.061367 191.233221"></polygon>
                        <polygon id="Fill-18" stroke="none" fill="#FBB231" fill-rule="evenodd" points="241.443561 207.69345 301.533663 207.69345 301.533663 202.587236 239.067235 202.587236"></polygon>
                        <polygon id="Fill-20" stroke="none" fill="#FBB231" fill-rule="evenodd" points="248.176765 219.017379 301.535337 219.017379 301.535337 213.911164 244.963704 213.911164"></polygon>
                        <polygon id="Fill-22" stroke="none" fill="#FBB231" fill-rule="evenodd" points="257.451133 230.371811 301.5345 230.371811 301.5345 225.232168 252.974602 225.232168"></polygon>
                        <polygon id="Fill-24" stroke="none" fill="#FBB231" fill-rule="evenodd" points="232.177561 152.788693 301.379704 152.788693 301.379704 147.682479 233.156541 147.682479"></polygon>
                        <polygon id="Fill-26" stroke="none" fill="#FBB231" fill-rule="evenodd" points="274.349408 185.017596 300.735837 185.017596 300.735837 179.907204 275.299102 179.907204"></polygon>
                        <polygon id="Fill-28" stroke="none" fill="#FBB231" fill-rule="evenodd" points="276.441245 173.689489 300.735837 173.689489 300.735837 168.554025 277.399306 168.554025"></polygon>
                        <polygon id="Fill-30" stroke="none" fill="#FBB231" fill-rule="evenodd" points="230.428786 168.552354 237.285827 168.552354 237.285827 173.687818 230.746745 173.687818"></polygon>
                        <polygon id="Fill-32" stroke="none" fill="#FFFFFF" fill-rule="evenodd" points="217.624653 162.363889 217.185367 162.334639 216.733531 162.271961 216.323531 162.209282 215.917714 162.146604 215.532816 162.083925 215.122816 162.017068 214.708633 161.958568 214.256796 161.891711 213.81751 161.833211 213.311286 161.795604 212.738122 161.762175 212.139857 161.732925 211.470469 161.732925 210.738327 161.762175 209.909959 161.833211 208.993735 161.891711 208.357816 161.987818 207.755367 162.083925 207.215673 162.271961 206.730367 162.459996 206.291082 162.685639 205.881082 162.936354 205.563122 163.258104 205.278633 163.542246 205.082 163.889068 204.918837 164.240068 204.860265 164.620318 204.860265 165.000568 204.960673 165.414246 205.082 165.823746 205.33302 166.237425 205.655163 166.651104 206.291082 167.248639 207.060878 167.729175 207.943633 168.138675 208.89751 168.485496 209.909959 168.807246 210.964245 169.154068 212.010163 169.538496 213.022612 169.947996 213.980673 170.487032 214.863429 171.151425 215.66251 171.949532 216.323531 172.931496 216.833939 174.134925 217.151898 175.563996 217.281592 177.277211 217.151898 179.274568 216.930163 180.766318 216.545265 182.065854 216.039041 183.269282 215.403122 184.313925 214.675163 185.241568 213.85098 186.031318 212.959857 186.729139 211.976694 187.335032 210.964245 187.807211 209.909959 188.216711 208.830571 188.534282 207.721898 188.789175 206.64251 188.985568 205.588224 189.077496 204.542306 189.140175 203.563327 189.169425 202.195265 189.169425 200.923429 189.140175 199.810571 189.140175 198.764653 189.110925 197.810776 189.077496 196.953122 189.010639 196.191694 188.947961 195.463735 188.851854 194.794347 188.789175 194.187714 188.663818 193.593633 188.563532 193.045571 188.408925 192.505878 188.283568 191.999653 188.087175 191.493429 187.903318 190.953735 187.711104 192.384551 180.703639 192.669041 180.766318 193.020469 180.862425 193.463939 180.983604 194.003633 181.117318 194.572612 181.242675 195.204347 181.368032 195.907204 181.522639 196.664449 181.652175 197.459347 181.777532 198.283531 181.907068 199.149551 181.998996 200.032306 182.095104 200.956898 182.124354 201.877306 182.157782 202.801898 182.157782 203.718122 182.124354 204.638531 181.940496 205.374857 181.681425 205.94802 181.338782 206.387306 180.891675 206.701082 180.448746 206.952102 179.934782 207.115265 179.433354 207.249143 178.956996 207.303531 178.033532 207.019041 177.243782 206.479347 176.604461 205.684449 176.069604 204.738939 175.597425 203.617714 175.116889 202.383531 174.669782 201.145163 174.168354 199.87751 173.595889 198.668429 172.931496 197.555571 172.108318 196.543122 171.122175 195.744041 169.914568 195.179245 168.485496 194.890571 166.780639 194.924041 164.749854 195.078837 163.508818 195.300571 162.334639 195.618531 161.256568 196.003429 160.245354 196.509653 159.292639 197.082816 158.465282 197.752204 157.671354 198.542918 156.977711 199.46751 156.375996 200.479959 155.866211 201.626286 155.394032 202.898122 155.043032 204.320571 154.754711 205.881082 154.533246 207.592204 154.407889 209.470673 154.370282 210.637918 154.370282 211.717306 154.407889 212.704653 154.441318 213.595776 154.470568 214.390673 154.533246 215.122816 154.595925 215.754551 154.658604 216.323531 154.725461 216.863224 154.788139 217.306694 154.880068 217.729245 154.946925 218.105776 155.009604 218.415367 155.068104 218.712408 155.105711 218.996898 155.168389 219.243735 155.201818"></polygon>
                        <polyline id="Stroke-34" stroke="#FFFFFF" stroke-width="0.216" fill="none" points="217.624653 162.363889 217.624653 162.363889 217.185367 162.334639 216.733531 162.271961 216.323531 162.209282 215.917714 162.146604 215.532816 162.083925 215.122816 162.017068 214.708633 161.958568 214.256796 161.891711 213.81751 161.833211 213.311286 161.795604 212.738122 161.762175 212.139857 161.732925 211.470469 161.732925 210.738327 161.762175 209.909959 161.833211 208.993735 161.891711 208.357816 161.987818 207.755367 162.083925 207.215673 162.271961 206.730367 162.459996 206.291082 162.685639 205.881082 162.936354 205.563122 163.258104 205.278633 163.542246 205.082 163.889068 204.918837 164.240068 204.860265 164.620318 204.860265 165.000568 204.960673 165.414246 205.082 165.823746 205.33302 166.237425 205.655163 166.651104 206.291082 167.248639 207.060878 167.729175 207.943633 168.138675 208.89751 168.485496 209.909959 168.807246 210.964245 169.154068 212.010163 169.538496 213.022612 169.947996 213.980673 170.487032 214.863429 171.151425 215.66251 171.949532 216.323531 172.931496 216.833939 174.134925 217.151898 175.563996 217.281592 177.277211 217.151898 179.274568 216.930163 180.766318 216.545265 182.065854 216.039041 183.269282 215.403122 184.313925 214.675163 185.241568 213.85098 186.031318 212.959857 186.729139 211.976694 187.335032 210.964245 187.807211 209.909959 188.216711 208.830571 188.534282 207.721898 188.789175 206.64251 188.985568 205.588224 189.077496 204.542306 189.140175 203.563327 189.169425 202.195265 189.169425 200.923429 189.140175 199.810571 189.140175 198.764653 189.110925 197.810776 189.077496 196.953122 189.010639 196.191694 188.947961 195.463735 188.851854 194.794347 188.789175 194.187714 188.663818 193.593633 188.563532 193.045571 188.408925 192.505878 188.283568 191.999653 188.087175 191.493429 187.903318 190.953735 187.711104 192.384551 180.703639 192.669041 180.766318 193.020469 180.862425 193.463939 180.983604 194.003633 181.117318 194.572612 181.242675 195.204347 181.368032 195.907204 181.522639 196.664449 181.652175 197.459347 181.777532 198.283531 181.907068 199.149551 181.998996 200.032306 182.095104 200.956898 182.124354 201.877306 182.157782 202.801898 182.157782 203.718122 182.124354 204.638531 181.940496 205.374857 181.681425 205.94802 181.338782 206.387306 180.891675 206.701082 180.448746 206.952102 179.934782 207.115265 179.433354 207.249143 178.956996 207.303531 178.033532 207.019041 177.243782 206.479347 176.604461 205.684449 176.069604 204.738939 175.597425 203.617714 175.116889 202.383531 174.669782 201.145163 174.168354 199.87751 173.595889 198.668429 172.931496 197.555571 172.108318 196.543122 171.122175 195.744041 169.914568 195.179245 168.485496 194.890571 166.780639 194.924041 164.749854 195.078837 163.508818 195.300571 162.334639 195.618531 161.256568 196.003429 160.245354 196.509653 159.292639 197.082816 158.465282 197.752204 157.671354 198.542918 156.977711 199.46751 156.375996 200.479959 155.866211 201.626286 155.394032 202.898122 155.043032 204.320571 154.754711 205.881082 154.533246 207.592204 154.407889 209.470673 154.370282 210.637918 154.370282 211.717306 154.407889 212.704653 154.441318 213.595776 154.470568 214.390673 154.533246 215.122816 154.595925 215.754551 154.658604 216.323531 154.725461 216.863224 154.788139 217.306694 154.880068 217.729245 154.946925 218.105776 155.009604 218.415367 155.068104 218.712408 155.105711 218.996898 155.168389 219.243735 155.201818 217.624653 162.363889"></polyline>
                        <polygon id="Fill-36" stroke="none" fill="#FFFFFF" fill-rule="evenodd" points="225.158194 147.367414 233.952276 147.367414 232.651153 155.04345 237.956051 155.04345 236.809724 162.2097 231.220337 162.050914 228.174622 179.747164 228.141153 180.382307 228.295949 180.925521 228.613908 181.335021 229.032276 181.681843 229.601255 181.907486 230.241357 182.095521 230.935847 182.220879 231.693092 182.287736 232.395949 182.258486 233.036051 182.191629 233.600847 182.095521 234.115439 181.970164 234.521255 181.840629 234.809929 181.7487 234.998194 181.681843 235.060949 181.652593 233.952276 187.552736 233.730541 187.711521 233.508806 187.836879 233.278704 187.962236 233.061153 188.087593 232.839418 188.1837 232.584214 188.283986 232.299724 188.375914 232.015235 188.472021 231.693092 188.56395 231.375133 188.630807 230.998602 188.693486 230.617888 188.760343 230.19952 188.823021 229.726765 188.8857 229.220541 188.948379 228.680847 189.011057 226.271051 189.011057 224.995031 188.91495 223.882173 188.789593 222.869724 188.601557 222.012071 188.375914 221.275745 188.087593 220.681663 187.778379 220.141969 187.39395 219.723602 186.980271 219.405643 186.537343 219.183908 185.998307 219.020745 185.455093 218.932888 184.857557 218.899418 184.188986 218.899418 183.495343 218.995643 182.764093 219.087684 181.970164"></polygon>
                        <polyline id="Stroke-38" stroke="#FFFFFF" stroke-width="0.216" fill="none" points="225.158194 147.367414 233.952276 147.367414 232.651153 155.04345 237.956051 155.04345 236.809724 162.2097 231.220337 162.050914 228.174622 179.747164 228.141153 180.382307 228.295949 180.925521 228.613908 181.335021 229.032276 181.681843 229.601255 181.907486 230.241357 182.095521 230.935847 182.220879 231.693092 182.287736 232.395949 182.258486 233.036051 182.191629 233.600847 182.095521 234.115439 181.970164 234.521255 181.840629 234.809929 181.7487 234.998194 181.681843 235.060949 181.652593 233.952276 187.552736 233.730541 187.711521 233.508806 187.836879 233.278704 187.962236 233.061153 188.087593 232.839418 188.1837 232.584214 188.283986 232.299724 188.375914 232.015235 188.472021 231.693092 188.56395 231.375133 188.630807 230.998602 188.693486 230.617888 188.760343 230.19952 188.823021 229.726765 188.8857 229.220541 188.948379 228.680847 189.011057 226.271051 189.011057 224.995031 188.91495 223.882173 188.789593 222.869724 188.601557 222.012071 188.375914 221.275745 188.087593 220.681663 187.778379 220.141969 187.39395 219.723602 186.980271 219.405643 186.537343 219.183908 185.998307 219.020745 185.455093 218.932888 184.857557 218.899418 184.188986 218.899418 183.495343 218.995643 182.764093 219.087684 181.970164 225.158194 147.367414"></polyline>
                        <polyline id="Stroke-40" stroke="#FFFFFF" stroke-width="0.216" fill="none" points="244.965378 174.1671 244.965378 174.1671 244.881704 174.701957 244.852418 175.274421 244.898439 175.876136 245.032316 176.482029 245.258235 177.083743 245.513439 177.660386 245.8565 178.257921 246.241398 178.796957 246.689051 179.340171 247.161806 179.820707 247.668031 180.288707 248.241194 180.668957 248.80599 181.019957 249.450276 181.3041 250.08201 181.525564 250.717929 181.6551 251.55048 181.776279 252.33701 181.876564 253.161194 181.968493 253.993745 182.03535 254.813745 182.0646 255.671398 182.0646 256.503949 182.03535 257.353235 181.968493 258.210888 181.843136 259.076908 181.680171 259.959663 181.492136 260.817316 181.207993 261.708439 180.861171 262.633031 180.476743 263.515786 179.975314 264.444561 179.4321 263.172724 187.237671 262.662316 187.488386 262.147724 187.747457 261.6415 187.931314 261.168745 188.127707 260.69599 188.282314 260.181398 188.445279 259.675173 188.562279 259.13548 188.662564 258.562316 188.758671 257.926398 188.825529 257.261194 188.884029 256.529051 188.946707 255.700684 188.984314 254.843031 188.984314 253.864051 189.009386 252.818133 189.009386 251.257622 188.984314 249.67201 188.825529 248.086398 188.599886 246.492418 188.215457 244.940276 187.747457 243.446704 187.137386 242.015888 186.347636 240.68548 185.424171 239.442929 184.350279 238.363541 183.046564 237.447316 181.588243 236.681704 179.908457 236.14201 178.036457 235.790582 175.909564 235.698541 173.561207 235.853337 170.962136 235.987214 169.946743 236.171296 168.772564 236.4265 167.539886 236.777929 166.202743 237.259051 164.844707 237.823847 163.478314 238.560173 162.082671 239.442929 160.753886 240.463745 159.479421 241.697929 158.275993 243.095276 157.197921 244.689255 156.249386 246.525888 155.451279 248.592622 154.882993 250.881092 154.502743 253.454051 154.373207 254.688235 154.406636 255.997724 154.531993 257.286296 154.753457 258.595786 155.071029 259.871806 155.551564 261.101806 156.11985 262.248133 156.88035 263.294051 157.766207 264.247929 158.848457 265.042827 160.118743 265.678745 161.577064 266.122214 163.261029 266.373235 165.153921 266.406704 167.310064 266.184969 169.725279 265.712214 172.391207 265.549051 174.325886 242.400786 174.325886 243.860888 168.074743 257.771602 168.074743 257.834357 167.284993 257.800888 166.524493 257.738133 165.822493 257.612622 165.195707 257.386704 164.589814 257.164969 164.0466 256.84701 163.570243 256.529051 163.127314 256.15252 162.751243 255.734153 162.429493 255.261398 162.14535 254.780276 161.890457 254.282418 161.7066 253.767827 161.577064 253.228133 161.480957 252.663337 161.4141 252.048337 161.447529 251.487724 161.543636 250.948031 161.673171 250.408337 161.861207 249.860276 162.111921 249.38752 162.400243 248.902214 162.751243 248.504765 163.127314 248.086398 163.570243 247.7015 164.0466 247.358439 164.556386 247.065582 165.0996 246.781092 165.667886 246.559357 166.303029 246.371092 166.938171 246.241398 167.602564 244.965378 174.1671"></polyline>
                        <polygon id="Fill-42" stroke="none" fill="#FFFFFF" fill-rule="evenodd" points="320.712878 156.9447 320.29451 156.723236 319.888694 156.531021 319.445224 156.309557 318.964102 156.083914 318.491347 155.900057 317.951653 155.707843 317.411959 155.515629 316.838796 155.327593 316.236347 155.168807 315.629714 155.04345 314.960327 154.913914 314.299306 154.817807 313.571347 154.755129 312.83502 154.69245 312.077776 154.69245 311.282878 154.69245 310.492163 154.69245 309.655429 154.755129 308.806143 154.855414 307.906653 155.010021 307.028082 155.260736 306.136959 155.611736 305.254204 156.058843 304.354714 156.62295 303.497061 157.32495 302.672878 158.148129 301.87798 159.163521 301.116551 160.3377 300.413694 161.733343 299.752673 163.317021 299.158592 165.101271 298.644 167.127879 298.455735 168.26445 298.321857 169.37595 298.259102 170.48745 298.292571 171.5697 298.388796 172.643593 298.610531 173.658986 298.89502 174.6117 299.246449 175.564414 299.719204 176.421021 300.292367 177.240021 300.961755 177.971271 301.723184 178.639843 302.580837 179.212307 303.559816 179.684486 304.639204 180.098164 305.856653 180.382307 306.266653 180.474236 306.739408 180.570343 307.312571 180.6372 307.94849 180.704057 308.64298 180.766736 309.370939 180.766736 310.17002 180.766736 310.964918 180.704057 311.789102 180.603771 312.613286 180.449164 313.408184 180.223521 314.198898 179.972807 314.993796 179.621807 315.730122 179.212307 316.391143 178.7067 317.027061 178.134236 315.596245 186.6042 315.40798 186.758807 315.215531 186.951021 314.960327 187.176664 314.675837 187.356343 314.332776 187.611236 313.880939 187.836879 313.374714 188.058343 312.801551 188.246379 312.077776 188.472021 311.249408 188.630807 310.295531 188.760343 309.182673 188.8857 307.94849 188.948379 306.517673 188.981807 304.902776 188.948379 303.112163 188.852271 301.656245 188.693486 300.196143 188.375914 298.731857 187.903736 297.275939 187.264414 295.878592 186.508093 294.548184 185.5512 293.272163 184.443879 292.096551 183.177771 291.050633 181.7487 290.15951 180.165021 289.402265 178.389129 288.829102 176.450271 288.452571 174.327557 288.322878 172.075307 288.385633 169.601593 288.728694 166.964914 288.992265 165.669557 289.276755 164.399271 289.590531 163.162414 289.90849 161.988236 290.259918 160.876736 290.665735 159.769414 291.084102 158.720593 291.523388 157.738629 292.008694 156.756664 292.481449 155.8332 293.021143 154.947343 293.594306 154.124164 294.163286 153.326057 294.79502 152.569736 295.430939 151.871914 296.100327 151.203343 296.828286 150.5682 297.564612 149.966486 298.321857 149.42745 299.125122 148.917664 299.974408 148.441307 300.832061 148.035986 301.723184 147.651557 302.647776 147.300557 303.626755 146.982986 304.605735 146.732271 305.630735 146.506629 306.705939 146.322771 307.785327 146.155629 308.931653 146.03445 310.073796 145.97595 311.282878 145.934164 312.295327 145.97595 313.286857 146.03445 314.232367 146.130557 315.190429 146.255914 316.081551 146.381271 316.939204 146.573486 317.75502 146.732271 318.524816 146.920307 319.248592 147.108343 319.888694 147.300557 320.491143 147.492771 320.997367 147.680807 321.440837 147.839593 321.825735 147.969129 322.110224 148.094486 322.306857 148.161343"></polygon>
                        <polyline id="Stroke-44" stroke="#FFFFFF" stroke-width="0.216" fill="none" points="320.712878 156.9447 320.712878 156.9447 320.29451 156.723236 319.888694 156.531021 319.445224 156.309557 318.964102 156.083914 318.491347 155.900057 317.951653 155.707843 317.411959 155.515629 316.838796 155.327593 316.236347 155.168807 315.629714 155.04345 314.960327 154.913914 314.299306 154.817807 313.571347 154.755129 312.83502 154.69245 312.077776 154.69245 311.282878 154.69245 310.492163 154.69245 309.655429 154.755129 308.806143 154.855414 307.906653 155.010021 307.028082 155.260736 306.136959 155.611736 305.254204 156.058843 304.354714 156.62295 303.497061 157.32495 302.672878 158.148129 301.87798 159.163521 301.116551 160.3377 300.413694 161.733343 299.752673 163.317021 299.158592 165.101271 298.644 167.127879 298.455735 168.26445 298.321857 169.37595 298.259102 170.48745 298.292571 171.5697 298.388796 172.643593 298.610531 173.658986 298.89502 174.6117 299.246449 175.564414 299.719204 176.421021 300.292367 177.240021 300.961755 177.971271 301.723184 178.639843 302.580837 179.212307 303.559816 179.684486 304.639204 180.098164 305.856653 180.382307 306.266653 180.474236 306.739408 180.570343 307.312571 180.6372 307.94849 180.704057 308.64298 180.766736 309.370939 180.766736 310.17002 180.766736 310.964918 180.704057 311.789102 180.603771 312.613286 180.449164 313.408184 180.223521 314.198898 179.972807 314.993796 179.621807 315.730122 179.212307 316.391143 178.7067 317.027061 178.134236 315.596245 186.6042 315.40798 186.758807 315.215531 186.951021 314.960327 187.176664 314.675837 187.356343 314.332776 187.611236 313.880939 187.836879 313.374714 188.058343 312.801551 188.246379 312.077776 188.472021 311.249408 188.630807 310.295531 188.760343 309.182673 188.8857 307.94849 188.948379 306.517673 188.981807 304.902776 188.948379 303.112163 188.852271 301.656245 188.693486 300.196143 188.375914 298.731857 187.903736 297.275939 187.264414 295.878592 186.508093 294.548184 185.5512 293.272163 184.443879 292.096551 183.177771 291.050633 181.7487 290.15951 180.165021 289.402265 178.389129 288.829102 176.450271 288.452571 174.327557 288.322878 172.075307 288.385633 169.601593 288.728694 166.964914 288.992265 165.669557 289.276755 164.399271 289.590531 163.162414 289.90849 161.988236 290.259918 160.876736 290.665735 159.769414 291.084102 158.720593 291.523388 157.738629 292.008694 156.756664 292.481449 155.8332 293.021143 154.947343 293.594306 154.124164 294.163286 153.326057 294.79502 152.569736 295.430939 151.871914 296.100327 151.203343 296.828286 150.5682 297.564612 149.966486 298.321857 149.42745 299.125122 148.917664 299.974408 148.441307 300.832061 148.035986 301.723184 147.651557 302.647776 147.300557 303.626755 146.982986 304.605735 146.732271 305.630735 146.506629 306.705939 146.322771 307.785327 146.155629 308.931653 146.03445 310.073796 145.97595 311.282878 145.934164 312.295327 145.97595 313.286857 146.03445 314.232367 146.130557 315.190429 146.255914 316.081551 146.381271 316.939204 146.573486 317.75502 146.732271 318.524816 146.920307 319.248592 147.108343 319.888694 147.300557 320.491143 147.492771 320.997367 147.680807 321.440837 147.839593 321.825735 147.969129 322.110224 148.094486 322.306857 148.161343 320.712878 156.9447"></polyline>
                        <polygon id="Fill-46" stroke="none" fill="#FFFFFF" fill-rule="evenodd" points="398.895276 189.010639 390.101194 189.010639 390.741296 185.492282 390.741296 185.174711 390.226704 185.809854 389.695378 186.378139 389.155684 186.883746 388.58252 187.335032 388.00099 187.744532 387.43201 188.087175 386.858847 188.375496 386.256398 188.663818 385.658133 188.885282 385.0515 189.044068 384.449051 189.198675 383.813133 189.290604 383.173031 189.390889 382.570582 189.453568 381.938847 189.486996 381.302929 189.486996 379.650378 189.357461 378.131704 189.010639 376.734357 188.471604 375.458337 187.744532 374.316194 186.821068 373.303745 185.747175 372.412622 184.568818 371.651194 183.240032 371.015276 181.806782 370.509051 180.323389 370.157622 178.768961 369.902418 177.147675 369.814561 175.530568 369.839663 173.884211 370.002827 172.267104 370.287316 170.649996 370.760071 168.773818 371.341602 166.997925 371.994255 165.380818 372.79752 163.859818 373.621704 162.430746 374.571398 161.160461 375.558745 160.023889 376.604663 158.975068 377.71752 158.051604 378.893133 157.261854 380.102214 156.564032 381.302929 156.024996 382.570582 155.577889 383.842418 155.297925 385.118439 155.105711 386.419561 155.043032 387.339969 155.068104 388.222724 155.168389 389.055276 155.327175 389.825071 155.552818 390.544663 155.807711 391.180582 156.087675 391.820684 156.438675 392.389663 156.789675 392.895888 157.161568 393.372827 157.579425 393.778643 157.993104 394.163541 158.402604 394.4815 158.816282 394.778541 159.229961 395.021194 159.610211 395.217827 159.990461 397.439357 147.525782 406.078643 147.525782"></polygon>
                        <polyline id="Stroke-48" stroke="#FFFFFF" stroke-width="0.216" fill="none" points="398.895276 189.010639 390.101194 189.010639 390.741296 185.492282 390.741296 185.174711 390.226704 185.809854 389.695378 186.378139 389.155684 186.883746 388.58252 187.335032 388.00099 187.744532 387.43201 188.087175 386.858847 188.375496 386.256398 188.663818 385.658133 188.885282 385.0515 189.044068 384.449051 189.198675 383.813133 189.290604 383.173031 189.390889 382.570582 189.453568 381.938847 189.486996 381.302929 189.486996 379.650378 189.357461 378.131704 189.010639 376.734357 188.471604 375.458337 187.744532 374.316194 186.821068 373.303745 185.747175 372.412622 184.568818 371.651194 183.240032 371.015276 181.806782 370.509051 180.323389 370.157622 178.768961 369.902418 177.147675 369.814561 175.530568 369.839663 173.884211 370.002827 172.267104 370.287316 170.649996 370.760071 168.773818 371.341602 166.997925 371.994255 165.380818 372.79752 163.859818 373.621704 162.430746 374.571398 161.160461 375.558745 160.023889 376.604663 158.975068 377.71752 158.051604 378.893133 157.261854 380.102214 156.564032 381.302929 156.024996 382.570582 155.577889 383.842418 155.297925 385.118439 155.105711 386.419561 155.043032 387.339969 155.068104 388.222724 155.168389 389.055276 155.327175 389.825071 155.552818 390.544663 155.807711 391.180582 156.087675 391.820684 156.438675 392.389663 156.789675 392.895888 157.161568 393.372827 157.579425 393.778643 157.993104 394.163541 158.402604 394.4815 158.816282 394.778541 159.229961 395.021194 159.610211 395.217827 159.990461 397.439357 147.525782 406.078643 147.525782 398.895276 189.010639"></polyline>
                        <polygon id="Fill-50" stroke="none" fill="#FBB231" fill-rule="evenodd" points="384.513898 181.336693 385.40502 181.274014 386.229204 181.0818 386.990633 180.860336 387.726959 180.513514 388.38798 180.133264 389.023898 179.652729 389.622163 179.117871 390.170224 178.541229 390.64298 177.906086 391.082265 177.208264 391.500633 176.481193 391.852061 175.724871 392.161653 174.926764 392.425224 174.103586 392.642776 173.246979 392.797571 172.390371 392.956551 171.504514 393.061143 170.585229 393.061143 169.724443 393.019306 168.838586 392.931449 168.015407 392.797571 167.221479 392.58002 166.4568 392.324816 165.729729 392.006857 165.098764 391.630327 164.492871 391.216143 163.983086 390.739204 163.540157 390.19951 163.159907 389.622163 162.905014 389.023898 162.750407 388.35451 162.68355 387.496857 162.750407 386.701959 162.875764 385.978184 163.130657 385.241857 163.44405 384.601755 163.857729 383.974204 164.367514 383.43451 164.90655 382.894816 165.508264 382.413694 166.201907 381.974408 166.937336 381.556041 167.693657 381.204612 168.521014 380.89502 169.373443 380.639816 170.238407 380.388796 171.149336 380.192163 172.0728 380.029 173.472621 380.100122 174.993621 380.321857 176.543871 380.731857 178.035621 381.367776 179.339336 382.191959 180.383979 383.237878 181.0818"></polygon>
                        <polygon id="Fill-52" stroke="none" fill="#FFFFFF" fill-rule="evenodd" points="189.491122 181.969329 188.215102 189.010221 180.215918 189.010221 180.437653 187.710686 180.600816 186.536507 180.722143 185.65065 180.85602 185.174293 180.412551 185.6799 179.897959 186.189686 179.299694 186.666043 178.630306 187.104793 177.873061 187.5519 177.069796 187.93215 176.245612 188.3124 175.396327 188.629971 174.471735 188.914114 173.547143 189.139757 172.635102 189.331971 171.677041 189.457329 170.752449 189.520007 169.840408 189.549257 168.949286 189.457329 168.083265 189.331971 166.970408 189.04365 165.957959 188.726079 165.066837 188.3124 164.276122 187.836043 163.581633 187.334614 162.941531 186.757971 162.435306 186.152079 161.987653 185.525293 161.611122 184.856721 161.293163 184.154721 161.037959 183.461079 160.849694 182.763257 160.72 182.036186 160.623776 181.300757 160.556837 180.602936 160.556837 179.905114 160.653061 178.668257 160.849694 177.498257 161.163469 176.386757 161.577653 175.308686 162.083878 174.293293 162.657041 173.374007 163.326429 172.48815 164.087857 171.694221 164.878571 170.962971 165.769694 170.2944 166.685918 169.692686 167.639796 169.1829 168.656429 168.748329 169.706531 168.39315 170.785918 168.109007 171.898776 167.916793 171.965714 167.916793 172.12051 167.883364 172.338061 167.854114 172.68949 167.824864 173.074388 167.762186 173.517857 167.728757 173.990612 167.666079 174.538673 167.6034 175.078367 167.540721 175.618061 167.478043 176.187041 167.440436 176.693265 167.377757 177.19949 167.348507 177.676429 167.3109 178.115714 167.285829 178.467143 167.285829 179.203469 167.285829 179.973265 167.3109 180.667755 167.348507 181.362245 167.348507 181.931224 167.377757 182.383061 167.411186 182.692653 167.440436 182.788878 167.440436 182.855816 167.218971 183.044082 166.650686 183.207245 165.982114 183.265816 165.3804 183.140306 164.686757 182.855816 164.043257 182.470918 163.47915 181.964694 162.998614 181.362245 162.593293 180.697041 162.304971 179.931429 162.112757 179.107245 162.050079 178.216122 162.020829 177.258061 161.9874 176.279082 161.9874 175.266633 162.020829 174.220714 162.083507 173.195714 162.175436 172.183265 162.271543 171.195918 162.401079 170.246224 162.526436 169.325816 162.685221 168.497449 162.839829 167.740204 162.998614 167.037347 163.195007 166.472551 163.383043 166.024898 163.604507 165.673469 163.792543 167.928469 156.149936 168.631327 155.865793 169.325816 155.6109 170.091429 155.393614 170.852857 155.23065 171.614286 155.071864 172.438469 154.946507 173.262653 154.816971 174.120306 154.754293 175.011429 154.691614 175.927653 154.658186 176.881531 154.624757 177.873061 154.624757 178.88551 154.624757 179.931429 154.624757 181.040102 154.658186 182.152959 154.691614 183.044082 154.754293 184.002143 154.913079 184.98949 155.138721 185.993571 155.422864 186.972551 155.807293 187.93898 156.250221 188.88449 156.789257 189.775612 157.386793 190.57051 158.088793 191.273367 158.849293 191.909286 159.701721 192.382041 160.654436 192.704184 161.674007 192.888265 162.7479 192.888265 163.951329 192.704184 165.221614"></polygon>
                        <polyline id="Stroke-54" stroke="#FFFFFF" stroke-width="0.216" fill="none" points="189.491122 181.969329 188.215102 189.010221 180.215918 189.010221 180.437653 187.710686 180.600816 186.536507 180.722143 185.65065 180.85602 185.174293 180.412551 185.6799 179.897959 186.189686 179.299694 186.666043 178.630306 187.104793 177.873061 187.5519 177.069796 187.93215 176.245612 188.3124 175.396327 188.629971 174.471735 188.914114 173.547143 189.139757 172.635102 189.331971 171.677041 189.457329 170.752449 189.520007 169.840408 189.549257 168.949286 189.457329 168.083265 189.331971 166.970408 189.04365 165.957959 188.726079 165.066837 188.3124 164.276122 187.836043 163.581633 187.334614 162.941531 186.757971 162.435306 186.152079 161.987653 185.525293 161.611122 184.856721 161.293163 184.154721 161.037959 183.461079 160.849694 182.763257 160.72 182.036186 160.623776 181.300757 160.556837 180.602936 160.556837 179.905114 160.653061 178.668257 160.849694 177.498257 161.163469 176.386757 161.577653 175.308686 162.083878 174.293293 162.657041 173.374007 163.326429 172.48815 164.087857 171.694221 164.878571 170.962971 165.769694 170.2944 166.685918 169.692686 167.639796 169.1829 168.656429 168.748329 169.706531 168.39315 170.785918 168.109007 171.898776 167.916793 171.965714 167.916793 172.12051 167.883364 172.338061 167.854114 172.68949 167.824864 173.074388 167.762186 173.517857 167.728757 173.990612 167.666079 174.538673 167.6034 175.078367 167.540721 175.618061 167.478043 176.187041 167.440436 176.693265 167.377757 177.19949 167.348507 177.676429 167.3109 178.115714 167.285829 178.467143 167.285829 179.203469 167.285829 179.973265 167.3109 180.667755 167.348507 181.362245 167.348507 181.931224 167.377757 182.383061 167.411186 182.692653 167.440436 182.788878 167.440436 182.855816 167.218971 183.044082 166.650686 183.207245 165.982114 183.265816 165.3804 183.140306 164.686757 182.855816 164.043257 182.470918 163.47915 181.964694 162.998614 181.362245 162.593293 180.697041 162.304971 179.931429 162.112757 179.107245 162.050079 178.216122 162.020829 177.258061 161.9874 176.279082 161.9874 175.266633 162.020829 174.220714 162.083507 173.195714 162.175436 172.183265 162.271543 171.195918 162.401079 170.246224 162.526436 169.325816 162.685221 168.497449 162.839829 167.740204 162.998614 167.037347 163.195007 166.472551 163.383043 166.024898 163.604507 165.673469 163.792543 167.928469 156.149936 168.631327 155.865793 169.325816 155.6109 170.091429 155.393614 170.852857 155.23065 171.614286 155.071864 172.438469 154.946507 173.262653 154.816971 174.120306 154.754293 175.011429 154.691614 175.927653 154.658186 176.881531 154.624757 177.873061 154.624757 178.88551 154.624757 179.931429 154.624757 181.040102 154.658186 182.152959 154.691614 183.044082 154.754293 184.002143 154.913079 184.98949 155.138721 185.993571 155.422864 186.972551 155.807293 187.93898 156.250221 188.88449 156.789257 189.775612 157.386793 190.57051 158.088793 191.273367 158.849293 191.909286 159.701721 192.382041 160.654436 192.704184 161.674007 192.888265 162.7479 192.888265 163.951329 192.704184 165.221614 189.491122 181.969329"></polyline>
                        <polygon id="Fill-56" stroke="none" fill="#EC1C2E" fill-rule="evenodd" points="181.842531 173.689489 181.809061 173.530704 181.679367 173.376096 181.491102 173.275811 181.173143 173.217311 180.821714 173.154632 180.411714 173.117025 179.930592 173.117025 179.457837 173.117025 178.943245 173.154632 178.403551 173.217311 177.897327 173.275811 177.391102 173.342668 176.914163 173.409525 176.46651 173.501454 176.08998 173.597561 175.738551 173.689489 175.516816 173.752168 175.265796 173.852454 174.914367 173.977811 174.562939 174.132418 174.152939 174.324632 173.738755 174.550275 173.295286 174.767561 172.876918 175.022454 172.437633 175.340025 172.027633 175.657596 171.642735 176.037846 171.29549 176.422275 170.973347 176.827596 170.755796 177.278882 170.559163 177.780311 170.467122 178.290096 170.433653 179.368168 170.596816 180.224775 170.910592 180.859918 171.324776 181.336275 171.801714 181.653846 172.341408 181.841882 172.847633 181.937989 173.362224 181.967239 174.316102 181.937989 175.173755 181.841882 176.002122 181.712346 176.717531 181.524311 177.366 181.302846 177.960082 181.018704 178.499776 180.734561 178.980898 180.383561 179.399265 180.065989 179.775796 179.685739 180.093755 179.338918 180.348959 178.958668 180.56651 178.574239 180.754776 178.198168 180.917939 177.847168 181.00998 177.496168 181.269367 176.581061 181.491102 175.528061 181.679367 174.516846"></polygon>
                        <polygon id="Fill-58" stroke="none" fill="#FFFFFF" fill-rule="evenodd" points="122.674929 189.010639 114.039827 189.010639 121.244112 147.366996 136.271867 147.366996 137.694316 172.074889 148.078194 147.366996 163.766969 147.366996 156.39952 189.010639 147.760235 189.010639 153.219929 157.896996 152.876867 157.896996 139.949316 189.010639 130.201357 189.010639 130.142786 187.711104 129.912684 184.251246 129.628194 179.341425 129.310235 173.687818 128.992276 168.017496 128.703602 163.040818 128.486051 159.422175 128.419112 157.896996 128.331255 157.896996 128.14299 157.896996 127.946357 157.896996"></polygon>
                        <polyline id="Stroke-60" stroke="#FFFFFF" stroke-width="0.216" fill="none" points="122.674929 189.010639 114.039827 189.010639 121.244112 147.366996 136.271867 147.366996 137.694316 172.074889 148.078194 147.366996 163.766969 147.366996 156.39952 189.010639 147.760235 189.010639 153.219929 157.896996 152.876867 157.896996 139.949316 189.010639 130.201357 189.010639 130.142786 187.711104 129.912684 184.251246 129.628194 179.341425 129.310235 173.687818 128.992276 168.017496 128.703602 163.040818 128.486051 159.422175 128.419112 157.896996 128.331255 157.896996 128.14299 157.896996 127.946357 157.896996 122.674929 189.010639"></polyline>
                        <polygon id="Fill-62" stroke="none" fill="#FFFFFF" fill-rule="evenodd" points="347.106 181.969329 345.804878 189.010221 337.830796 189.010221 337.897735 187.710686 337.931204 186.569936 337.931204 185.713329 337.993959 185.337257 337.579776 185.809436 337.094469 186.285793 336.52549 186.728721 335.893755 187.175829 335.224367 187.585329 334.467122 187.965579 333.672224 188.345829 332.88151 188.6634 332.01549 188.914114 331.132735 189.169007 330.241612 189.331971 329.358857 189.457329 328.425898 189.520007 327.543143 189.549257 326.677122 189.457329 325.827837 189.331971 324.685694 189.04365 323.669061 188.726079 322.782122 188.3124 321.953755 187.836043 321.250898 187.334614 320.648449 186.757971 320.142224 186.152079 319.690388 185.525293 319.313857 184.856721 319.029367 184.154721 318.778347 183.461079 318.619367 182.763257 318.489673 182.036186 318.393449 181.300757 318.32651 180.602936 318.32651 179.905114 318.393449 178.668257 318.590082 177.498257 318.874571 176.386757 319.284571 175.308686 319.757327 174.293293 320.368143 173.374007 321.033347 172.48815 321.757122 171.694221 322.593857 170.962971 323.443143 170.2944 324.363551 169.692686 325.346714 169.1829 326.334061 168.748329 327.37998 168.39315 328.425898 168.109007 329.505286 167.916793 329.572224 167.916793 329.735388 167.883364 329.952939 167.854114 330.275082 167.824864 330.680898 167.762186 331.132735 167.728757 331.60549 167.666079 332.111714 167.6034 332.651408 167.540721 333.224571 167.478043 333.764265 167.440436 334.308143 167.377757 334.814367 167.348507 335.257837 167.3109 335.697122 167.285829 336.048551 167.285829 336.80998 167.285829 337.579776 167.3109 338.303551 167.348507 339.006408 167.348507 339.604673 167.377757 340.119265 167.411186 340.403755 167.440436 340.537633 167.440436 340.59202 167.218971 340.692429 166.650686 340.780286 165.982114 340.847224 165.3804 340.717531 164.686757 340.470694 164.043257 340.052327 163.47915 339.571204 162.998614 339.006408 162.593293 338.33702 162.304971 337.634163 162.112757 336.876918 162.050079 335.985796 162.020829 335.036102 161.9874 334.048755 161.9874 333.036306 162.020829 331.98202 162.083507 330.969571 162.175436 329.952939 162.271543 328.965592 162.401079 328.020082 162.526436 327.09549 162.685221 326.27549 162.839829 325.509878 162.998614 324.80702 163.195007 324.233857 163.383043 323.794571 163.604507 323.443143 163.792543 325.673041 156.149936 326.367531 155.865793 327.09549 155.6109 327.823449 155.393614 328.589061 155.23065 329.383959 155.071864 330.174673 154.946507 330.998857 154.816971 331.85651 154.754293 332.747633 154.691614 333.672224 154.658186 334.588449 154.624757 335.567429 154.624757 336.558959 154.624757 337.579776 154.624757 338.65498 154.658186 339.734367 154.691614 340.62549 154.754293 341.583551 154.913079 342.562531 155.138721 343.583347 155.422864 344.56651 155.807293 345.54549 156.250221 346.499367 156.789257 347.39049 157.386793 348.185388 158.088793 348.921714 158.849293 349.549265 159.701721 350.02202 160.654436 350.373449 161.674007 350.595184 162.7479 350.595184 163.951329 350.440388 165.221614"></polygon>
                        <polygon id="Fill-64" stroke="none" fill="#FFFFFF" fill-rule="evenodd" points="345.806551 189.235029 345.994816 189.042814 347.291755 182.001921 346.911041 181.939243 345.609918 188.984314 345.806551 188.787921 345.806551 189.235029 345.961347 189.2016 345.994816 189.042814"></polygon>
                        <polygon id="Fill-66" stroke="none" fill="#FFFFFF" fill-rule="evenodd" points="337.635418 189.010639 337.832051 189.236282 345.806133 189.236282 345.806133 188.789175 337.832051 188.789175 338.020316 189.010639 337.635418 189.010639 337.610316 189.236282 337.832051 189.236282"></polygon>
                        <polygon id="Fill-68" stroke="none" fill="#FFFFFF" fill-rule="evenodd" points="338.150429 185.454257 337.865939 185.203543 337.732061 185.713329 337.702776 186.569936 337.702776 187.710686 337.635837 189.010221 338.020735 189.010221 338.08349 187.710686 338.150429 186.569936 338.108592 185.713329 338.108592 185.454257 337.832469 185.203543"></polygon>
                        <polygon id="Fill-70" stroke="none" fill="#FFFFFF" fill-rule="evenodd" points="325.795204 189.520425 325.795204 189.520425 326.677959 189.645782 327.54398 189.737711 328.426735 189.712639 329.359694 189.645782 330.271735 189.520425 331.162857 189.357461 332.045612 189.110925 332.936735 188.851854 333.727449 188.534282 334.555816 188.158211 335.313061 187.777961 335.986633 187.335032 336.65602 186.883746 337.225 186.444996 337.735408 185.935211 338.149592 185.454675 337.831633 185.203961 337.413265 185.680318 336.97398 186.127425 336.400816 186.570354 335.798367 187.013282 335.124796 187.393532 334.367551 187.777961 333.606122 188.158211 332.815408 188.471604 331.982857 188.726496 331.100102 188.985568 330.20898 189.140175 329.359694 189.261354 328.426735 189.332389 327.54398 189.357461 326.677959 189.261354 325.853776 189.140175"></polygon>
                        <polygon id="Fill-72" stroke="none" fill="#FFFFFF" fill-rule="evenodd" points="318.106031 179.906368 318.106031 179.906368 318.1395 180.604189 318.202255 181.302011 318.294296 182.066689 318.42399 182.793761 318.587153 183.491582 318.842357 184.222832 319.126847 184.949904 319.536847 185.618475 319.9845 186.282868 320.490724 186.884582 321.130827 187.486296 321.854602 187.996082 322.682969 188.505868 323.603378 188.915368 324.640929 189.232939 325.795622 189.521261 325.854194 189.141011 324.716235 188.852689 323.737255 188.535118 322.871235 188.125618 322.042867 187.678511 321.37348 187.177082 320.8045 186.629689 320.294092 186.027975 319.854806 185.426261 319.511745 184.761868 319.218888 184.093296 318.963684 183.433082 318.808888 182.731082 318.679194 181.999832 318.587153 181.302011 318.524398 180.604189 318.553684 179.906368"></polygon>
                        <polygon id="Fill-74" stroke="none" fill="#FFFFFF" fill-rule="evenodd" points="329.505286 167.727921 329.505286 167.727921 328.400796 167.915957 327.325592 168.204279 326.279673 168.5511 325.254673 168.998207 324.267327 169.503814 323.313449 170.138957 322.45998 170.807529 321.635796 171.568029 320.870184 172.357779 320.20498 173.247814 319.569061 174.200529 319.096306 175.24935 318.677939 176.323243 318.393449 177.463993 318.205184 178.667421 318.104776 179.908457 318.556612 179.908457 318.590082 178.667421 318.778347 177.53085 319.062837 176.452779 319.472837 175.374707 319.953959 174.388564 320.527122 173.498529 321.19651 172.612671 321.891 171.822921 322.706816 171.120921 323.572837 170.45235 324.455592 169.888243 325.442939 169.374279 326.392633 168.935529 327.446918 168.588707 328.459367 168.300386 329.505286 168.108171"></polygon>
                        <polygon id="Fill-76" stroke="none" fill="#FFFFFF" fill-rule="evenodd" points="336.050224 167.060604 336.050224 167.060604 335.698796 167.060604 335.25951 167.127461 334.816041 167.165068 334.309816 167.190139 333.761755 167.248639 333.222061 167.286246 332.653082 167.348925 332.113388 167.407425 331.607163 167.478461 331.130224 167.541139 330.682571 167.570389 330.272571 167.637246 329.954612 167.666496 329.699408 167.695746 329.569714 167.729175 329.506959 167.729175 329.506959 168.109425 329.569714 168.109425 329.766347 168.075996 329.954612 168.046746 330.272571 168.017496 330.682571 167.950639 331.130224 167.917211 331.607163 167.854532 332.113388 167.787675 332.653082 167.729175 333.222061 167.666496 333.761755 167.637246 334.309816 167.570389 334.816041 167.541139 335.25951 167.503532 335.698796 167.503532 336.050224 167.503532"></polygon>
                        <polygon id="Fill-78" stroke="none" fill="#FFFFFF" fill-rule="evenodd" points="340.340163 167.409514 340.536796 167.250729 340.407102 167.250729 340.118429 167.221479 339.603837 167.18805 339.009755 167.12955 338.306898 167.12955 337.578939 167.12955 336.809143 167.062693 336.051898 167.062693 336.051898 167.505621 336.809143 167.505621 337.578939 167.505621 338.306898 167.5683 339.009755 167.5683 339.603837 167.5683 340.118429 167.601729 340.407102 167.635157 340.536796 167.635157 340.716694 167.476371 340.536796 167.635157 340.691592 167.664407 340.716694 167.476371"></polygon>
                        <polygon id="Fill-80" stroke="none" fill="#FFFFFF" fill-rule="evenodd" points="340.658959 165.381654 340.62549 165.381654 340.59202 165.983368 340.495796 166.618511 340.403755 167.190975 340.341 167.408261 340.717531 167.475118 340.780286 167.249475 340.880694 166.677011 340.976918 165.983368 341.077327 165.381654 341.03549 165.381654"></polygon>
                        <polygon id="Fill-82" stroke="none" fill="#FFFFFF" fill-rule="evenodd" points="336.875663 162.241457 336.875663 162.270707 337.61199 162.304136 338.27301 162.49635 338.908929 162.780493 339.448622 163.160743 339.892092 163.603671 340.272806 164.142707 340.536378 164.715171 340.657704 165.379564 341.034235 165.379564 340.912908 164.656671 340.657704 163.954671 340.210051 163.352957 339.703827 162.838993 339.097194 162.400243 338.394337 162.111921 337.666378 161.928064 336.875663 161.831957 336.875663 161.861207"></polygon>
                        <polygon id="Fill-84" stroke="none" fill="#FFFFFF" fill-rule="evenodd" points="323.254041 163.765382 323.572 163.953418 323.889959 163.794632 324.299959 163.573168 324.839653 163.380954 325.54251 163.197096 326.303939 163.038311 327.128122 162.875346 328.048531 162.716561 328.964755 162.595382 329.956286 162.461668 330.968735 162.365561 331.981184 162.273632 333.035469 162.210954 334.047918 162.210954 335.035265 162.210954 335.984959 162.210954 336.876082 162.240204 336.876082 161.859954 335.984959 161.830704 335.035265 161.763846 334.047918 161.763846 333.035469 161.830704 331.981184 161.889204 330.968735 161.989489 329.956286 162.085596 328.964755 162.210954 327.985776 162.332132 327.061184 162.495096 326.237 162.653882 325.475571 162.812668 324.781082 163.000704 324.178633 163.197096 323.693327 163.414382 323.312612 163.635846 323.638939 163.828061"></polygon>
                        <polygon id="Fill-86" stroke="none" fill="#FFFFFF" fill-rule="evenodd" points="325.607357 155.959393 325.477663 156.122357 323.256133 163.764964 323.636847 163.827643 325.854194 156.180857 325.728684 156.343821 325.607357 155.959393 325.511133 155.992821 325.477663 156.122357"></polygon>
                        <polygon id="Fill-88" stroke="none" fill="#FFFFFF" fill-rule="evenodd" points="339.735622 154.504414 339.735622 154.504414 338.656235 154.441736 337.576847 154.408307 336.556031 154.408307 335.568684 154.408307 334.589704 154.408307 333.67348 154.470986 332.748888 154.504414 331.857765 154.571271 331.000112 154.625593 330.142459 154.755129 329.360112 154.880486 328.556847 155.04345 327.791235 155.202236 327.029806 155.4237 326.301847 155.674414 325.607357 155.958557 325.728684 156.342986 326.431541 156.058843 327.1595 155.808129 327.85399 155.578307 328.623786 155.4237 329.4145 155.260736 330.209398 155.135379 331.000112 155.010021 331.857765 154.947343 332.748888 154.880486 333.67348 154.851236 334.589704 154.851236 335.568684 154.851236 336.556031 154.851236 337.576847 154.851236 338.656235 154.880486 339.735622 154.880486"></polygon>
                        <polygon id="Fill-90" stroke="none" fill="#FFFFFF" fill-rule="evenodd" points="350.627816 165.255043 350.627816 165.255043 350.79098 163.951329 350.79098 162.7479 350.569245 161.6364 350.217816 160.591757 349.711592 159.609793 349.075673 158.723936 348.305878 157.930007 347.515163 157.232186 346.598939 156.626293 345.645061 156.058007 344.628429 155.6109 343.641082 155.23065 342.595163 154.946507 341.607816 154.725043 340.624653 154.570436 339.733531 154.503579 339.733531 154.883829 340.624653 154.946507 341.540878 155.105293 342.528224 155.326757 343.519755 155.6109 344.498735 155.99115 345.448429 156.438257 346.402306 156.943864 347.259959 157.545579 348.054857 158.2434 348.749347 158.97465 349.385265 159.79365 349.837102 160.725471 350.188531 161.703257 350.406082 162.7479 350.406082 163.951329 350.242918 165.192364"></polygon>
                        <polygon id="Fill-92" stroke="none" fill="#FFFFFF" fill-rule="evenodd" points="347.293847 181.999832 347.293847 181.999832 350.628235 165.256296 350.243337 165.193618 346.908949 181.937154"></polygon>
                        <polygon id="Fill-94" stroke="none" fill="#FBB231" fill-rule="evenodd" points="339.416827 173.689489 339.349888 173.501454 339.228561 173.342668 339.006827 173.246561 338.6805 173.154632 338.337439 173.117025 337.931622 173.083596 337.446316 173.083596 336.973561 173.117025 336.458969 173.183882 335.961112 173.246561 335.454888 173.313418 334.973765 173.376096 334.496827 173.472204 334.082643 173.530704 333.672643 173.626811 333.354684 173.689489 333.132949 173.722918 332.881929 173.819025 332.559786 173.915132 332.208357 174.040489 331.794173 174.224346 331.409276 174.420739 330.965806 174.646382 330.55999 174.926346 330.141622 175.214668 329.735806 175.561489 329.384378 175.908311 329.032949 176.321989 328.752643 176.764918 328.522541 177.241275 328.338459 177.751061 328.238051 178.290096 328.204582 179.368168 328.359378 180.224775 328.622949 180.859918 328.99948 181.336275 329.472235 181.653846 330.020296 181.841882 330.55999 181.937989 331.099684 181.967239 332.045194 181.937989 332.936316 181.841882 333.7605 181.683096 334.496827 181.461632 335.191316 181.206739 335.797949 180.922596 336.366929 180.600846 336.877337 180.224775 337.32499 179.873775 337.70152 179.464275 338.052949 179.084025 338.337439 178.666168 338.559173 178.290096 338.713969 177.905668 338.843663 177.529596 338.944071 177.178596 339.065398 176.292739 339.228561 175.373454 339.349888 174.483418"></polygon>
                        <polygon id="Fill-96" stroke="none" fill="#FFFFFF" fill-rule="evenodd" points="404.835673 184.670775 404.902612 183.935346 405.153633 183.078739 405.605469 182.318239 406.14098 181.653846 406.806184 181.114811 407.563429 180.734561 408.391796 180.475489 409.278735 180.383561 410.178224 180.475489 410.998224 180.734561 411.763837 181.114811 412.424857 181.653846 412.964551 182.318239 413.40802 183.078739 413.667408 183.935346 413.734347 184.670775 412.776286 184.670775 412.747 184.094132 412.558735 183.396311 412.240776 182.765346 411.822408 182.222132 411.316184 181.779204 410.717918 181.461632 410.015061 181.240168 409.278735 181.177489 408.554959 181.240168 407.860469 181.461632 407.245469 181.779204 406.739245 182.222132 406.329245 182.765346 406.011286 183.396311 405.82302 184.094132 405.760265 184.670775"></polygon>
                        <polygon id="Fill-98" stroke="none" fill="#FFFFFF" fill-rule="evenodd" points="407.695633 184.670775 407.695633 182.765346 409.444408 182.765346 409.829306 182.794596 410.180735 182.857275 410.423388 182.953382 410.65349 183.078739 410.808286 183.270954 410.929612 183.463168 410.996551 183.680454 411.03002 183.906096 410.996551 184.190239 410.929612 184.411704 410.841755 184.603918 410.774816 184.670775 409.444408 184.670775 409.565735 184.633168 409.787469 184.603918 409.984102 184.541239 410.147265 184.478561 410.268592 184.382454 410.335531 184.282168 410.398286 184.131739 410.398286 183.906096 410.360633 183.747311 410.302061 183.617775 410.197469 183.555096 410.105429 183.492418 409.950633 183.463168 409.787469 183.433918 409.632673 183.433918 409.444408 183.433918 408.486347 183.433918 408.486347 184.670775"></polygon>
                        <polygon id="Fill-100" stroke="none" fill="#FFFFFF" fill-rule="evenodd" points="404.835673 184.670775 404.810571 184.854632 404.902612 185.778096 405.153633 186.630525 405.605469 187.395204 406.14098 188.030346 406.806184 188.565204 407.563429 188.983061 408.391796 189.233775 409.278735 189.329882 410.178224 189.233775 410.998224 188.983061 411.763837 188.565204 412.424857 188.030346 412.964551 187.395204 413.40802 186.630525 413.667408 185.778096 413.767816 184.854632 413.734347 184.670775 412.776286 184.670775 412.809755 184.854632 412.747 185.619311 412.558735 186.317132 412.240776 186.923025 411.822408 187.453704 411.316184 187.900811 410.717918 188.247632 410.015061 188.473275 409.278735 188.535954 408.554959 188.473275 407.860469 188.247632 407.245469 187.900811 406.739245 187.453704 406.329245 186.923025 406.011286 186.317132 405.82302 185.619311 405.760265 184.854632 405.760265 184.670775"></polygon>
                        <polygon id="Fill-102" stroke="none" fill="#FFFFFF" fill-rule="evenodd" points="407.695633 184.670775 407.695633 186.601275 408.486347 186.601275 408.486347 185.017596 409.281245 185.017596 410.235122 186.601275 410.866857 186.601275 409.917163 185.017596 410.147265 185.017596 410.360633 184.950739 410.557265 184.888061 410.720429 184.762704 410.774816 184.670775 409.444408 184.670775 409.281245 184.700025 408.486347 184.700025 408.486347 184.670775"></polygon>
                        <path d="M409.280827,188.535118 L409.280827,188.535118 L410.017153,188.472439 L410.72001,188.246796 L411.314092,187.904154 L411.820316,187.452868 L412.238684,186.922189 L412.556643,186.316296 L412.744908,185.618475 L412.811847,184.857975 L412.744908,184.097475 L412.556643,183.395475 L412.238684,182.764511 L411.820316,182.221296 L411.314092,181.778368 L410.72001,181.464975 L410.017153,181.239332 L409.280827,181.176654 L408.552867,181.239332 L407.858378,181.464975 L407.247561,181.778368 L406.741337,182.221296 L406.331337,182.764511 L406.013378,183.395475 L405.825112,184.097475 L405.758173,184.857975 L405.825112,185.618475 L406.013378,186.316296 L406.331337,186.922189 L406.741337,187.452868 L407.247561,187.904154 L407.858378,188.246796 L408.552867,188.472439 L409.280827,188.535118 M409.280827,184.699189 L409.280827,184.699189 L409.565316,184.632332 L409.787051,184.603082 L409.983684,184.540404 L410.146847,184.477725 L410.268173,184.381618 L410.335112,184.281332 L410.402051,184.130904 L410.402051,183.905261 L410.360214,183.746475 L410.301643,183.616939 L410.197051,183.558439 L410.10501,183.491582 L409.950214,183.462332 L409.787051,183.433082 L409.632255,183.433082 L409.44399,183.433082 L408.490112,183.433082 L408.490112,184.699189 L409.280827,184.699189 M408.490112,186.604618 L407.695214,186.604618 L407.695214,182.764511 L409.44399,182.764511 L409.828888,182.793761 L410.180316,182.856439 L410.422969,182.952546 L410.653071,183.077904 L410.807867,183.270118 L410.933378,183.462332 L410.996133,183.679618 L411.029602,183.905261 L410.996133,184.189404 L410.933378,184.410868 L410.841337,184.603082 L410.72001,184.761868 L410.556847,184.887225 L410.360214,184.949904 L410.146847,185.016761 L409.916745,185.016761 L410.866439,186.604618 L410.238888,186.604618 L409.280827,185.016761 L408.490112,185.016761 L408.490112,186.604618 M404.812663,184.857975 L404.812663,184.857975 L404.90052,183.934511 L405.155724,183.077904 L405.603378,182.317404 L406.143071,181.653011 L406.804092,181.118154 L407.56552,180.733725 L408.389704,180.474654 L409.280827,180.382725 L410.180316,180.474654 L410.996133,180.733725 L411.765929,181.118154 L412.426949,181.653011 L412.966643,182.317404 L413.405929,183.077904 L413.6695,183.934511 L413.765724,184.857975 L413.6695,185.777261 L413.405929,186.629689 L412.966643,187.394368 L412.426949,188.029511 L411.765929,188.564368 L410.996133,188.982225 L410.180316,189.232939 L409.280827,189.329046 L408.389704,189.232939 L407.56552,188.982225 L406.804092,188.564368 L406.143071,188.029511 L405.603378,187.394368 L405.155724,186.629689 L404.90052,185.777261 L404.812663,184.857975" id="Stroke-104" stroke="#FFFFFF" stroke-width="0.216" fill="none"></path>
                        <polygon id="Fill-106" stroke="none" fill="#FFFFFF" fill-rule="evenodd" points="349.483582 189.010639 358.440827 189.010639 361.649704 170.963389 361.775214 170.269746 361.959296 169.567746 362.155929 168.869925 362.411133 168.172104 362.729092 167.478461 363.105622 166.809889 363.519806 166.174746 364.038582 165.573032 364.599194 165.033996 365.239296 164.524211 365.963071 164.043675 366.791439 163.667604 367.711847 163.354211 368.72848 163.099318 369.837153 162.907104 371.079704 162.840246 371.531541 162.840246 371.774194 162.840246 371.874602 162.840246 373.301235 154.692032 372.410112 154.754711 371.552459 154.854996 370.761745 155.009604 370.000316 155.231068 369.297459 155.481782 368.636439 155.807711 368.00052 156.150354 367.402255 156.530604 366.824908 156.977711 366.285214 157.420639 365.77899 157.930425 365.268582 158.436032 364.787459 158.975068 364.323071 159.576782 363.841949 160.145068 363.390112 160.784389 364.348173 155.043032 355.424398 155.043032"></polygon>
                        <polyline id="Stroke-108" stroke="#FFFFFF" stroke-width="0.216" fill="none" points="349.483582 189.010639 358.440827 189.010639 361.649704 170.963389 361.775214 170.269746 361.959296 169.567746 362.155929 168.869925 362.411133 168.172104 362.729092 167.478461 363.105622 166.809889 363.519806 166.174746 364.038582 165.573032 364.599194 165.033996 365.239296 164.524211 365.963071 164.043675 366.791439 163.667604 367.711847 163.354211 368.72848 163.099318 369.837153 162.907104 371.079704 162.840246 371.531541 162.840246 371.774194 162.840246 371.874602 162.840246 373.301235 154.692032 372.410112 154.754711 371.552459 154.854996 370.761745 155.009604 370.000316 155.231068 369.297459 155.481782 368.636439 155.807711 368.00052 156.150354 367.402255 156.530604 366.824908 156.977711 366.285214 157.420639 365.77899 157.930425 365.268582 158.436032 364.787459 158.975068 364.323071 159.576782 363.841949 160.145068 363.390112 160.784389 364.348173 155.043032 355.424398 155.043032 349.483582 189.010639"></polyline>
                        <polygon id="Fill-110" stroke="none" fill="#FFFFFF" fill-rule="evenodd" points="265.393418 189.010639 274.350663 189.010639 274.505459 189.010639 277.551173 170.963389 277.685051 170.269746 277.839847 169.601175 278.00301 168.936782 278.220561 168.297461 278.475765 167.666496 278.793724 167.060604 279.170255 166.492318 279.617908 165.953282 280.124133 165.472746 280.697296 165.000568 281.391786 164.620318 282.161582 164.273496 283.052704 163.980996 284.031684 163.734461 285.111071 163.571496 286.353622 163.479568 286.44148 163.479568 286.571173 163.508818 286.730153 163.542246 286.893316 163.542246 287.05648 163.571496 287.177806 163.604925 287.269847 163.638354 287.299133 163.638354 287.340969 163.508818 287.43301 163.128568 287.554337 162.560282 287.7175 161.858282 287.939235 161.035104 288.156786 160.145068 288.453827 159.259211 288.729949 158.369175 288.99352 157.767461 289.31148 157.161568 289.621071 156.564032 289.939031 156.024996 290.227704 155.552818 290.445255 155.168389 290.600051 154.946925 290.66699 154.854996 290.63352 154.854996 290.512194 154.817389 290.349031 154.788139 290.127296 154.754711 289.905561 154.754711 289.654541 154.725461 289.432806 154.692032 289.211071 154.692032 288.223724 154.754711 287.340969 154.854996 286.508418 155.009604 285.74699 155.201818 285.010663 155.452532 284.349643 155.774282 283.747194 156.087675 283.174031 156.463746 282.634337 156.881604 282.128112 157.357961 281.655357 157.834318 281.170051 158.369175 280.697296 158.912389 280.249643 159.518282 279.776888 160.145068 279.299949 160.784389 280.446276 155.043032 271.334235 155.043032"></polygon>
                        <polyline id="Stroke-112" stroke="#FFFFFF" stroke-width="0.216" fill="none" points="265.393418 189.010639 274.350663 189.010639 274.505459 189.010639 277.551173 170.963389 277.685051 170.269746 277.839847 169.601175 278.00301 168.936782 278.220561 168.297461 278.475765 167.666496 278.793724 167.060604 279.170255 166.492318 279.617908 165.953282 280.124133 165.472746 280.697296 165.000568 281.391786 164.620318 282.161582 164.273496 283.052704 163.980996 284.031684 163.734461 285.111071 163.571496 286.353622 163.479568 286.44148 163.479568 286.571173 163.508818 286.730153 163.542246 286.893316 163.542246 287.05648 163.571496 287.177806 163.604925 287.269847 163.638354 287.299133 163.638354 287.340969 163.508818 287.43301 163.128568 287.554337 162.560282 287.7175 161.858282 287.939235 161.035104 288.156786 160.145068 288.453827 159.259211 288.729949 158.369175 288.99352 157.767461 289.31148 157.161568 289.621071 156.564032 289.939031 156.024996 290.227704 155.552818 290.445255 155.168389 290.600051 154.946925 290.66699 154.854996 290.63352 154.854996 290.512194 154.817389 290.349031 154.788139 290.127296 154.754711 289.905561 154.754711 289.654541 154.725461 289.432806 154.692032 289.211071 154.692032 288.223724 154.754711 287.340969 154.854996 286.508418 155.009604 285.74699 155.201818 285.010663 155.452532 284.349643 155.774282 283.747194 156.087675 283.174031 156.463746 282.634337 156.881604 282.128112 157.357961 281.655357 157.834318 281.170051 158.369175 280.697296 158.912389 280.249643 159.518282 279.776888 160.145068 279.299949 160.784389 280.446276 155.043032 271.334235 155.043032 265.393418 189.010639"></polyline>
                        <polygon id="Fill-114" stroke="none" fill="#FBB231" fill-rule="evenodd" points="404.900939 222.379875 404.900939 222.250339 405.156143 221.427161 405.603796 220.700089 406.14349 220.064946 406.80451 219.559339 407.565939 219.174911 408.390122 218.957625 409.281245 218.857339 410.180735 218.957625 410.996551 219.174911 411.766347 219.559339 412.427367 220.064946 412.967061 220.700089 413.406347 221.427161 413.669918 222.250339 413.669918 222.379875 412.745327 222.379875 412.557061 221.719661 412.239102 221.113768 411.820735 220.570554 411.31451 220.127625 410.720429 219.776625 410.017571 219.559339 409.281245 219.492482 408.553286 219.559339 407.858796 219.776625 407.24798 220.127625 406.737571 220.570554 406.331755 221.113768 406.013796 221.719661 405.825531 222.379875"></polygon>
                        <polygon id="Fill-116" stroke="none" fill="#FBB231" fill-rule="evenodd" points="407.695633 222.379875 407.695633 221.272554 409.444408 221.272554 409.829306 221.272554 410.180735 221.335232 410.423388 221.393732 410.65349 221.519089 410.808286 221.682054 410.929612 221.874268 410.996551 222.095732 411.03002 222.379875 410.398286 222.379875 410.398286 222.221089 410.360633 222.062304 410.302061 221.936946 410.197469 221.874268 410.105429 221.807411 409.950633 221.773982 409.787469 221.748911 409.632673 221.748911 409.444408 221.748911 408.486347 221.748911 408.486347 222.379875"></polygon>
                        <polygon id="Fill-118" stroke="none" fill="#FBB231" fill-rule="evenodd" points="404.811408 223.075607 404.899265 222.377786 405.823857 222.377786 405.823857 222.407036 405.761102 223.075607"></polygon>
                        <polygon id="Fill-120" stroke="none" fill="#FBB231" fill-rule="evenodd" points="407.695633 223.075607 407.695633 222.377786 408.486347 222.377786 408.486347 223.012929 409.281245 223.012929 409.565735 222.954429 409.787469 222.921 409.984102 222.854143 410.147265 222.791464 410.268592 222.699536 410.335531 222.59925 410.398286 222.448821 410.398286 222.377786 411.03002 222.377786 410.996551 222.59925 410.929612 222.791464 410.841755 222.954429 410.720429 223.075607"></polygon>
                        <polygon id="Fill-122" stroke="none" fill="#FBB231" fill-rule="evenodd" points="412.81101 223.075607 412.744071 222.407036 412.744071 222.377786 413.668663 222.377786 413.769071 223.075607"></polygon>
                        <polygon id="Fill-124" stroke="none" fill="#FBB231" fill-rule="evenodd" points="404.811408 223.075607 404.811408 223.171714 404.899265 224.091 405.154469 224.947607 405.602122 225.708107 406.141816 226.376679 406.80702 226.915714 407.564265 227.291786 408.388449 227.550857 409.279571 227.642786 410.179061 227.550857 410.999061 227.291786 411.764673 226.915714 412.425694 226.376679 412.965388 225.708107 413.408857 224.947607 413.668245 224.091 413.768653 223.171714 413.768653 223.075607 412.810592 223.075607 412.810592 223.171714 412.743653 223.936393 412.559571 224.634214 412.237429 225.23175 411.823245 225.766607 411.31702 226.217893 410.718755 226.564714 410.015898 226.790357 409.279571 226.853036 408.555796 226.790357 407.861306 226.564714 407.246306 226.217893 406.740082 225.766607 406.330082 225.23175 406.012122 224.634214 405.823857 223.936393 405.761102 223.171714 405.761102 223.075607"></polygon>
                        <polygon id="Fill-126" stroke="none" fill="#FBB231" fill-rule="evenodd" points="407.695633 223.075607 407.695633 224.918357 408.486347 224.918357 408.486347 223.3305 409.281245 223.3305 410.235122 224.918357 410.866857 224.918357 409.917163 223.3305 410.147265 223.3305 410.360633 223.267821 410.557265 223.205143 410.720429 223.075607"></polygon>
                        <path d="M257.769929,168.074743 L246.168602,168.074743 L246.176969,168.049671 L246.160235,168.045493 L246.239724,167.602564 L246.369418,166.938171 L246.557684,166.303029 L246.779418,165.667886 L247.063908,165.0996 L247.360949,164.556386 L247.70401,164.0466 L248.088908,163.570243 L248.503092,163.127314 L248.904724,162.751243 L249.385847,162.400243 L249.858602,162.111921 L250.406663,161.861207 L250.946357,161.673171 L251.486051,161.543636 L252.050847,161.447529 L252.661663,161.4141 L253.226459,161.480957 L253.766153,161.577064 L254.280745,161.7066 L254.778602,161.890457 L255.259724,162.14535 L255.736663,162.429493 L256.150847,162.751243 L256.527378,163.127314 L256.845337,163.570243 L257.163296,164.0466 L257.385031,164.589814 L257.615133,165.195707 L257.736459,165.822493 L257.803398,166.524493 L257.836867,167.284993 L257.769929,168.074743 Z M266.375745,165.153921 L266.120541,163.261029 L265.681255,161.577064 L265.041153,160.118743 L264.250439,158.848457 L263.292378,157.766207 L262.246459,156.88035 L261.104316,156.11985 L259.870133,155.551564 L258.594112,155.071029 L257.288806,154.753457 L255.996051,154.531993 L254.690745,154.406636 L253.456561,154.373207 L250.883602,154.502743 L248.595133,154.882993 L246.524214,155.451279 L244.687582,156.249386 L243.093602,157.197921 L241.696255,158.275993 L240.462071,159.479421 L239.441255,160.753886 L238.5585,162.082671 L237.822173,163.478314 L237.261561,164.844707 L236.776255,166.202743 L236.424827,167.539886 L236.173806,168.772564 L235.985541,169.946743 L235.855847,170.962136 L235.701051,173.561207 L235.788908,175.909564 L236.140337,178.036457 L236.680031,179.908457 L237.449827,181.588243 L238.361867,183.046564 L239.441255,184.350279 L240.683806,185.424171 L242.014214,186.347636 L243.445031,187.137386 L244.942786,187.747457 L246.494929,188.215457 L248.088908,188.599886 L249.670337,188.825529 L251.255949,188.984314 L252.816459,189.009386 L253.862378,189.009386 L254.845541,188.984314 L255.703194,188.984314 L256.527378,188.946707 L257.263704,188.884029 L257.924724,188.825529 L258.560643,188.758671 L259.133806,188.662564 L259.6735,188.562279 L260.179724,188.445279 L260.694316,188.282314 L261.167071,188.127707 L261.64401,187.931314 L262.150235,187.747457 L262.664827,187.488386 L263.171051,187.237671 L264.447071,179.4321 L263.514112,179.975314 L262.631357,180.476743 L261.706765,180.861171 L260.819827,181.207993 L259.95799,181.492136 L259.075235,181.680171 L258.209214,181.843136 L257.351561,181.968493 L256.502276,182.03535 L255.669724,182.0646 L254.812071,182.0646 L253.996255,182.03535 L253.15952,181.968493 L252.335337,181.876564 L251.55299,181.776279 L250.716255,181.6551 L250.080337,181.525564 L249.452786,181.3041 L248.804316,181.019957 L248.243704,180.668957 L247.670541,180.288707 L247.164316,179.820707 L246.691561,179.340171 L246.239724,178.796957 L245.854827,178.2621 L245.511765,177.660386 L245.260745,177.083743 L245.030643,176.482029 L244.900949,175.876136 L244.850745,175.274421 L244.875847,174.739564 L244.951153,174.325886 L265.547378,174.325886 L265.710541,172.391207 L266.18748,169.725279 L266.405031,167.310064 L266.375745,165.153921 Z" id="Fill-128" stroke="none" fill="#FFFFFF" fill-rule="evenodd"></path>
                    </g>
                </g>
            </g>
        </g>
    </g>
</svg>