<?xml version="1.0" encoding="UTF-8"?>
<svg width="480px" height="300px" viewBox="0 0 480 300" version="1.1" xmlns="http://www.w3.org/2000/svg" xmlns:xlink="http://www.w3.org/1999/xlink">
    <!-- Generator: Sketch 42 (36781) - http://www.bohemiancoding.com/sketch -->
    <title>Group</title>
    <desc>Created with Sketch.</desc>
    <defs>
        <rect id="path-1" x="0" y="0" width="480" height="300" rx="30"></rect>
        <polygon id="path-3" points="0 335.927283 536.823388 335.927283 536.823388 0.487762105 0 0.487762105"></polygon>
    </defs>
    <g id="Page-1" stroke="none" stroke-width="1" fill="none" fill-rule="evenodd">
        <g id="Group">
            <g id="Page-1">
                <mask id="mask-2" fill="white">
                    <use xlink:href="#path-1"></use>
                </mask>
                <use id="Mask" fill="#0078A9" xlink:href="#path-1"></use>
                <g mask="url(#mask-2)">
                    <g transform="translate(-29.000000, -20.000000)">
                        <path d="M166.555202,160.398444 L166.555202,155.032644 L163.987283,160.398444 L141.761948,160.398444 L138.971476,154.638981 L138.971476,160.398444 L97.4268326,160.398444 L92.5178281,148.781102 L84.1934919,148.781102 L78.9934567,160.398444 L57.4528993,160.398444 L57.4528993,125.33247 L73.241319,89.6118174 L103.478561,89.6118174 L107.724186,99.7315279 L107.724186,89.6888384 L144.697935,89.6888384 L152.829677,106.727607 L160.785945,89.6118174 L277.514966,89.6118174 C277.514966,89.6118174 283.630892,89.5305174 287.662524,92.3631805 L287.636845,89.6118174 L317.043793,89.6118174 L317.043793,93.4799858 C317.043793,93.4799858 322.333705,89.6118174 330.153017,89.6118174 L382.046373,89.6118174 L386.600149,99.8812911 L386.600149,89.6118174 L419.854695,89.6118174 L425.889304,99.8812911 L425.889304,89.6118174 L457.675856,89.6118174 L457.675856,160.466907 L425.020491,160.466907 L417.346694,148.113586 L417.346694,160.398444 L376.752181,160.398444 L371.042842,147.745596 L363.086574,147.745596 L357.736743,160.398444 L333.170322,160.398444 C333.170322,160.398444 324.007132,160.282912 317.13795,155.366402 L317.13795,160.398444 L268.22766,160.398444 L268.22766,143.86887 C268.22766,141.468381 266.387318,141.635259 266.387318,141.635259 L264.598335,141.635259 L264.598335,160.398444 L166.555202,160.398444 Z" id="Fill-4" stroke="none" fill="#FFFFFF" fill-rule="evenodd"></path>
                        <path d="M142.146707,175.742321 L206.413151,175.742321 L215.691897,186.238579 L225.176076,175.742321 L274.58711,175.742321 C274.58711,175.742321 279.226483,175.857853 283.634744,178.206995 L283.634744,175.742321 L327.636029,175.742321 C333.221252,175.742321 337.907704,178.532195 337.907704,178.532195 L337.907704,175.742321 L394.466111,175.742321 L394.466111,178.318247 C394.466111,178.318247 398.493464,175.742321 403.911772,175.742321 L440.757124,175.742321 L440.757124,178.318247 C440.757124,178.318247 445.396497,175.742321 450.305502,175.742321 L479.237385,175.742321 L479.237385,242.511016 C479.237385,242.511016 475.432586,246.811358 467.566195,246.811358 L429.424044,246.811358 L429.424044,244.689 C429.424044,244.689 425.794719,246.811358 420.260854,246.811358 L318.943625,246.811358 L318.943625,229.554363 C318.943625,227.8599 318.207488,227.547537 316.692416,227.547537 L315.29718,227.547537 L315.29718,246.811358 L283.634744,246.811358 L283.634744,227.667347 C283.634744,227.667347 280.120975,229.554363 274.253281,229.554363 L262.868842,229.554363 L262.868842,246.811358 L223.840759,246.811358 L214.96432,235.981342 L205.467301,246.811358 L142.146707,246.811358 L142.146707,175.742321 Z" id="Fill-6" stroke="none" fill="#FFFFFF" fill-rule="evenodd"></path>
                        <polygon id="Fill-8" stroke="none" fill="#0078A9" fill-rule="evenodd" points="344.695997 186.398184 385.029438 186.398184 385.029438 197.211084 357.043405 197.211084 357.043405 206.637605 384.241943 206.637605 384.241943 216.166821 357.043405 216.166821 357.043405 226.085421 385.029438 226.085421 385.029438 236.633026 344.695997 236.633026"></polygon>
                        <path d="M462.944369,205.970945 C478.099369,206.749713 479.370489,214.319171 479.370489,222.393545 C479.370489,231.80295 471.628214,236.860666 463.55639,236.860666 L437.641811,236.860666 L437.641811,226.086276 L457.829931,226.086276 C461.253823,226.086276 466.355421,226.086276 466.355421,221.263903 C466.355421,218.974666 465.46093,217.511266 461.814485,217.126161 C460.192417,216.895097 454.200606,216.561339 453.288995,216.544224 C439.597709,216.184792 436.40493,209.372708 436.40493,201.080108 C436.40493,191.662145 443.025881,186.514571 451.106264,186.514571 L477.012284,186.514571 L477.012284,197.280403 L458.052484,197.280403 C453.742661,197.323192 449.086168,196.771208 449.086168,201.64065 C449.086168,204.725771 451.384456,205.346218 454.299043,205.628629 C455.313371,205.628629 462.041318,205.979503 462.944369,205.970945" id="Fill-10" stroke="none" fill="#0078A9" fill-rule="evenodd"></path>
                        <path d="M416.492433,205.970945 C431.655993,206.749713 432.927113,214.319171 432.927113,222.393545 C432.927113,231.80295 425.193398,236.860666 417.113014,236.860666 L391.206995,236.860666 L391.206995,226.086276 L411.395115,226.086276 C414.810447,226.086276 419.920605,226.086276 419.920605,221.263903 C419.920605,218.974666 419.017553,217.511266 415.371109,217.126161 C413.74904,216.895097 407.74867,216.561339 406.854179,216.544224 C393.145773,216.184792 389.978674,209.372708 389.978674,201.080108 C389.978674,191.662145 396.591064,186.514571 404.662888,186.514571 L430.568907,186.514571 L430.568907,197.280403 L411.617668,197.280403 C407.299285,197.323192 402.642792,196.771208 402.642792,201.64065 C402.642792,204.725771 404.949639,205.346218 407.864227,205.628629 C408.869995,205.628629 415.597942,205.979503 416.492433,205.970945" id="Fill-12" stroke="none" fill="#0078A9" fill-rule="evenodd"></path>
                        <path d="M266.070608,209.347034 L250.705895,209.347034 L250.705895,197.288961 L266.121967,197.288961 C271.287763,197.288961 272.918391,200.596587 272.918391,203.061261 C272.918391,206.428792 271.120848,209.347034 266.070608,209.347034 L266.070608,209.347034 Z M238.26005,231.918482 L220.537131,210.951639 L238.26005,191.328387 L238.26005,231.918482 Z M191.104504,226.086276 L162.660525,226.086276 L162.660525,216.167676 L189.867623,216.167676 L189.867623,206.638461 L162.660525,206.638461 L162.660525,197.211939 L192.662375,197.280403 L204.671674,210.951639 L191.104504,226.086276 Z M270.226357,186.506013 L226.931249,186.506013 L212.799136,202.094218 L199.12069,186.399039 L150.497151,186.399039 L150.497151,236.633882 L197.54142,236.633882 L212.354031,220.035845 L226.815692,236.749413 L250.487622,236.749413 L250.487622,219.693529 L267.080656,219.693529 C273.474774,219.693529 285.145964,219.475303 285.145964,201.867434 C285.145964,189.304445 276.286644,186.506013 270.226357,186.506013 L270.226357,186.506013 Z" id="Fill-14" stroke="none" fill="#0078A9" fill-rule="evenodd"></path>
                        <path d="M319.167462,208.670105 L303.802749,208.670105 L303.802749,197.288105 L319.21882,197.288105 C324.376057,197.288105 326.006685,200.595731 326.006685,203.060405 C326.006685,206.423657 324.217702,208.670105 319.167462,208.670105 M329.815764,213.869026 C336.552271,210.510052 338.341254,206.021436 338.341254,199.962447 C338.341254,189.205173 329.601771,186.513715 323.537203,186.513715 L291.4639,186.513715 L291.4639,236.748557 L303.802749,236.748557 L303.802749,219.025157 L319.954957,219.025157 C324.217702,219.025157 325.895408,223.286989 326.006685,227.548821 L326.331955,236.748557 L338.341254,236.748557 L337.891868,226.427736 C337.891868,218.349084 335.662059,214.536542 329.815764,213.869026" id="Fill-16" stroke="none" fill="#0078A9" fill-rule="evenodd"></path>
                        <mask id="mask-4" fill="white">
                            <use xlink:href="#path-3"></use>
                        </mask>
                        <g id="Clip-19" stroke="none" fill="none"></g>
                        <polygon id="Fill-18" stroke="none" fill="#0078A9" fill-rule="evenodd" mask="url(#mask-4)" points="296.406287 149.968509 308.745136 149.968509 308.745136 99.6737621 296.406287 99.6737621"></polygon>
                        <polygon id="Fill-20" stroke="none" fill="#0078A9" fill-rule="evenodd" mask="url(#mask-4)" points="195.419035 99.7328116 235.735358 99.7328116 235.735358 110.545712 207.757884 110.545712 207.757884 119.972233 234.947863 119.972233 234.947863 129.501448 207.757884 129.501448 207.757884 139.420048 235.735358 139.420048 235.735358 149.967654 195.419035 149.967654"></polygon>
                        <path d="M270.760056,121.887917 L255.395343,121.887917 L255.395343,110.505917 L270.819974,110.505917 C275.968651,110.505917 277.607839,113.813544 277.607839,116.278217 C277.607839,119.650028 275.810296,121.887917 270.760056,121.887917 M281.416918,127.086838 C288.153424,123.736423 289.942408,119.239249 289.942408,113.180259 C289.942408,102.414428 281.194365,99.7315279 275.138357,99.7315279 L243.056494,99.7315279 L243.056494,149.96637 L255.395343,149.96637 L255.395343,132.251528 L271.547551,132.251528 C275.810296,132.251528 277.496562,136.504802 277.607839,140.766633 L277.941668,149.96637 L289.942408,149.96637 L289.501582,139.645549 C289.501582,131.575454 287.254653,127.762912 281.416918,127.086838" id="Fill-21" stroke="none" fill="#0078A9" fill-rule="evenodd" mask="url(#mask-4)"></path>
                        <path d="M80.0467313,127.913531 L87.4038182,110.352731 L95.0690553,127.913531 L80.0467313,127.913531 Z M166.966497,99.7323837 L151.824337,133.429094 L136.737815,99.7323837 L117.397108,99.7323837 L117.397108,148.114442 L95.8608302,99.7323837 L79.5374275,99.7323837 L57.5517642,149.967226 L70.5668317,149.967226 L75.3816792,138.752105 L100.008019,138.752105 L104.891344,149.967226 L129.723117,149.967226 L129.723117,112.676199 L146.217714,149.967226 L157.435239,149.967226 L174.310744,113.296647 L174.310744,149.967226 L186.649593,149.967226 L186.649593,99.7323837 L166.966497,99.7323837 Z" id="Fill-22" stroke="none" fill="#0078A9" fill-rule="evenodd" mask="url(#mask-4)"></path>
                        <path d="M360.269139,127.938349 L367.617666,110.377549 L375.355661,127.938349 L360.269139,127.938349 Z M436.044138,99.7058542 L436.044138,134.489417 L415.239717,99.7058542 L397.007495,99.7058542 L397.007495,146.885528 L375.993361,99.7315279 L359.665678,99.7315279 L342.674617,138.644275 C342.674617,138.644275 335.493004,138.644275 334.765427,138.468838 C331.799481,137.856949 327.151549,135.760265 327.09163,126.902844 L327.09163,123.257181 C327.09163,111.481517 333.485748,110.621449 341.685968,110.621449 L349.299847,110.621449 L349.299847,99.7058542 L333.194717,99.7058542 C327.583815,99.7058542 315.381922,103.984802 314.971055,124.622165 C314.688584,138.528744 320.748871,149.992044 334.431598,149.992044 L350.699362,149.992044 L355.51421,138.776923 L380.13199,138.776923 L385.011035,149.992044 L409.354904,149.992044 L409.354904,113.205933 L431.55456,149.992044 L448.382987,149.992044 L448.382987,99.7058542 L436.044138,99.7058542 Z" id="Fill-23" stroke="none" fill="#0078A9" fill-rule="evenodd" mask="url(#mask-4)"></path>
                    </g>
                </g>
            </g>
        </g>
    </g>
</svg>