<?xml version="1.0" encoding="UTF-8"?>
<svg width="36px" height="49px" viewBox="0 0 36 49" version="1.1" xmlns="http://www.w3.org/2000/svg" xmlns:xlink="http://www.w3.org/1999/xlink">
    <!-- Generator: Sketch 42 (36781) - http://www.bohemiancoding.com/sketch -->
    <title>Page 1</title>
    <desc>Created with Sketch.</desc>
    <defs>
        <polygon id="path-1" points="8.88166373e-16 9.95200678 8.88166373e-16 0.176447458 19.9997778 0.176447458 19.9997778 9.95200678 0 9.95200678"></polygon>
        <polygon id="path-3" points="0 51.8237288 20 51.8237288 20 0.440677966 0 0.440677966"></polygon>
    </defs>
    <g id="On-Boarding" stroke="none" stroke-width="1" fill="none" fill-rule="evenodd">
        <g id="Welcome" transform="translate(-461.000000, -88.000000)">
            <g id="Page-1" transform="translate(477.000000, 114.000000) rotate(-330.000000) translate(-477.000000, -114.000000) translate(467.000000, 88.000000)">
                <g id="Group-3" transform="translate(0.000000, 0.264407)">
                    <mask id="mask-2" fill="white">
                        <use xlink:href="#path-1"></use>
                    </mask>
                    <g id="Clip-2"></g>
                    <path d="M14.9295556,0.176447458 L5.07044444,0.176447458 C2.28155556,0.176447458 -0.000222222222,2.43888814 -0.000222222222,5.20370169 L-0.000222222222,9.95200678 L19.9997778,9.95200678 L19.9997778,5.20370169 C19.9997778,2.43888814 17.718,0.176447458 14.9295556,0.176447458" id="Fill-1" fill="#221F20" mask="url(#mask-2)"></path>
                </g>
                <mask id="mask-4" fill="white">
                    <use xlink:href="#path-3"></use>
                </mask>
                <g id="Clip-5"></g>
                <polygon id="Fill-4" fill="#221F20" mask="url(#mask-4)" points="0 14.4577627 20 14.4577627 20 11.3730169 0 11.3730169"></polygon>
                <path d="M16.8566222,39.3496339 C15.2032889,41.6455661 13.3735111,44.0926508 11.9148444,45.9483458 L8.15306667,45.9483458 C6.67795556,44.073261 4.82106667,41.5931254 3.14373333,39.2667864 L3.14373333,15.9637356 L0.0326222222,15.9637356 L0.0326222222,40.2530237 L0.320622222,40.6544814 C8.33662222,51.8239051 9.16151111,51.8239051 10.0344,51.8239051 C10.9081778,51.8239051 11.7335111,51.8239051 19.6801778,40.7360068 L19.9677333,40.3349898 L19.9677333,15.9637356 L16.8566222,15.9637356 L16.8566222,39.3496339 Z" id="Fill-6" fill="#221F20" mask="url(#mask-4)"></path>
                <path d="M11.5554222,15.9820678 L8.44431111,15.9820678 L8.44431111,38.6033898 L8.44653333,38.6033898 C8.44653333,38.6064746 8.44564444,38.6091186 8.44564444,38.6122034 C8.44564444,39.4635932 9.14164444,40.1541356 10.0007556,40.1541356 C10.8594222,40.1541356 11.5554222,39.4635932 11.5554222,38.6122034 C11.5554222,38.6091186 11.5545333,38.6064746 11.5545333,38.6033898 L11.5554222,38.6033898 L11.5554222,15.9820678 Z" id="Fill-7" fill="#221F20" mask="url(#mask-4)"></path>
            </g>
        </g>
    </g>
</svg>