<?xml version="1.0" encoding="UTF-8"?>
<svg width="480px" height="300px" viewBox="0 0 480 300" version="1.1" xmlns="http://www.w3.org/2000/svg" xmlns:xlink="http://www.w3.org/1999/xlink">
    <!-- Generator: Sketch 42 (36781) - http://www.bohemiancoding.com/sketch -->
    <title>Group</title>
    <desc>Created with Sketch.</desc>
    <defs>
        <rect id="path-1" x="0" y="0" width="480" height="300" rx="30"></rect>
        <mask id="mask-2" maskContentUnits="userSpaceOnUse" maskUnits="objectBoundingBox" x="0" y="0" width="480" height="300" fill="white">
            <use xlink:href="#path-1"></use>
        </mask>
    </defs>
    <g id="Page-1" stroke="none" stroke-width="1" fill="none" fill-rule="evenodd">
        <g id="Group">
            <use id="Rectangle" stroke="#888888" mask="url(#mask-2)" stroke-width="2" fill="#F7E300" xlink:href="#path-1"></use>
            <g id="f21_logo_black" transform="translate(43.000000, 42.000000)" fill-rule="nonzero" fill="#000000">
                <g id="Layer_1">
                    <g id="Group">
                        <polygon id="Shape" points="0.19 0.384 20.14 0.384 20.14 6.72 6.90333333 6.72 6.90333333 21.056 18.43 21.056 18.43 27.392 6.90333333 27.392 6.90333333 47.552 0.19 47.552"></polygon>
                        <path d="M29.5133333,11.52 C29.5133333,3.84 35.2766667,0 40.7233333,0 C46.17,0 51.9333333,3.84 51.9333333,11.52 L51.9333333,36.48 C51.9333333,44.16 46.17,48 40.7233333,48 C35.2766667,48 29.5133333,44.16 29.5133333,36.48 L29.5133333,11.52 L29.5133333,11.52 Z M36.2266667,36.48 C36.2266667,39.744 38.3166667,41.28 40.7233333,41.28 C43.13,41.28 45.2833333,39.744 45.2833333,36.48 L45.2833333,11.52 C45.2833333,8.256 43.1933333,6.72 40.7233333,6.72 C38.3166667,6.72 36.2266667,8.256 36.2266667,11.52 L36.2266667,36.48 L36.2266667,36.48 Z" id="Shape"></path>
                        <path d="M62.7,0.384 L73.4666667,0.384 C81.3833333,0.384 85.2466667,5.12 85.2466667,14.272 C85.2466667,19.712 83.7266667,23.68 79.4833333,26.048 L86.7033333,47.616 L79.61,47.616 L73.4033333,27.456 L69.4133333,27.456 L69.4133333,47.616 L62.7,47.616 L62.7,0.384 Z M69.4133333,21.504 L73.2133333,21.504 C77.9,21.504 78.5966667,18.88 78.5966667,14.144 C78.5966667,9.344 77.8366667,6.784 72.8966667,6.784 L69.4133333,6.784 L69.4133333,21.504 Z" id="Shape"></path>
                        <polygon id="Shape" points="96.0766667 0.384 116.026667 0.384 116.026667 6.72 102.79 6.72 102.79 20.608 114.316667 20.608 114.316667 26.944 102.79 26.944 102.79 40.832 116.026667 40.832 116.026667 47.616 96.0766667 47.616"></polygon>
                        <polygon id="Shape" points="140.03 47.616 134.14 47.616 124.64 0.384 131.733333 0.384 137.053333 33.344 137.18 33.344 142.563333 0.384 149.656667 0.384"></polygon>
                        <polygon id="Shape" points="159.6 0.384 179.55 0.384 179.55 6.72 166.313333 6.72 166.313333 20.608 177.84 20.608 177.84 26.944 166.313333 26.944 166.313333 40.832 179.55 40.832 179.55 47.616 159.6 47.616"></polygon>
                        <path d="M189.873333,0.384 L200.64,0.384 C208.556667,0.384 212.42,5.12 212.42,14.272 C212.42,19.712 210.9,23.68 206.656667,26.048 L213.876667,47.616 L206.783333,47.616 L200.576667,27.456 L196.586667,27.456 L196.586667,47.616 L189.873333,47.616 L189.873333,0.384 L189.873333,0.384 Z M196.586667,21.504 L200.386667,21.504 C205.073333,21.504 205.77,18.88 205.77,14.144 C205.77,9.344 205.01,6.784 200.07,6.784 L196.586667,6.784 L196.586667,21.504 Z" id="Shape"></path>
                        <path d="M243.39,41.216 L255.486667,18.24 C256.69,15.936 256.69,14.592 256.69,12.032 C256.69,9.664 256.69,6.784 253.396667,6.784 C251.433333,6.784 250.103333,8 250.103333,10.176 L250.103333,14.016 L243.39,14.016 L243.39,10.304 C243.39,4.672 247.823333,0 253.46,0 C260.426667,0 263.34,5.568 263.34,11.84 C263.34,16.448 263.213333,17.6 261.123333,21.632 L251.306667,40.768 L263.403333,40.768 L263.403333,47.552 L243.453333,47.552 L243.453333,41.216 L243.39,41.216 Z" id="Shape"></path>
                        <polygon id="Shape" points="278.286667 7.552 271.573333 7.552 271.573333 0.384 278.286667 0.384 285 0.384 285 47.616 278.286667 47.616"></polygon>
                    </g>
                </g>
            </g>
            <text id="FOREVER-REWARD" font-family="Arial-BoldMT, Arial" font-size="18" font-weight="bold" fill="#000000">
                <tspan x="279.494629" y="137">FOREVER REWARD</tspan>
            </text>
            <text id="2121-2121-2121-2121" font-family="Arial-BoldMT, Arial" font-size="35" font-weight="bold" fill="#FFFFFF">
                <tspan x="41.5" y="204">2121  2121  2121  2121</tspan>
            </text>
            <text id="2121-2121-2121-2121" font-family="Arial-BoldMT, Arial" font-size="35" font-weight="bold" fill="#000000">
                <tspan x="40.5" y="203">2121  2121  2121  2121</tspan>
            </text>
            <text id="James-Smith" font-family="Arial-BoldMT, Arial" font-size="20" font-weight="bold" fill="#FFFFFF">
                <tspan x="41.5" y="264">James Smith</tspan>
            </text>
            <text id="James-Smith" font-family="Arial-BoldMT, Arial" font-size="20" font-weight="bold" fill="#000000">
                <tspan x="40.5" y="263">James Smith</tspan>
            </text>
        </g>
    </g>
</svg>