<?xml version="1.0" encoding="UTF-8"?>
<svg width="480px" height="300px" viewBox="0 0 480 300" version="1.1" xmlns="http://www.w3.org/2000/svg" xmlns:xlink="http://www.w3.org/1999/xlink">
    <!-- Generator: Sketch 42 (36781) - http://www.bohemiancoding.com/sketch -->
    <title>Group Copy 2</title>
    <desc>Created with Sketch.</desc>
    <defs>
        <rect id="path-1" x="0" y="0" width="480" height="300" rx="30"></rect>
        <mask id="mask-2" maskContentUnits="userSpaceOnUse" maskUnits="objectBoundingBox" x="0" y="0" width="480" height="300" fill="white">
            <use xlink:href="#path-1"></use>
        </mask>
        <mask id="mask-4" maskContentUnits="userSpaceOnUse" maskUnits="objectBoundingBox" x="0" y="0" width="480" height="300" fill="white">
            <use xlink:href="#path-1"></use>
        </mask>
        <polygon id="path-5" points="63.7674455 81.0455927 0.296978491 81.0455927 0.296978491 0.523275167 63.7674455 0.523275167 63.7674455 81.0455927"></polygon>
    </defs>
    <g id="Page-1" stroke="none" stroke-width="1" fill="none" fill-rule="evenodd">
        <g id="Group-Copy-2">
            <g id="Page-1">
                <mask id="mask-3" fill="white">
                    <use xlink:href="#path-1"></use>
                </mask>
                <g id="Mask" stroke="#888888" mask="url(#mask-2)" stroke-width="4" fill="#F5F5F5">
                    <use mask="url(#mask-4)" xlink:href="#path-1"></use>
                </g>
                <g mask="url(#mask-3)">
                    <g transform="translate(63.000000, 107.000000)">
                        <path d="M291.836234,59.8338146 C290.533697,60.6512918 289.155723,61.3534195 287.712371,61.9552432 C285.771138,62.7325988 283.935516,63.143845 282.240709,63.143845 C279.620547,63.143845 277.618965,62.7677052 276.261107,61.9853343 C274.90325,61.2380699 274.194147,59.9391337 274.219292,58.0835106 C274.219292,55.9420213 274.717173,54.2719605 275.733052,52.9680091 C276.774076,51.7142097 278.312981,50.7011398 280.21901,49.9488602 C282.114981,49.3018997 284.448484,48.7803191 287.134024,48.4041793 C289.537935,48.1032675 294.270319,47.5566109 294.873811,47.5515957 C295.482333,47.5515957 295.884661,47.2155775 295.613089,48.8204407 C295.49742,49.5175532 294.124475,55.1195289 293.495838,57.6572188 C293.31479,58.4245441 292.298911,59.5379179 291.836234,59.8338146 M310.418763,20.5046353 C306.425657,18.2879179 300.194601,17.1645137 291.655187,17.1645137 C287.435771,17.1645137 283.201267,17.5005319 278.941618,18.162538 C275.813517,18.6339666 275.496684,18.7142097 273.555451,19.1304711 C269.562344,20.0031155 268.943765,23.9901976 268.943765,23.9901976 L267.666373,29.2511398 C266.937154,32.6113222 268.85827,32.4708967 269.708188,32.2151216 C271.453287,31.6885258 272.398758,31.1619301 275.959361,30.3594985 C279.359034,29.5971884 282.944783,29.0154255 285.811371,29.0405015 C290.015699,29.0405015 293.209179,29.5018997 295.336489,30.3845745 C297.458769,31.312386 298.514881,32.8821429 298.514881,35.1339666 C298.524939,35.6705927 298.534997,36.1721125 298.343891,36.618465 C298.167873,37.0297112 297.830923,37.4309271 296.820074,37.5663374 C290.830414,37.9174012 286.525503,38.4640578 281.335471,39.2213526 C276.225904,39.9385258 271.750004,41.1672492 268.008352,42.8724164 C264.020275,44.6327508 261.032989,46.9949088 258.976086,49.9889818 C256.974504,52.9930851 255.968684,56.6341185 255.958625,60.9221125 C255.958625,64.9743921 257.417065,68.2844225 260.24342,70.8471884 C263.110008,73.3798632 266.826513,74.6336626 271.32253,74.6336626 C274.133798,74.6136018 276.336544,74.4079787 277.910653,74.0167933 C279.469674,73.6256079 281.174539,73.068921 282.969929,72.2915653 C284.312699,71.7298632 285.766109,70.9224164 287.294956,69.9043313 C288.828832,68.8862462 289.889972,68.1590426 291.252858,67.2663374 L291.303149,67.3515957 L290.915909,69.0417173 C290.91088,69.0567629 290.895792,69.0667933 290.895792,69.0768237 L290.90585,69.1119301 C290.46329,71.1430851 291.695419,72.8281915 293.70706,73.0388298 L293.737234,73.068921 L293.908224,73.068921 L293.923311,73.0789514 C295.261052,73.0789514 299.852622,73.0789514 302.000048,73.068921 L303.493691,73.068921 C303.594273,73.068921 303.60936,73.0388298 303.649593,73.0087386 C305.701466,72.7629939 307.677903,71.0879179 308.14561,69.0768237 L315.814989,36.0768237 C315.985979,35.2994681 316.126793,34.4067629 316.207259,33.368617 C316.302812,32.3254559 316.418481,31.4728723 316.388307,30.8459726 C316.403394,26.1818389 314.391754,22.7263678 310.418763,20.5046353" id="Fill-1" fill="#336699"></path>
                        <g id="Group-5" stroke-width="1" fill="none" transform="translate(128.886307, 17.369134)">
                            <mask id="mask-6" fill="white">
                                <use xlink:href="#path-5"></use>
                            </mask>
                            <g id="Clip-4"></g>
                            <path d="M49.5959954,0.523586626 C47.3580453,0.523586626 44.4009338,2.33908815 43.0028436,4.53072948 C43.0028436,4.53072948 27.9557725,30.2637082 26.4822458,32.8264742 C25.6775896,34.2156839 24.8628752,33.3380243 24.7170312,32.821459 C24.6164492,32.1945593 20.0701416,4.7012462 20.0701416,4.7012462 C19.5521442,2.49455927 17.2286994,0.593799392 14.3319371,0.603829787 L4.95769222,0.61887538 C2.68453843,0.61887538 1.27136097,2.41933131 1.7793002,4.60595745 C1.7793002,4.60595745 8.95079866,45.1488146 10.3488888,54.67769 C11.0479339,59.9486626 10.2784814,60.8915198 10.2784814,60.8915198 L0.97967309,77.0605167 C-0.383213363,79.2421277 0.36109363,81.0475988 2.61916012,81.0475988 L13.487048,81.0375684 C15.7400854,81.0375684 18.7173134,79.2521581 20.0701416,77.0555015 L61.8921481,6.49668693 C61.8921481,6.49668693 65.8953127,0.47343465 62.2039524,0.523586626 C59.6894017,0.563708207 49.5959954,0.523586626 49.5959954,0.523586626" id="Fill-3" fill="#003366" mask="url(#mask-6)"></path>
                        </g>
                        <g id="Group-8" stroke-width="1" fill="none" transform="translate(0.000000, 0.217158)">
                            <path d="M69.1119218,11.0805775 C67.8043554,8.54288754 65.8530641,6.48164134 63.3485717,4.92693009 C60.7636136,3.32708207 57.7461528,2.233769 54.2358401,1.56674772 C50.7003819,0.939848024 46.5765188,0.633920973 41.8391054,0.583768997 L19.9222819,0.603829787 C17.6390699,0.633920973 15.4162071,2.40930091 14.8831224,4.59091185 L0.102593667,68.6751064 C-0.405345565,70.8667477 1.012861,72.677234 3.28601479,72.677234 L13.7968365,72.677234 C16.054903,72.677234 18.3129695,70.9118845 18.8158796,68.6751064 L22.4368326,53.1229787 C22.9196263,50.946383 25.1676346,49.1459271 27.4407884,49.1459271 L30.4431618,49.1459271 C43.2874866,49.1308815 53.2501363,46.5129483 60.4065474,41.2720669 C67.5529004,36.0412158 71.1285914,29.1051976 71.1135041,20.5191793 C71.1285914,16.7477508 70.4748082,13.5982067 69.1119218,11.0805775 M46.435704,32.0190274 C43.2623411,34.3260182 38.8819938,35.4895441 33.184022,35.4895441 L30.6091222,35.4895441 C28.3409975,35.4895441 26.9026745,33.6890881 27.4106138,31.4874164 L30.5739185,17.9012462 C31.0516831,15.7146201 33.3097496,13.8991185 35.5829034,13.9191793 L39.0228087,13.8991185 C43.0360315,13.8991185 46.0836669,14.5811854 48.1506275,15.9453191 C50.1723263,17.2693313 51.2083211,19.3606687 51.1630592,22.1792097 C51.2234084,26.4220669 49.614096,29.7020061 46.435704,32.0190274" id="Fill-6" fill="#003366"></path>
                        </g>
                        <path d="M259.7561,11.5279331 C258.443504,8.99525836 256.472097,6.94404255 253.977662,5.35924012 C251.412821,3.76440729 248.370214,2.65604863 244.844814,2.01410334 C241.364676,1.40224924 237.210639,1.05118541 232.493342,1.04617021 L210.521198,1.05118541 C208.258102,1.09130699 206.045298,2.86668693 205.517242,5.04829787 L190.751801,69.1425228 C190.213687,71.3241337 191.677155,73.1446505 193.900018,73.1296049 L204.441015,73.1145593 C206.673936,73.1296049 208.952118,71.3241337 209.485203,69.1425228 L213.045807,53.5954103 C213.543688,51.4137994 215.821871,49.5832523 218.089996,49.6183587 L221.08734,49.6183587 C233.946752,49.6183587 243.91946,46.9853799 251.060784,41.7344681 C258.181991,36.4634954 261.757682,29.5575684 261.757682,20.9565046 C261.737566,17.2051368 261.09887,14.0405471 259.7561,11.5279331 M237.094969,32.4964742 C233.946752,34.7783891 229.531201,35.9268693 223.848317,35.9268693 L221.238213,35.9268693 C218.975117,35.9469301 217.521707,34.1264134 218.049763,31.9397872 L221.203009,18.3385714 C221.670716,16.1820365 223.963986,14.3514894 226.196907,14.3715502 L229.641841,14.3514894 C233.67518,14.3715502 236.692641,15.0486018 238.774689,16.3776292 C240.816504,17.7367477 241.807237,19.8331003 241.822325,22.6265653 C241.832383,26.8844681 240.253245,30.1593921 237.094969,32.4964742" id="Fill-9" fill="#336699"></path>
                        <path d="M101.1478,59.7871733 C99.8452628,60.6096657 98.467289,61.3067781 97.0189078,61.9035866 C95.0877329,62.6809422 93.2370236,63.0871733 91.5422165,63.0871733 C88.9421711,63.0871733 86.9255015,62.7210638 85.5676442,61.938693 C84.2148159,61.1914286 83.5006835,59.8924924 83.5207999,58.0318541 C83.5207999,55.8853495 84.02371,54.2253191 85.0546758,52.9163526 C86.0856416,51.657538 87.6144884,50.6494833 89.5205178,49.8972036 C91.4215181,49.2502432 93.7600502,48.7336778 96.4506194,48.3525228 C98.8444716,48.0465957 103.576856,47.5099696 104.185377,47.4999392 C104.788869,47.4999392 105.191197,47.163921 104.924655,48.7687842 C104.803957,49.4709119 103.44107,55.0728875 102.807403,57.6105775 C102.621327,58.3829179 101.605448,59.4862614 101.1478,59.7871733 M119.720271,20.4529787 C115.732194,18.2362614 109.501137,17.1128571 100.966752,17.1128571 C96.7473364,17.1128571 92.507804,17.4488754 88.2481551,18.1058663 C85.1200541,18.5873252 84.8082499,18.6675684 82.8619876,19.0838298 C78.8688812,19.9564742 78.2553309,23.9435562 78.2553309,23.9435562 L76.97291,29.1944681 C76.2386612,32.5646809 78.1748652,32.4242553 79.0298125,32.1584498 C80.7648524,31.6368693 81.7153526,31.1253191 85.2658981,30.3178723 C88.6605415,29.5405167 92.2513198,28.9687842 95.1229366,28.988845 C99.3222362,28.988845 102.515716,29.445228 104.643025,30.3279027 C106.770335,31.2607295 107.816388,32.8355015 107.816388,35.0873252 C107.831476,35.6189362 107.846563,36.1304863 107.650428,36.5617933 C107.474409,36.9830699 107.13746,37.3792705 106.131639,37.5096657 C100.136951,37.8707599 95.8420981,38.4174164 90.6420074,39.169696 C85.5274113,39.8868693 81.0565403,41.1155927 77.3148889,42.8207599 C73.3217825,44.5911246 70.3445545,46.9482675 68.2876521,49.9423404 C66.2760115,52.9464438 65.2752204,56.5874772 65.2752204,60.8704559 C65.2752204,64.9277508 66.7336598,68.2277508 69.5549856,70.7955319 C72.4165442,73.3282067 76.1380792,74.5820061 80.6290667,74.5820061 C83.4453634,74.5619453 85.6380516,74.3563222 87.2222185,73.9651368 C88.7812399,73.5739514 90.4810761,73.0172644 92.2764653,72.2399088 C93.6242644,71.6782067 95.0726456,70.8657447 96.6065215,69.8526748 C98.1353683,68.8345897 99.2065669,68.1124012 100.564424,67.219696 L100.609686,67.3049544 L100.222445,68.9850456 C100.222445,69.0051064 100.207358,69.0151368 100.207358,69.0351976 L100.217416,69.0652888 C99.7798844,71.0964438 101.001956,72.7815502 103.018626,72.9771429 L103.038742,73.0172644 L103.21979,73.0172644 L103.224819,73.0373252 C104.567589,73.0373252 109.159158,73.0272948 111.306585,73.0172644 L112.805257,73.0172644 C112.910868,73.0172644 112.920926,72.9821581 112.95613,72.9570821 C115.013032,72.701307 116.98444,71.0412766 117.452146,69.0351976 L125.121526,36.020152 C125.292515,35.2528267 125.438359,34.3551064 125.513796,33.3169605 C125.614378,32.2737994 125.730047,31.4162006 125.694843,30.8043465 C125.71496,26.1301824 123.69829,22.6747112 119.720271,20.4529787" id="Fill-11" fill="#003366"></path>
                        <path d="M346.620749,1.5712614 L337.221359,1.5712614 L337.211301,1.5712614 L337.201242,1.5712614 C335.094049,1.5712614 332.986856,3.16609422 332.328043,5.20727964 C332.287811,5.32764438 332.202316,5.43296353 332.167112,5.55834347 C332.167112,5.55834347 331.981035,6.42597264 331.649115,7.91047112 L318.684091,66.5531763 C318.367258,67.9373708 318.156036,68.8501368 318.095687,69.0758207 L318.120832,69.1159422 C317.688329,71.1370669 318.905372,72.7720213 320.891867,72.9826596 L320.952216,73.0679179 L330.698614,73.0679179 C332.820895,73.0679179 334.943176,71.4429939 335.586901,69.4068237 C335.622105,69.2914742 335.707599,69.1961854 335.732745,69.0758207 L349.814229,5.55332827 L349.794112,5.54329787 C350.266848,3.37673252 348.868758,1.5712614 346.620749,1.5712614" id="Fill-13" fill="#336699"></path>
                        <path d="M360.875737,14.5034498 C360.553874,14.5887082 360.206866,14.658921 359.829684,14.7090729 C359.442443,14.7692553 359.100464,14.7993465 358.808776,14.7993465 C357.757694,14.7993465 356.963096,14.5134802 356.424982,13.9618085 C355.886868,13.4001064 355.615297,12.502386 355.615297,11.2686474 L355.615297,5.84721884 L354.448545,5.84721884 L354.448545,4.40284195 L355.615297,4.40284195 L355.615297,1.47898176 L357.33022,1.47898176 L357.33022,4.40284195 L360.875737,4.40284195 L360.875737,5.84721884 L357.33022,5.84721884 L357.33022,10.4912918 C357.33022,11.0279179 357.350337,11.4441793 357.365424,11.740076 C357.395599,12.0510182 357.476064,12.3268541 357.621908,12.5926596 C357.752665,12.8333891 357.938742,13.008921 358.175109,13.1242705 C358.411477,13.2346049 358.773573,13.2947872 359.251337,13.2947872 C359.532967,13.2947872 359.829684,13.2496505 360.13143,13.1643921 C360.433176,13.0891641 360.659486,13.0189514 360.790242,12.958769 L360.875737,12.958769 L360.875737,14.5034498 Z" id="Fill-15" fill="#336699"></path>
                        <path d="M377.88114,14.5987386 L376.151129,14.5987386 L376.151129,8.79113982 C376.151129,8.35983283 376.136042,7.93354103 376.095809,7.52229483 C376.055576,7.11606383 375.970082,6.79509119 375.839325,6.5493465 C375.69851,6.28855623 375.502375,6.08794833 375.235833,5.95755319 C374.96929,5.82214286 374.597137,5.75193009 374.104285,5.75193009 C373.621491,5.75193009 373.143727,5.87229483 372.660933,6.12305471 C372.178139,6.3537538 371.700375,6.65968085 371.217581,7.03080547 C371.232668,7.171231 371.242726,7.33171733 371.252785,7.52229483 C371.267872,7.70284195 371.27793,7.88840426 371.27793,8.06895137 L371.27793,14.5987386 L369.563006,14.5987386 L369.563006,8.79113982 C369.563006,8.34478723 369.532832,7.91348024 369.497628,7.51226444 C369.457395,7.10603343 369.371901,6.78506079 369.246173,6.54433131 C369.100329,6.27852584 368.904194,6.08293313 368.637652,5.9475228 C368.376139,5.82214286 368.003985,5.75193009 367.506104,5.75193009 C367.033369,5.75193009 366.565662,5.86727964 366.087897,6.10800912 C365.620191,6.33369301 365.152485,6.62457447 364.67472,6.9806535 L364.67472,14.5987386 L362.954767,14.5987386 L362.954767,4.40284195 L364.67472,4.40284195 L364.67472,5.5312614 C365.212834,5.09493921 365.750948,4.74387538 366.289062,4.4981307 C366.817117,4.24737082 367.380377,4.12199088 367.993927,4.12199088 C368.682914,4.12199088 369.281377,4.26241641 369.759141,4.55831307 C370.241935,4.84919453 370.60403,5.25542553 370.850456,5.77700608 C371.534414,5.19022796 372.178139,4.76895137 372.746428,4.50816109 C373.324774,4.25238602 373.938325,4.12199088 374.58205,4.12199088 C375.708568,4.12199088 376.53837,4.46302432 377.076484,5.14007599 C377.604539,5.82214286 377.88114,6.7700152 377.88114,7.97867781 L377.88114,14.5987386 Z" id="Fill-17" fill="#336699"></path>
                    </g>
                </g>
            </g>
        </g>
    </g>
</svg>