<?xml version="1.0" encoding="UTF-8"?>
<svg width="45px" height="45px" viewBox="0 0 45 45" version="1.1" xmlns="http://www.w3.org/2000/svg" xmlns:xlink="http://www.w3.org/1999/xlink">
    <!-- Generator: Sketch 42 (36781) - http://www.bohemiancoding.com/sketch -->
    <title>pantone</title>
    <desc>Created with Sketch.</desc>
    <defs></defs>
    <g id="Symbols" stroke="none" stroke-width="1" fill="none" fill-rule="evenodd">
        <g id="pantone" transform="translate(-4.000000, -4.000000)">
            <text id="+" font-family="ArialMT, Arial" font-size="15" font-weight="normal" fill="#000000">
                <tspan x="22.1201172" y="32">+</tspan>
            </text>
            <path id="Fill-6" fill="#E36A57"></path>
            <path id="Fill-7" fill="#E36A57"></path>
            <path id="Fill-8" fill="#E36A57"></path>
            <path id="Fill-9" fill="#E36A57"></path>
            <path id="Fill-10" fill="#E36A57"></path>
            <path id="Fill-11" fill="#E36A57"></path>
            <path id="Fill-12" fill="#E36A57"></path>
            <path id="Fill-13" fill="#E36A57"></path>
            <path id="Fill-14" fill="#E36A57"></path>
            <path id="Fill-15" fill="#E36A57"></path>
            <path d="M48.5798828,26.5 C48.5798828,29.48125 47.9173828,32.3486328 46.9236328,34.8951172 L35.8785156,30.3714844 C36.4271484,29.1603516 36.6548828,27.825 36.6548828,26.5 L48.5798828,26.5" id="Fill-16" fill="#3D515D"></path>
            <path id="Fill-17" fill="#E36A57"></path>
            <path id="Fill-18" fill="#E36A57"></path>
            <path id="Fill-19" fill="#E36A57"></path>
            <path id="Fill-20" fill="#E36A57"></path>
            <path id="Fill-21" fill="#E36A57"></path>
            <path d="M22.6388672,35.8888672 L18.1152344,46.8201172 C15.3513672,45.7125 12.9291016,44.05625 10.9416016,42.06875 L19.3367188,33.6736328 C20.20625,34.6673828 21.3138672,35.44375 22.6388672,35.8888672" id="Fill-22" fill="#CAD3D7"></path>
            <path d="M28.6116455,38.5718506 L24.0880127,49.5031006 C21.3241455,48.3954834 18.9018799,46.7392334 16.9143799,44.7517334 L25.3094971,36.3566162 C26.1790283,37.3503662 27.2866455,38.1267334 28.6116455,38.5718506" id="Fill-22" fill="#A0B4BE" transform="translate(22.763013, 42.929858) rotate(-22.000000) translate(-22.763013, -42.929858) "></path>
            <path d="M19.3263672,33.6736328 L10.93125,42.06875 C8.94375,40.08125 7.17363281,37.6486328 6.07636719,34.8951172 L17.1214844,30.3714844 C17.5976563,31.6757812 18.3015625,32.6591797 19.3263672,33.6736328" id="Fill-23" fill="#A6ACAF"></path>
            <path d="M17.1111328,30.3611328 L6.07636719,34.8951172 C4.96875,32.3589844 4.42011719,29.48125 4.42011719,26.5 L16.3451172,26.5 C16.3451172,27.9388672 16.5625,29.15 17.1111328,30.3611328" id="Fill-24" fill="#8CD1E9"></path>
            <path d="M17.1111328,22.6388672 C16.5625,23.85 16.3347656,25.175 16.3347656,26.5 L4.42011719,26.5 C4.42011719,23.51875 4.96875,20.6513672 6.07636719,18.1048828 L17.1111328,22.6388672" id="Fill-25" fill="#5ABADC"></path>
            <path d="M46.9236328,34.8951172 C45.8160156,37.5451172 44.0769531,39.9777344 42.0894531,42.0791016 L33.6943359,33.6839844 C34.6880859,32.8041016 35.3298828,31.5929687 35.8785156,30.3714844 L46.9236328,34.8951172" id="Fill-26" fill="#30424F"></path>
            <path d="M42.0894531,42.0791016 C40.1019531,44.0666016 37.6486328,45.7125 34.8847656,46.8201172 L30.3611328,35.8888672 C31.5722656,35.3402344 32.7005859,34.5638672 33.6943359,33.6839844 L42.0894531,42.0791016" id="Fill-27" fill="#253844"></path>
            <path d="M48.5798828,26.5 L36.6548828,26.5 C36.6548828,25.0611328 36.3236328,23.85 35.8785156,22.6388672 L46.9236328,18.1152344 C48.03125,20.6513672 48.5798828,23.51875 48.5798828,26.5" id="Fill-28" fill="#D03A2F"></path>
            <path d="M42.06875,10.93125 L33.6736328,19.3263672 C32.79375,18.4464844 31.6861328,17.6701172 30.475,17.1214844 L34.9986328,6.07636719 C37.7625,7.07011719 40.08125,8.82988281 42.06875,10.93125" id="Fill-29" fill="#E36A57"></path>
            <path d="M46.9236328,18.1048828 L35.8785156,22.6285156 C35.3298828,21.4173828 34.6673828,20.3097656 33.6736328,19.3160156 L42.06875,10.9208984 C44.1701172,12.91875 45.8263672,15.3513672 46.9236328,18.1048828" id="Fill-30" fill="#DF5040"></path>
            <path id="Fill-31" fill="#E36A57"></path>
            <path d="M34.9986328,6.07636719 L30.475,17.1214844 C29.2638672,16.5728516 27.8767578,16.3451172 26.5517578,16.3451172 L26.5517578,4.42011719 C29.4294922,4.42011719 32.3486328,5.08261719 34.9986328,6.07636719" id="Fill-32" fill="#E59F40"></path>
            <path d="M22.6388672,17.1111328 C21.4277344,17.6597656 20.20625,18.4361328 19.3263672,19.3160156 L10.8277344,10.9208984 C12.8152344,8.93339844 15.3513672,7.27714844 18.1152344,6.16953125 L22.6388672,17.1111328" id="Fill-33" fill="#FACD5F"></path>
            <path d="M26.5517578,4.42011719 L26.5517578,16.3451172 C25.1128906,16.3451172 23.7361328,16.6763672 22.6285156,17.1214844 L18.1048828,6.17988281 C20.6513672,5.08261719 23.5705078,4.42011719 26.5517578,4.42011719" id="Fill-34" fill="#F0B050"></path>
            <path d="M34.9466427,47.8017118 C33.5077755,47.8017118 32.1310177,48.1329618 31.0234005,48.578079 L26.4997677,37.6364774 C29.0462521,36.5392118 31.9653927,35.8767118 34.9466427,35.8767118 L34.9466427,47.8017118 Z" id="Fill-34" fill="#0E1E28" transform="translate(30.723205, 42.227395) rotate(-180.000000) translate(-30.723205, -42.227395) "></path>
            <path d="M19.3263672,19.3263672 C18.3326172,20.3201172 17.6701172,21.4277344 17.1214844,22.6388672 L6.07636719,18.1048828 C7.18398438,15.4548828 8.84023438,13.0222656 10.8277344,10.93125 L19.3263672,19.3263672" id="Fill-35" fill="#30A4BD"></path>
        </g>
    </g>
</svg>