<?xml version="1.0" encoding="UTF-8"?>
<svg width="28px" height="28px" viewBox="0 0 28 28" version="1.1" xmlns="http://www.w3.org/2000/svg" xmlns:xlink="http://www.w3.org/1999/xlink">
    <!-- Generator: Sketch 49.2 (51160) - http://www.bohemiancoding.com/sketch -->
    <title>Artboard 2</title>
    <desc>Created with Sketch.</desc>
    <defs></defs>
    <g id="Artboard-2" stroke="none" stroke-width="1" fill="none" fill-rule="evenodd">
        <path d="M21.8072562,4.86440678 C20.9092971,4.30508475 19.9115646,4 18.814059,4 C16.8684807,4 15.1723356,4.96610169 14.0249433,6.49152542 C12.877551,4.96610169 11.1315193,4 9.23582766,4 C8.138322,4 7.14058957,4.30508475 6.24263039,4.86440678 C4.29705215,6.03389831 3,8.27118644 3,10.8644068 C3,11.6271186 3.09977324,12.3389831 3.29931973,13 C4.29705215,18.2881356 13.9750567,25 13.9750567,25 C13.9750567,25 23.6530612,18.3389831 24.7006803,13 C24.9002268,12.3389831 25,11.6271186 25,10.8644068 C25,8.27118644 23.7029478,6.03389831 21.8072562,4.86440678 Z" id="Wishlist" stroke="#FFFFFF" stroke-width="1.6"></path>
    </g>
</svg>