<?xml version="1.0" encoding="UTF-8"?>
<svg width="480px" height="300px" viewBox="0 0 480 300" version="1.1" xmlns="http://www.w3.org/2000/svg" xmlns:xlink="http://www.w3.org/1999/xlink">
    <!-- Generator: Sketch 48.2 (47327) - http://www.bohemiancoding.com/sketch -->
    <title>Rectangle 2 + iDeal_betalen Mask</title>
    <desc>Created with Sketch.</desc>
    <defs>
        <rect id="path-1" x="0" y="0" width="480" height="300"></rect>
        <rect id="path-3" x="0" y="0" width="480" height="300"></rect>
        <polygon id="path-5" points="0 0.0135711575 341.658565 0.0135711575 341.658565 297.966072 0 297.966072"></polygon>
    </defs>
    <g id="Page-1" stroke="none" stroke-width="1" fill="none" fill-rule="evenodd">
        <g id="Rectangle-2-+-iDeal_betalen-Mask">
            <mask id="mask-2" fill="white">
                <use xlink:href="#path-1"></use>
            </mask>
            <g id="Mask"></g>
            <g id="Rectangle-2" mask="url(#mask-2)">
                <mask id="mask-4" fill="white">
                    <use xlink:href="#path-3"></use>
                </mask>
                <use id="Mask" fill="#FFFFFF" xlink:href="#path-3"></use>
            </g>
            <g id="iDeal_betalen" mask="url(#mask-2)">
                <g transform="translate(1.000000, 1.000000)">
                    <polygon id="Fill-1" fill="#0A0B09" points="38 258 93 258 93 167 38 167"></polygon>
                    <g id="Group-5" stroke-width="1" fill="none">
                        <mask id="mask-6" fill="white">
                            <use xlink:href="#path-5"></use>
                        </mask>
                        <g id="Clip-3"></g>
                        <path d="M96.8594876,122.277825 C96.8594876,139.397841 82.9833322,153.284528 65.8686347,153.284528 C48.7545025,153.284528 34.8777818,139.397841 34.8777818,122.277825 C34.8777818,105.15781 48.7545025,91.2773435 65.8686347,91.2773435 C82.9833322,91.2773435 96.8594876,105.15781 96.8594876,122.277825" id="Fill-2" fill="#0A0B09" mask="url(#mask-6)"></path>
                        <path d="M192.712195,19.8048425 C230.781035,19.8048425 262.509025,30.122315 284.466555,49.6421632 C309.287841,71.7077343 321.873441,105.138584 321.873441,149.006786 C321.873441,235.945882 279.624288,278.208729 192.712195,278.208729 C185.957554,278.208729 37.1542017,278.208729 19.785124,278.208729 C19.785124,260.479142 19.785124,37.5338634 19.785124,19.8048425 C37.1542017,19.8048425 185.957554,19.8048425 192.712195,19.8048425 Z M196.428972,0.0135711575 L0,0.0135711575 L0,298 L196.428972,298 L196.428972,297.943454 C239.336122,297.358763 273.326965,286.696357 297.448423,266.167719 C326.784109,241.201313 341.658565,201.78219 341.658565,149.006786 C341.658565,123.779135 337.746198,101.150361 330.030565,81.7498254 C322.649018,63.1907021 311.740631,47.4108387 297.609531,34.8479051 C272.720975,12.7223947 237.784403,0.75885389 196.428972,0.0791650854 C196.428972,0.0785996205 196.428972,0.0135711575 196.428972,0.0135711575 Z" id="Fill-4" fill="#0A0B09" mask="url(#mask-6)"></path>
                    </g>
                    <path d="M187.36913,259 L118,259 L118,44 L187.36913,44 L184.569497,44 C242.421056,44 304,66.8759036 304,151.782604 C304,241.544203 242.421056,259 184.569497,259 L187.36913,259" id="Fill-6" fill="#B9215E"></path>
                    <path d="M116.346375,107.814812 L116.346375,142.185188 L124.097879,142.185188 C126.996907,142.185188 129.089527,142.020265 130.375739,141.689852 C132.059263,141.265035 133.456026,140.545064 134.567152,139.530507 C135.677155,138.515951 136.584013,136.846255 137.285481,134.521988 C137.986949,132.197721 138.337684,129.029507 138.337684,125.017914 C138.337684,121.006321 137.986949,117.926824 137.285481,115.778853 C136.584013,113.63202 135.601958,111.956637 134.339315,110.753273 C133.076672,109.54934 131.474519,108.735534 129.533977,108.310148 C128.083902,107.980303 125.243237,107.814812 121.011419,107.814812 L116.346375,107.814812 Z M106,99 L124.927856,99 C129.196711,99 132.450401,99.330982 134.690049,99.992946 C137.698506,100.891488 140.27598,102.487822 142.421912,104.781948 C144.567843,107.075506 146.2003,109.883734 147.320405,113.206065 C148.439948,116.528397 149,120.625294 149,125.496189 C149,129.776775 148.474741,133.465348 147.425344,136.563043 C146.142499,140.347157 144.311387,143.409025 141.932568,145.750353 C140.136248,147.52412 137.71029,148.907193 134.654695,149.900139 C132.36847,150.633759 129.313436,151 125.487909,151 L106,151 L106,99 Z" id="Fill-7" fill="#FFFFFE"></path>
                    <path d="M124.416956,100.851603 C128.550052,100.851603 131.715528,101.16699 133.82547,101.79035 C136.587443,102.613893 138.990432,104.099578 140.962867,106.205201 C142.966861,108.344474 144.517194,111.011863 145.571038,114.133227 C146.640098,117.301357 147.182236,121.293031 147.182236,125.997605 C147.182236,130.111897 146.675602,133.690088 145.676986,136.632942 C144.467602,140.195734 142.729605,143.10722 140.512025,145.286415 C138.872086,146.903844 136.599277,148.190487 133.755026,149.113836 C131.612398,149.799932 128.658254,150.148397 124.979381,150.148397 C124.979381,150.148397 109.244423,150.148397 106.817764,150.148397 C106.817764,147.526634 106.817764,103.473366 106.817764,100.851603 C109.233152,100.851603 124.416956,100.851603 124.416956,100.851603 Z M104,98 L104,153 L124.979381,153 C128.946793,153 132.187222,152.606479 134.609936,151.830843 C137.878542,150.770047 140.523859,149.256986 142.477133,147.330444 C145.013685,144.838143 146.987247,141.550245 148.342028,137.559713 C149.442083,134.31744 150,130.427284 150,125.997605 C150,120.978784 149.406579,116.676856 148.237207,113.211589 C147.052055,109.698985 145.292643,106.681989 143.007436,104.242728 C140.68898,101.768678 137.866708,100.022357 134.618389,99.0539523 C132.2154,98.3444736 128.879167,98 124.416956,98 L104,98 Z" id="Fill-8" fill="#FFFFFE"></path>
                    <path d="M121.117611,109.827147 C126.27512,109.827147 128.468589,110.076501 129.399837,110.285144 C131.10392,110.653804 132.508147,111.35211 133.585363,112.364794 C134.678985,113.392744 135.552526,114.876996 136.182221,116.776273 C136.837942,118.758103 137.171178,121.698901 137.171178,125.517811 C137.171178,129.347464 136.834548,132.387212 136.172038,134.553937 C135.544605,136.60475 134.758758,138.066384 133.837128,138.897566 C132.896827,139.744579 131.678736,140.358635 130.216801,140.722206 C129.034353,141.021884 127.021929,141.172853 124.229316,141.172853 C124.229316,141.172853 119.726396,141.172853 117.828822,141.172853 C117.828822,138.687226 117.828822,112.312774 117.828822,109.827147 C119.212116,109.827147 121.117611,109.827147 121.117611,109.827147 Z M115,107 L115,144 L124.229316,144 C127.298588,144 129.483004,143.824717 130.905902,143.463973 C132.817054,142.989012 134.44193,142.157831 135.731307,140.997005 C137.057459,139.801687 138.086585,137.964607 138.876958,135.38003 C139.632819,132.911931 140,129.685591 140,125.517811 C140,121.338723 139.629424,118.188716 138.86734,115.887984 C138.088848,113.537494 136.963542,111.659138 135.523672,110.3055 C134.066828,108.93603 132.211686,108.00081 130.009165,107.524153 C128.439735,107.171891 125.527745,107 121.117611,107 L115,107 Z" id="Fill-9" fill="#FFFFFE"></path>
                    <polyline id="Fill-10" fill="#FFFFFE" points="161 151 161 99 199.017109 99 199.017109 107.814812 171.355742 107.814812 171.355742 119.330938 197.086149 119.330938 197.086149 128.145751 171.355742 128.145751 171.355742 142.185188 200 142.185188 200 151 161 151"></polyline>
                    <path d="M198.191461,100.851603 C198.191461,102.471313 198.191461,105.219687 198.191461,106.839968 C195.649614,106.839968 170.403235,106.839968 170.403235,106.839968 L170.403235,121.240561 C170.403235,121.240561 193.730111,121.240561 196.251646,121.240561 C196.251646,122.860271 196.251646,125.608646 196.251646,127.228927 C193.730111,127.228927 170.403235,127.228927 170.403235,127.228927 L170.403235,144.160032 C170.403235,144.160032 196.627421,144.160032 199.17886,144.160032 C199.17886,145.780313 199.17886,148.528117 199.17886,150.148397 C196.655069,150.148397 165.344931,150.148397 162.82114,150.148397 C162.82114,147.526634 162.82114,103.473366 162.82114,100.851603 C165.337596,100.851603 195.675005,100.851603 198.191461,100.851603 Z M160,98 L160,153 L202,153 L202,141.308429 C202,141.308429 175.775249,141.308429 173.224375,141.308429 C173.224375,139.264971 173.224375,132.123988 173.224375,130.080529 C175.745345,130.080529 199.072785,130.080529 199.072785,130.080529 L199.072785,118.388959 C199.072785,118.388959 175.745345,118.388959 173.224375,118.388959 C173.224375,116.506331 173.224375,111.573628 173.224375,109.691571 C175.765657,109.691571 201.012601,109.691571 201.012601,109.691571 L201.012601,98 L160,98 Z" id="Fill-11" fill="#FFFFFE"></path>
                    <path d="M239.73648,130.384713 L232.593068,111.120083 L225.593046,130.384713 L239.73648,130.384713 Z M259,151 L247.616676,151 L243.094518,139.199525 L222.390866,139.199525 L218.101646,151 L207,151 L227.138594,99 L238.275946,99 L259,151 Z" id="Fill-12" fill="#FFFFFE"></path>
                    <path d="M237.29313,100.851603 C237.953177,102.516939 255.416727,146.590168 256.826673,150.148397 C254.3385,150.148397 249.829499,150.148397 248.532574,150.148397 C247.939776,148.591993 244.024138,138.314247 244.024138,138.314247 L221.422055,138.314247 C221.422055,138.314247 217.719464,148.558914 217.145314,150.148397 C215.841608,150.148397 211.561476,150.148397 209.129248,150.148397 C210.490595,146.61298 227.460241,102.540892 228.111246,100.851603 C229.570356,100.851603 235.847017,100.851603 237.29313,100.851603 Z M226.177444,98 L205,153 L219.122063,153 C219.122063,153 222.824655,142.755332 223.398805,141.165849 C225.102608,141.165849 240.409139,141.165849 242.083555,141.165849 C242.676354,142.722824 246.592557,153 246.592557,153 L261,153 L239.205457,98 L226.177444,98 Z" id="Fill-13" fill="#FFFFFE"></path>
                    <path d="M232.934724,115.293203 C234.469977,119.514906 237.065899,126.652357 237.96856,129.133553 C235.509354,129.133553 230.448062,129.133553 228.002864,129.133553 C228.883673,126.662677 231.428047,119.522932 232.934724,115.293203 Z M224,132 L242,132 L232.908389,107 L224,132 Z" id="Fill-14" fill="#FFFFFE"></path>
                    <polyline id="Fill-15" fill="#FFFFFE" points="267 151 267 100 277.597375 100 277.597375 142.283205 304 142.283205 304 151 267 151"></polyline>
                    <path d="M276.365146,100.8217 C276.365146,103.458296 276.365146,143.25273 276.365146,143.25273 C276.365146,143.25273 299.676324,143.25273 302.189189,143.25273 C302.189189,144.85602 302.189189,147.57501 302.189189,149.1783 C299.697686,149.1783 271.302876,149.1783 268.810811,149.1783 C268.810811,146.585722 268.810811,103.414278 268.810811,100.8217 C270.582184,100.8217 274.593773,100.8217 276.365146,100.8217 Z M266,98 L266,152 L305,152 L305,140.43103 C305,140.43103 281.688822,140.43103 279.175957,140.43103 C279.175957,137.79387 279.175957,98 279.175957,98 L266,98 Z" id="Fill-16" fill="#FFFFFE"></path>
                </g>
            </g>
        </g>
    </g>
</svg>