<?xml version="1.0" encoding="UTF-8"?>
<svg width="480px" height="300px" viewBox="0 0 480 300" version="1.1" xmlns="http://www.w3.org/2000/svg" xmlns:xlink="http://www.w3.org/1999/xlink">
    <!-- Generator: Sketch 48.2 (47327) - http://www.bohemiancoding.com/sketch -->
    <title>Group 9</title>
    <desc>Created with Sketch.</desc>
    <defs></defs>
    <g id="Page-1" stroke="none" stroke-width="1" fill="none" fill-rule="evenodd">
        <g id="Group-9">
            <g id="Group-12">
                <g id="Group-13">
                    <rect id="Rectangle-3" fill="#13457C" x="0" y="0" width="480" height="300" rx="30"></rect>
                    <g id="Group-10" transform="translate(97.000000, 64.000000)">
                        <polyline id="Fill-422" fill="#EC1C2E" points="200.047619 172.47619 204.504762 172.358095 208.847619 172.022857 213.152381 171.485714 217.380952 170.72381 221.533333 169.771429 225.609524 168.609524 229.609524 167.260952 233.533333 165.710476 237.342857 163.992381 241 162.099048 244.619048 160.041905 248.085714 157.790476 251.47619 155.394286 254.714286 152.860952 257.838095 150.15619 260.809524 147.306667 263.628571 144.31619 266.371429 141.188571 268.92381 137.950476 271.32381 134.594286 273.533333 131.100952 275.590476 127.493333 277.495238 123.798095 279.247619 119.99619 280.771429 116.07619 282.104762 112.106667 283.247619 108.019048 284.2 103.878095 285 99.6228571 285.533333 95.3371429 285.838095 90.967619 285.990476 86.5409524 285.838095 82.1485714 285.533333 77.8057143 285 73.5504762 284.2 69.3257143 283.247619 65.2114286 282.104762 61.1542857 280.771429 57.1771429 279.247619 53.287619 277.495238 49.5161905 275.590476 45.8171429 273.533333 42.2361905 271.32381 38.7428571 268.92381 35.3942857 266.371429 32.1485714 263.628571 29.047619 260.809524 26.0647619 257.838095 23.2419048 254.714286 20.5371429 251.47619 18 248.085714 15.6038095 244.619048 13.3828571 241 11.3257143 237.342857 9.40190476 233.533333 7.68761905 229.609524 6.16 225.609524 4.81142857 221.533333 3.65714286 217.380952 2.69714286 213.152381 1.9352381 208.847619 1.40190476 204.504762 1.06285714 200.047619 0.952380952 195.628571 1.06285714 191.285714 1.40190476 186.980952 1.9352381 182.752381 2.69714286 178.6 3.65714286 174.52381 4.81142857 170.52381 6.16 166.638095 7.68761905 162.828571 9.40190476 159.133333 11.3257143 155.552381 13.3828571 152.085714 15.6038095 148.733333 18 145.457143 20.5371429 142.371429 23.2419048 139.4 26.0647619 136.580952 29.047619 133.87619 32.1485714 131.32381 35.3942857 128.92381 38.7428571 126.714286 42.2361905 124.657143 45.8171429 122.752381 49.5161905 121.07619 53.287619 119.514286 57.1771429 118.180952 61.1542857 117.038095 65.2114286 116.085714 69.3257143 115.32381 73.5504762 114.790476 77.8057143 114.447619 82.1485714 114.333333 86.5409524 114.447619 90.967619 114.790476 95.3371429 115.32381 99.6228571 116.085714 103.878095 117.038095 108.019048 118.180952 112.106667 119.514286 116.07619 121.07619 119.99619 122.752381 123.798095 124.657143 127.493333 126.714286 131.100952 128.92381 134.594286 131.32381 137.950476 133.87619 141.188571 136.580952 144.31619 139.4 147.306667 142.371429 150.15619 145.457143 152.860952 148.733333 155.394286 152.085714 157.790476 155.552381 160.041905 159.133333 162.099048 162.828571 163.992381 166.638095 165.710476 170.52381 167.260952 174.52381 168.609524 178.6 169.771429 182.752381 170.72381 186.980952 171.485714 191.285714 172.022857 195.628571 172.358095 200.047619 172.47619"></polyline>
                        <polyline id="Fill-423" fill="#0084C4" points="85.952381 172.47619 90.3714286 172.358095 94.7142857 172.022857 99.0190476 171.485714 103.247619 170.72381 107.4 169.771429 111.47619 168.609524 115.47619 167.260952 119.361905 165.710476 123.171429 163.992381 126.866667 162.099048 130.447619 160.041905 133.952381 157.790476 137.304762 155.394286 140.542857 152.860952 143.628571 150.15619 146.6 147.306667 149.419048 144.31619 152.12381 141.188571 154.67619 137.950476 157.07619 134.594286 159.32381 131.100952 161.342857 127.493333 163.247619 123.798095 164.961905 119.99619 166.485714 116.07619 167.819048 112.106667 168.961905 108.019048 169.914286 103.878095 170.67619 99.6228571 171.209524 95.3371429 171.552381 90.967619 171.666667 86.5409524 171.552381 82.1485714 171.209524 77.8057143 170.67619 73.5504762 169.914286 69.3257143 168.961905 65.2114286 167.819048 61.1542857 166.485714 57.1771429 164.961905 53.287619 163.247619 49.5161905 161.342857 45.8171429 159.32381 42.2361905 157.07619 38.7428571 154.67619 35.3942857 152.12381 32.1485714 149.419048 29.047619 146.6 26.0647619 143.628571 23.2419048 140.542857 20.5371429 137.304762 18 133.952381 15.6038095 130.447619 13.3828571 126.866667 11.3257143 123.171429 9.40190476 119.361905 7.68761905 115.47619 6.16 111.47619 4.81142857 107.4 3.65714286 103.247619 2.69714286 99.0190476 1.9352381 94.7142857 1.40190476 90.3714286 1.06285714 85.952381 0.952380952 81.5333333 1.06285714 77.152381 1.40190476 72.847619 1.9352381 68.6190476 2.69714286 64.4666667 3.65714286 60.3904762 4.81142857 56.3904762 6.16 52.4666667 7.68761905 48.6952381 9.40190476 45 11.3257143 41.3809524 13.3828571 37.9142857 15.6038095 34.5238095 18 31.2857143 20.5371429 28.1619048 23.2419048 25.1904762 26.0647619 22.3714286 29.047619 19.6666667 32.1485714 17.0761905 35.3942857 14.6761905 38.7428571 12.4666667 42.2361905 10.4095238 45.8171429 8.5047619 49.5161905 6.75238095 53.287619 5.26666667 57.1771429 3.8952381 61.1542857 2.75238095 65.2114286 1.8 69.3257143 1.03809524 73.5504762 0.504761905 77.8057143 0.161904762 82.1485714 0.0476190476 86.5409524 0.161904762 90.967619 0.504761905 95.3371429 1.03809524 99.6228571 1.8 103.878095 2.75238095 108.019048 3.8952381 112.106667 5.26666667 116.07619 6.75238095 119.99619 8.5047619 123.798095 10.4095238 127.493333 12.4666667 131.100952 14.6761905 134.594286 17.0761905 137.950476 19.6666667 141.188571 22.3714286 144.31619 25.1904762 147.306667 28.1619048 150.15619 31.2857143 152.860952 34.5238095 155.394286 37.9142857 157.790476 41.3809524 160.041905 45 162.099048 48.6952381 163.992381 52.4666667 165.710476 56.3904762 167.260952 60.3904762 168.609524 64.4666667 169.771429 68.6190476 170.72381 72.847619 171.485714 77.152381 172.022857 81.5333333 172.358095 85.952381 172.47619"></polyline>
                        <polyline id="Fill-424" fill="#EC1C2E" points="129.571429 36.2171429 173.07619 36.2171429 173.07619 31.4285714 133.761905 31.4285714 129.571429 36.2171429"></polyline>
                        <polyline id="Fill-425" fill="#EC1C2E" points="125.761905 43.8095238 176.085714 43.8095238 176.085714 39.047619 128.809524 39.047619 125.761905 43.8095238"></polyline>
                        <polyline id="Fill-426" fill="#EC1C2E" points="118.142857 55.2685714 173.571429 55.2685714 173.571429 50.4761905 120.504762 50.4761905 118.142857 55.2685714"></polyline>
                        <polyline id="Fill-427" fill="#EC1C2E" points="114.333333 66.6704762 173.07619 66.6704762 173.07619 61.9047619 115.780952 61.9047619 114.333333 66.6704762"></polyline>
                        <polyline id="Fill-428" fill="#EC1C2E" points="114.333333 74.3161905 175.247619 74.3161905 175.247619 69.5238095 115.209524 69.5238095 114.333333 74.3161905"></polyline>
                        <polyline id="Fill-429" fill="#EC1C2E" points="114.752381 93.3638095 176.12381 93.3638095 176.12381 88.5714286 114.333333 88.5714286 114.752381 93.3638095"></polyline>
                        <polyline id="Fill-430" fill="#EC1C2E" points="115.209524 104.792381 175.095238 104.792381 175.095238 100 114.333333 100 115.209524 104.792381"></polyline>
                        <polyline id="Fill-431" fill="#EC1C2E" points="115.819048 116.220952 172.809524 116.220952 172.809524 111.428571 114.333333 111.428571 115.819048 116.220952"></polyline>
                        <polyline id="Fill-432" fill="#EC1C2E" points="120.466667 123.84 173.114286 123.84 173.114286 119.047619 118.142857 119.047619 120.466667 123.84"></polyline>
                        <polyline id="Fill-433" fill="#EC1C2E" points="128.961905 135.264762 175.514286 135.264762 175.514286 130.47619 125.761905 130.47619 128.961905 135.264762"></polyline>
                        <polyline id="Fill-434" fill="#EC1C2E" points="133.761905 146.693333 172.238095 146.693333 172.238095 141.904762 129.571429 141.904762 133.761905 146.693333"></polyline>
                        <polyline id="Fill-435" fill="#EC1C2E" points="270.52381 141.420952 270.752381 140.659048 271.209524 139.954286 271.742857 139.333333 272.352381 138.822857 273.038095 138.430476 273.8 138.179048 274.638095 138.095238 275.47619 138.179048 276.27619 138.430476 276.961905 138.822857 277.571429 139.333333 278.104762 139.954286 278.485714 140.659048 278.752381 141.420952 277.87619 141.420952 277.685714 140.88381 277.380952 140.289524 277 139.782857 276.504762 139.386667 275.933333 139.081905 275.285714 138.88381 274.638095 138.822857 273.952381 138.88381 273.304762 139.081905 272.733333 139.386667 272.238095 139.782857 271.857143 140.289524 271.514286 140.88381 271.361905 141.420952 270.52381 141.420952"></polyline>
                        <polyline id="Fill-436" fill="#EC1C2E" points="274.333333 139.112381 274.333333 138.095238 275.933333 138.095238 276.314286 138.121905 276.619048 138.152381 276.92381 138.24 277.114286 138.350476 277.304762 138.491429 277.457143 138.659048 277.533333 138.857143 277.571429 139.112381 276.809524 139.112381 276.809524 138.971429 276.733333 138.857143 276.657143 138.742857 276.542857 138.659048 276.390476 138.601905 276.27619 138.575238 276.12381 138.548571 275.095238 138.548571 275.095238 139.112381 274.333333 139.112381"></polyline>
                        <polyline id="Fill-437" fill="#EC1C2E" points="270.52381 142.63619 270.6 141.931429 270.6 141.904762 271.438095 141.904762 271.4 142.045714 271.361905 142.63619 270.52381 142.63619"></polyline>
                        <polyline id="Fill-438" fill="#EC1C2E" points="274.333333 142.63619 274.333333 141.904762 275.095238 141.904762 275.095238 142.495238 276.27619 142.495238 276.466667 142.468571 276.580952 142.407619 276.695238 142.354286 276.771429 142.24381 276.809524 142.102857 276.809524 141.904762 277.571429 141.904762 277.533333 142.15619 277.495238 142.384762 277.380952 142.552381 277.304762 142.63619 274.333333 142.63619"></polyline>
                        <polyline id="Fill-439" fill="#EC1C2E" points="278.219048 142.63619 278.180952 142.045714 278.142857 141.904762 279.019048 141.904762 279.019048 141.931429 279.095238 142.63619 278.219048 142.63619"></polyline>
                        <polyline id="Fill-440" fill="#EC1C2E" points="270.52381 141.904762 270.52381 142.041905 270.6 142.887619 270.828571 143.68 271.285714 144.358095 271.819048 144.975238 272.428571 145.455238 273.114286 145.824762 273.87619 146.045714 274.714286 146.133333 275.552381 146.045714 276.352381 145.824762 277.038095 145.455238 277.647619 144.975238 278.180952 144.358095 278.561905 143.68 278.828571 142.887619 278.904762 142.041905 278.904762 141.904762 278.028571 141.904762 278.028571 142.041905 277.990476 142.777143 277.761905 143.455238 277.457143 144.045714 277.07619 144.55619 276.580952 144.975238 276.009524 145.287619 275.361905 145.481905 274.714286 145.539048 274.028571 145.481905 273.380952 145.287619 272.809524 144.975238 272.314286 144.55619 271.933333 144.045714 271.590476 143.455238 271.4 142.777143 271.361905 142.041905 271.361905 141.904762 270.52381 141.904762"></polyline>
                        <polyline id="Fill-441" fill="#EC1C2E" points="274.333333 141.904762 274.333333 143.649524 275.095238 143.649524 275.095238 142.217143 275.819048 142.217143 276.695238 143.649524 277.419048 143.649524 276.390476 142.217143 276.619048 142.186667 276.885714 142.15619 277.07619 142.072381 277.266667 141.961905 277.304762 141.904762 274.333333 141.904762"></polyline>
                        <polyline id="Fill-442" fill="#FFFFFF" points="178.790476 79.527619 178.219048 79.5009524 177.647619 79.4438095 177.152381 79.3561905 176.657143 79.3066667 176.12381 79.2152381 175.628571 79.1314286 175.095238 79.047619 174.52381 78.9638095 173.952381 78.9028571 173.304762 78.8495238 172.619048 78.792381 171.857143 78.7619048 171.019048 78.7619048 170.066667 78.792381 169.038095 78.8495238 167.895238 78.9333333 167.095238 79.047619 166.333333 79.2152381 165.609524 79.4438095 165 79.6990476 164.428571 80.0038095 163.933333 80.3466667 163.514286 80.7390476 163.171429 81.1314286 162.904762 81.5847619 162.752381 82.0609524 162.67619 82.5409524 162.67619 83.047619 162.790476 83.5847619 162.980952 84.1180952 163.285714 84.6552381 163.666667 85.192381 164.504762 85.927619 165.457143 86.5180952 166.6 87.0247619 167.819048 87.4438095 169.07619 87.8666667 170.371429 88.2933333 171.742857 88.7695238 173.038095 89.3371429 174.257143 90.0114286 175.4 90.8304762 176.428571 91.8742857 177.266667 93.112381 177.914286 94.632381 178.333333 96.4380952 178.485714 98.5790476 178.333333 101.11619 178.028571 103.001905 177.533333 104.693333 176.885714 106.217143 176.047619 107.565714 175.095238 108.750476 174.066667 109.767619 172.885714 110.64 171.666667 111.401905 170.371429 112.022857 169 112.525714 167.628571 112.952381 166.257143 113.260952 164.885714 113.485714 163.514286 113.626667 162.219048 113.714286 160.961905 113.744762 159.209524 113.744762 157.609524 113.714286 156.2 113.68381 154.866667 113.657143 153.647619 113.60381 152.580952 113.542857 151.552381 113.462857 150.67619 113.344762 149.8 113.234286 149.038095 113.089524 148.27619 112.952381 147.552381 112.754286 146.904762 112.55619 146.219048 112.361905 145.533333 112.106667 144.809524 111.851429 146.561905 103.001905 146.980952 103.089524 147.438095 103.226667 148.047619 103.367619 148.695238 103.535238 149.457143 103.68 150.295238 103.878095 151.209524 104.041905 152.161905 104.213333 153.190476 104.354286 154.257143 104.499048 155.32381 104.609524 156.504762 104.72 157.647619 104.777143 158.828571 104.80381 160.009524 104.80381 161.228571 104.746667 162.371429 104.552381 163.285714 104.24381 164.009524 103.794286 164.542857 103.287619 164.961905 102.689524 165.304762 102.07619 165.533333 101.455238 165.72381 100.834286 165.8 100.186667 165.761905 99.6190476 165.609524 99.0857143 165.419048 98.6361905 165.07619 98.1828571 164.695238 97.7904762 164.238095 97.4209524 163.666667 97.0819048 163.095238 96.7771429 162.447619 96.4647619 161.72381 96.1561905 160.27619 95.592381 159.47619 95.28 158.714286 94.9714286 157.87619 94.632381 157.07619 94.2933333 156.314286 93.927619 155.514286 93.5047619 154.752381 93.0552381 154.028571 92.5752381 153.342857 92.0380952 152.695238 91.4171429 152.085714 90.7733333 151.552381 90.0380952 151.095238 89.2495238 150.67619 88.3733333 150.333333 87.4438095 150.104762 86.4038095 149.990476 85.2761905 149.952381 84.0342857 150.028571 82.7085714 150.104762 81.8933333 150.257143 81.1009524 150.333333 80.3466667 150.52381 79.6114286 150.67619 78.9028571 150.904762 78.2019048 151.133333 77.5542857 151.4 76.9066667 151.704762 76.312381 152.009524 75.7219048 152.390476 75.1847619 152.771429 74.6514286 153.190476 74.1447619 153.647619 73.6609524 154.142857 73.2114286 154.67619 72.7885714 155.209524 72.3961905 155.819048 72.0304762 156.466667 71.6914286 157.152381 71.352381 157.838095 71.0704762 158.6 70.7885714 159.4 70.5638095 160.238095 70.3352381 161.152381 70.1409524 162.066667 69.9733333 163.057143 69.832381 164.047619 69.7180952 165.114286 69.6342857 166.257143 69.5809524 167.4 69.5238095 170.104762 69.5238095 171.47619 69.5466667 172.657143 69.5809524 173.8 69.6342857 174.790476 69.6914286 175.704762 69.7485714 176.504762 69.832381 177.228571 69.8895238 177.87619 69.9733333 178.409524 70.0571429 178.942857 70.1104762 179.4 70.1980952 179.819048 70.2552381 180.161905 70.3085714 180.504762 70.3657143 180.809524 70.3961905 178.790476 79.527619"></polyline>
                        <polyline id="Stroke-443" stroke="#FFFFFF" stroke-width="0.215" points="178.790476 79.527619 178.790476 79.527619 178.219048 79.5009524 177.647619 79.4438095 177.152381 79.3561905 176.657143 79.3066667 176.12381 79.2152381 175.628571 79.1314286 175.095238 79.047619 174.52381 78.9638095 173.952381 78.9028571 173.304762 78.8495238 172.619048 78.792381 171.857143 78.7619048 171.019048 78.7619048 170.066667 78.792381 169.038095 78.8495238 167.895238 78.9333333 167.095238 79.047619 166.333333 79.2152381 165.609524 79.4438095 165 79.6990476 164.428571 80.0038095 163.933333 80.3466667 163.514286 80.7390476 163.171429 81.1314286 162.904762 81.5847619 162.752381 82.0609524 162.67619 82.5409524 162.67619 83.047619 162.790476 83.5847619 162.980952 84.1180952 163.285714 84.6552381 163.666667 85.192381 164.504762 85.927619 165.457143 86.5180952 166.6 87.0247619 167.819048 87.4438095 169.07619 87.8666667 170.371429 88.2933333 171.742857 88.7695238 173.038095 89.3371429 174.257143 90.0114286 175.4 90.8304762 176.428571 91.8742857 177.266667 93.112381 177.914286 94.632381 178.333333 96.4380952 178.485714 98.5790476 178.333333 101.11619 178.028571 103.001905 177.533333 104.693333 176.885714 106.217143 176.047619 107.565714 175.095238 108.750476 174.066667 109.767619 172.885714 110.64 171.666667 111.401905 170.371429 112.022857 169 112.525714 167.628571 112.952381 166.257143 113.260952 164.885714 113.485714 163.514286 113.626667 162.219048 113.714286 160.961905 113.744762 159.209524 113.744762 157.609524 113.714286 156.2 113.68381 154.866667 113.657143 153.647619 113.60381 152.580952 113.542857 151.552381 113.462857 150.67619 113.344762 149.8 113.234286 149.038095 113.089524 148.27619 112.952381 147.552381 112.754286 146.904762 112.55619 146.219048 112.361905 145.533333 112.106667 144.809524 111.851429 146.561905 103.001905 146.980952 103.089524 147.438095 103.226667 148.047619 103.367619 148.695238 103.535238 149.457143 103.68 150.295238 103.878095 151.209524 104.041905 152.161905 104.213333 153.190476 104.354286 154.257143 104.499048 155.32381 104.609524 156.504762 104.72 157.647619 104.777143 158.828571 104.80381 160.009524 104.80381 161.228571 104.746667 162.371429 104.552381 163.285714 104.24381 164.009524 103.794286 164.542857 103.287619 164.961905 102.689524 165.304762 102.07619 165.533333 101.455238 165.72381 100.834286 165.8 100.186667 165.761905 99.6190476 165.609524 99.0857143 165.419048 98.6361905 165.07619 98.1828571 164.695238 97.7904762 164.238095 97.4209524 163.666667 97.0819048 163.095238 96.7771429 162.447619 96.4647619 161.72381 96.1561905 160.27619 95.592381 159.47619 95.28 158.714286 94.9714286 157.87619 94.632381 157.07619 94.2933333 156.314286 93.927619 155.514286 93.5047619 154.752381 93.0552381 154.028571 92.5752381 153.342857 92.0380952 152.695238 91.4171429 152.085714 90.7733333 151.552381 90.0380952 151.095238 89.2495238 150.67619 88.3733333 150.333333 87.4438095 150.104762 86.4038095 149.990476 85.2761905 149.952381 84.0342857 150.028571 82.7085714 150.104762 81.8933333 150.257143 81.1009524 150.333333 80.3466667 150.52381 79.6114286 150.67619 78.9028571 150.904762 78.2019048 151.133333 77.5542857 151.4 76.9066667 151.704762 76.312381 152.009524 75.7219048 152.390476 75.1847619 152.771429 74.6514286 153.190476 74.1447619 153.647619 73.6609524 154.142857 73.2114286 154.67619 72.7885714 155.209524 72.3961905 155.819048 72.0304762 156.466667 71.6914286 157.152381 71.352381 157.838095 71.0704762 158.6 70.7885714 159.4 70.5638095 160.238095 70.3352381 161.152381 70.1409524 162.066667 69.9733333 163.057143 69.832381 164.047619 69.7180952 165.114286 69.6342857 166.257143 69.5809524 167.4 69.5238095 170.104762 69.5238095 171.47619 69.5466667 172.657143 69.5809524 173.8 69.6342857 174.790476 69.6914286 175.704762 69.7485714 176.504762 69.832381 177.228571 69.8895238 177.87619 69.9733333 178.409524 70.0571429 178.942857 70.1104762 179.4 70.1980952 179.819048 70.2552381 180.161905 70.3085714 180.504762 70.3657143 180.809524 70.3961905 178.790476 79.527619"></polyline>
                        <polyline id="Fill-444" fill="#FFFFFF" points="190.67619 61.9047619 202.028571 61.9047619 200.27619 71.7752381 207.247619 71.7752381 205.647619 80.7619048 198.52381 80.6171429 194.790476 103.081905 194.714286 103.558095 194.714286 103.980952 194.790476 104.350476 194.904762 104.689524 195.057143 104.971429 195.247619 105.253333 195.514286 105.478095 195.780952 105.641905 196.12381 105.817143 196.466667 105.954286 196.847619 106.068571 197.266667 106.129524 197.72381 106.213333 198.142857 106.23619 198.638095 106.266667 200.009524 106.266667 200.809524 106.213333 201.533333 106.099048 202.180952 105.954286 202.638095 105.817143 203.019048 105.672381 203.247619 105.558095 203.32381 105.535238 202.180952 113.226667 201.87619 113.398095 201.571429 113.539048 201.266667 113.68 200.961905 113.820952 200.657143 113.931429 200.27619 114.045714 199.971429 114.15619 199.552381 114.270476 199.171429 114.380952 198.752381 114.468571 198.257143 114.552381 197.761905 114.632381 197.228571 114.72 196.657143 114.80381 196.009524 114.891429 195.32381 114.979048 192.314286 114.979048 190.67619 114.860952 189.266667 114.697143 187.971429 114.468571 186.904762 114.15619 185.952381 113.820952 185.152381 113.398095 184.504762 112.921905 183.971429 112.380952 183.552381 111.786667 183.247619 111.139048 183.057143 110.434286 182.942857 109.649524 182.904762 108.834286 182.942857 107.931429 183.019048 106.998095 183.171429 105.980952 190.67619 61.9047619"></polyline>
                        <polyline id="Stroke-445" stroke="#FFFFFF" stroke-width="0.215" points="190.67619 61.9047619 202.028571 61.9047619 200.27619 71.7752381 207.247619 71.7752381 205.647619 80.7619048 198.52381 80.6171429 194.790476 103.081905 194.714286 103.558095 194.714286 103.980952 194.790476 104.350476 194.904762 104.689524 195.057143 104.971429 195.247619 105.253333 195.514286 105.478095 195.780952 105.641905 196.12381 105.817143 196.466667 105.954286 196.847619 106.068571 197.266667 106.129524 197.72381 106.213333 198.142857 106.23619 198.638095 106.266667 200.009524 106.266667 200.809524 106.213333 201.533333 106.099048 202.180952 105.954286 202.638095 105.817143 203.019048 105.672381 203.247619 105.558095 203.32381 105.535238 202.180952 113.226667 201.87619 113.398095 201.571429 113.539048 201.266667 113.68 200.961905 113.820952 200.657143 113.931429 200.27619 114.045714 199.971429 114.15619 199.552381 114.270476 199.171429 114.380952 198.752381 114.468571 198.257143 114.552381 197.761905 114.632381 197.228571 114.72 196.657143 114.80381 196.009524 114.891429 195.32381 114.979048 192.314286 114.979048 190.67619 114.860952 189.266667 114.697143 187.971429 114.468571 186.904762 114.15619 185.952381 113.820952 185.152381 113.398095 184.504762 112.921905 183.971429 112.380952 183.552381 111.786667 183.247619 111.139048 183.057143 110.434286 182.942857 109.649524 182.904762 108.834286 182.942857 107.931429 183.019048 106.998095 183.171429 105.980952 190.67619 61.9047619"></polyline>
                        <polyline id="Fill-446" fill="#FFFFFF" points="118.638095 94.7466667 118.52381 95.4552381 118.485714 96.16 118.52381 96.9180952 118.714286 97.6533333 118.942857 98.4152381 119.285714 99.1733333 119.666667 99.9047619 120.161905 100.609524 120.657143 101.287619 121.304762 101.939048 121.952381 102.502857 122.638095 103.03619 123.4 103.485714 124.2 103.855238 125.038095 104.133333 125.87619 104.331429 126.904762 104.472381 127.933333 104.609524 128.961905 104.727619 129.990476 104.780952 131.095238 104.807619 132.12381 104.807619 133.228571 104.758095 134.295238 104.666667 135.4 104.502857 136.504762 104.300952 137.647619 104.019048 138.752381 103.657143 139.895238 103.230476 141.07619 102.727619 142.219048 102.106667 143.438095 101.428571 141.685714 111.43619 141.038095 111.771429 140.390476 112.08 139.780952 112.339048 139.171429 112.56 138.52381 112.784762 137.914286 112.952381 137.266667 113.097143 136.580952 113.238095 135.857143 113.325714 135.057143 113.405714 134.180952 113.489524 133.266667 113.52 132.238095 113.577143 131.095238 113.577143 129.87619 113.607619 127.514286 113.607619 126.52381 113.546667 125.533333 113.489524 124.504762 113.379048 123.47619 113.238095 122.447619 113.066667 121.457143 112.845714 120.428571 112.617143 119.438095 112.308571 118.447619 111.99619 117.495238 111.630476 116.542857 111.211429 115.590476 110.727619 114.714286 110.220952 113.838095 109.657143 113 109.04 112.238095 108.361905 111.47619 107.630476 110.714286 106.838095 110.066667 105.992381 109.457143 105.062857 108.885714 104.106667 108.390476 103.066667 107.933333 101.961905 107.552381 100.784762 107.247619 99.5390476 106.980952 98.2438095 106.828571 96.8342857 106.714286 95.367619 106.714286 93.847619 106.752381 92.2171429 106.904762 90.5180952 106.980952 89.9314286 107.057143 89.2533333 107.171429 88.5752381 107.32381 87.847619 107.47619 87.0819048 107.666667 86.2933333 107.895238 85.4780952 108.12381 84.632381 108.390476 83.7561905 108.695238 82.9104762 109.457143 81.1657143 109.914286 80.2895238 110.409524 79.4171429 110.942857 78.5485714 111.47619 77.6990476 112.12381 76.8838095 112.809524 76.0647619 113.533333 75.272381 115.209524 73.8095238 116.161905 73.1352381 117.114286 72.5104762 118.180952 71.92 119.32381 71.4133333 120.542857 70.9333333 121.8 70.5104762 123.171429 70.1714286 124.580952 69.8933333 126.104762 69.6952381 127.704762 69.5809524 129.380952 69.5238095 130.180952 69.5238095 130.980952 69.5809524 131.780952 69.6380952 132.619048 69.7219048 133.419048 69.8361905 134.257143 70.0038095 135.095238 70.1980952 135.895238 70.4266667 136.733333 70.6780952 137.533333 70.9904762 138.333333 71.3257143 139.095238 71.7257143 139.819048 72.1752381 140.542857 72.6514286 141.228571 73.2190476 141.914286 73.8095238 142.52381 74.4571429 143.095238 75.1657143 143.628571 75.9504762 144.12381 76.7695238 144.580952 77.6685714 144.961905 78.6247619 145.304762 79.672381 145.571429 80.7733333 145.8 81.9580952 145.914286 83.1885714 145.990476 84.5180952 145.990476 85.927619 145.914286 87.4209524 145.761905 88.9980952 145.495238 90.6628571 145.152381 92.4114286 144.733333 94.8914286 115.438095 94.8914286 117.190476 87.0552381 134.752381 87.0552381 134.828571 85.9847619 134.828571 84.9980952 134.752381 84.0685714 134.6 83.2190476 134.371429 82.4647619 134.104762 81.7561905 133.72381 81.1352381 133.304762 80.5714286 132.809524 80.0647619 132.27619 79.6457143 131.704762 79.3066667 131.133333 79.0209524 130.485714 78.7961905 129.8 78.6247619 129.114286 78.5485714 128.390476 78.5142857 127.590476 78.5142857 126.866667 78.6247619 126.104762 78.7657143 125.419048 78.9942857 124.771429 79.3066667 124.161905 79.672381 123.590476 80.0914286 123.057143 80.5714286 122.52381 81.1352381 121.647619 82.3771429 121.266667 83.0819048 120.92381 83.8133333 120.657143 84.6019048 120.428571 85.4514286 120.238095 86.3238095 118.638095 94.7466667"></polyline>
                        <polyline id="Stroke-447" stroke="#FFFFFF" stroke-width="0.215" points="118.638095 94.7466667 118.638095 94.7466667 118.52381 95.4552381 118.485714 96.16 118.52381 96.9180952 118.714286 97.6533333 118.942857 98.4152381 119.285714 99.1733333 119.666667 99.9047619 120.161905 100.609524 120.657143 101.287619 121.304762 101.939048 121.952381 102.502857 122.638095 103.03619 123.4 103.485714 124.2 103.855238 125.038095 104.133333 125.87619 104.331429 126.904762 104.472381 127.933333 104.609524 128.961905 104.727619 129.990476 104.780952 131.095238 104.807619 132.12381 104.807619 133.228571 104.758095 134.295238 104.666667 135.4 104.502857 136.504762 104.300952 137.647619 104.019048 138.752381 103.657143 139.895238 103.230476 141.07619 102.727619 142.219048 102.106667 143.438095 101.428571 141.685714 111.43619 141.038095 111.771429 140.390476 112.08 139.780952 112.339048 139.171429 112.56 138.52381 112.784762 137.914286 112.952381 137.266667 113.097143 136.580952 113.238095 135.857143 113.325714 135.057143 113.405714 134.180952 113.489524 133.266667 113.52 132.238095 113.577143 131.095238 113.577143 129.87619 113.607619 127.514286 113.607619 126.52381 113.546667 125.533333 113.489524 124.504762 113.379048 123.47619 113.238095 122.447619 113.066667 121.457143 112.845714 120.428571 112.617143 119.438095 112.308571 118.447619 111.99619 117.495238 111.630476 116.542857 111.211429 115.590476 110.727619 114.714286 110.220952 113.838095 109.657143 113 109.04 112.238095 108.361905 111.47619 107.630476 110.714286 106.838095 110.066667 105.992381 109.457143 105.062857 108.885714 104.106667 108.390476 103.066667 107.933333 101.961905 107.552381 100.784762 107.247619 99.5390476 106.980952 98.2438095 106.828571 96.8342857 106.714286 95.367619 106.714286 93.847619 106.752381 92.2171429 106.904762 90.5180952 106.980952 89.9314286 107.057143 89.2533333 107.171429 88.5752381 107.32381 87.847619 107.47619 87.0819048 107.666667 86.2933333 107.895238 85.4780952 108.12381 84.632381 108.390476 83.7561905 108.695238 82.9104762 109.457143 81.1657143 109.914286 80.2895238 110.409524 79.4171429 110.942857 78.5485714 111.47619 77.6990476 112.12381 76.8838095 112.809524 76.0647619 113.533333 75.272381 115.209524 73.8095238 116.161905 73.1352381 117.114286 72.5104762 118.180952 71.92 119.32381 71.4133333 120.542857 70.9333333 121.8 70.5104762 123.171429 70.1714286 124.580952 69.8933333 126.104762 69.6952381 127.704762 69.5809524 129.380952 69.5238095 130.180952 69.5238095 130.980952 69.5809524 131.780952 69.6380952 132.619048 69.7219048 133.419048 69.8361905 134.257143 70.0038095 135.095238 70.1980952 135.895238 70.4266667 136.733333 70.6780952 137.533333 70.9904762 138.333333 71.3257143 139.095238 71.7257143 139.819048 72.1752381 140.542857 72.6514286 141.228571 73.2190476 141.914286 73.8095238 142.52381 74.4571429 143.095238 75.1657143 143.628571 75.9504762 144.12381 76.7695238 144.580952 77.6685714 144.961905 78.6247619 145.304762 79.672381 145.571429 80.7733333 145.8 81.9580952 145.914286 83.1885714 145.990476 84.5180952 145.990476 85.927619 145.914286 87.4209524 145.761905 88.9980952 145.495238 90.6628571 145.152381 92.4114286 144.733333 94.8914286 115.438095 94.8914286 117.190476 87.0552381 134.752381 87.0552381 134.828571 85.9847619 134.828571 84.9980952 134.752381 84.0685714 134.6 83.2190476 134.371429 82.4647619 134.104762 81.7561905 133.72381 81.1352381 133.304762 80.5714286 132.809524 80.0647619 132.27619 79.6457143 131.704762 79.3066667 131.133333 79.0209524 130.485714 78.7961905 129.8 78.6247619 129.114286 78.5485714 128.390476 78.5142857 127.590476 78.5142857 126.866667 78.6247619 126.104762 78.7657143 125.419048 78.9942857 124.771429 79.3066667 124.161905 79.672381 123.590476 80.0914286 123.057143 80.5714286 122.52381 81.1352381 121.647619 82.3771429 121.266667 83.0819048 120.92381 83.8133333 120.657143 84.6019048 120.428571 85.4514286 120.238095 86.3238095 118.638095 94.7466667"></polyline>
                        <polyline id="Fill-448" fill="#FFFFFF" points="105.342857 104.380952 103.742857 113.379048 93.5714286 113.379048 93.6857143 112.529524 93.7619048 111.68381 93.9142857 110.925714 94.0285714 110.217143 94.1047619 109.622857 94.2190476 109.12 94.3333333 108.780952 94.447619 108.586667 93.9142857 109.20381 93.2285714 109.820952 92.4666667 110.419048 91.5904762 110.982857 90.6761905 111.51619 89.647619 112.022857 88.5809524 112.47619 87.4761905 112.895238 86.3333333 113.260952 85.152381 113.577143 83.9333333 113.794286 82.752381 113.965714 81.5714286 114.053333 80.4285714 114.08 79.2857143 114 78.1809524 113.824762 76.7714286 113.489524 75.5142857 113.032381 74.3333333 112.499048 73.3428571 111.908571 72.4285714 111.260952 71.6666667 110.529524 70.9809524 109.767619 70.4095238 108.925714 69.952381 108.08 69.5333333 107.2 69.2285714 106.297143 69 105.371429 68.8095238 104.468571 68.6952381 103.539048 68.6571429 102.63619 68.6190476 101.76381 68.7333333 100.186667 69 98.6933333 69.3428571 97.2495238 69.8761905 95.9009524 70.5238095 94.6361905 71.247619 93.4514286 72.1619048 92.3504762 73.0761905 91.3066667 74.1047619 90.3771429 75.2095238 89.5619048 76.3904762 88.8038095 77.647619 88.1485714 78.9428571 87.5885714 80.2761905 87.1352381 81.6095238 86.8 82.9809524 86.5447619 83.0571429 86.5447619 83.247619 86.5180952 83.552381 86.4838095 83.9714286 86.4304762 84.4666667 86.3733333 85 86.32 85.647619 86.232381 86.3333333 86.1828571 86.9809524 86.1219048 87.6666667 86.0380952 88.352381 85.9771429 89.0380952 85.9238095 89.647619 85.8666667 90.2571429 85.84 90.7904762 85.8133333 92.6952381 85.8133333 93.1904762 85.84 93.6857143 85.84 94.1047619 85.8666667 95.0190476 85.8666667 95.4 85.8971429 95.7809524 85.8971429 96.0857143 85.9238095 96.3904762 85.9238095 96.6190476 85.9542857 96.9238095 85.9542857 97 85.672381 97.1904762 84.9980952 97.3428571 84.2019048 97.3428571 83.5047619 97.2666667 82.9904762 97.1904762 82.5142857 97.0380952 82.0609524 96.847619 81.6419048 96.6190476 81.2457143 96.352381 80.8838095 96.047619 80.5447619 95.7428571 80.2019048 95.3619048 79.9238095 94.9809524 79.6952381 94.5619048 79.4704762 94.1428571 79.272381 93.7238095 79.1352381 93.2285714 79.0171429 92.7333333 78.9409524 92.2761905 78.88 91.0952381 78.8495238 89.9142857 78.88 88.6190476 78.9066667 87.3238095 78.9904762 86.0285714 79.0780952 84.7333333 79.1885714 83.4380952 79.3333333 82.1809524 79.4704762 80.9619048 79.6647619 79.8190476 79.8361905 78.752381 80.0342857 77.7619048 80.2590476 76.9238095 80.4838095 76.1619048 80.7085714 75.5904762 80.9371429 75.1714286 81.1885714 78.0666667 71.607619 78.9047619 71.2152381 79.8190476 70.8495238 80.6952381 70.5371429 81.6857143 70.2819048 82.6380952 70.0838095 83.6666667 69.9161905 84.7333333 69.7752381 85.8380952 69.6647619 86.9809524 69.607619 88.1238095 69.5504762 89.3047619 69.5238095 93.152381 69.5238095 94.4857143 69.5504762 95.8952381 69.5809524 97.0380952 69.6914286 98.2571429 69.8590476 99.5142857 70.1752381 100.809524 70.5371429 102.066667 71.0133333 103.32381 71.607619 104.542857 72.2819048 105.647619 73.0742857 106.714286 73.9733333 107.628571 74.96 108.428571 76.0609524 109.038095 77.2685714 109.495238 78.5980952 109.72381 80.0342857 109.761905 81.5542857 109.533333 83.2190476 105.342857 104.380952"></polyline>
                        <polyline id="Stroke-449" stroke="#FFFFFF" stroke-width="0.215" points="105.342857 104.380952 103.742857 113.379048 93.5714286 113.379048 93.6857143 112.529524 93.7619048 111.68381 93.9142857 110.925714 94.0285714 110.217143 94.1047619 109.622857 94.2190476 109.12 94.3333333 108.780952 94.447619 108.586667 93.9142857 109.20381 93.2285714 109.820952 92.4666667 110.419048 91.5904762 110.982857 90.6761905 111.51619 89.647619 112.022857 88.5809524 112.47619 87.4761905 112.895238 86.3333333 113.260952 85.152381 113.577143 83.9333333 113.794286 82.752381 113.965714 81.5714286 114.053333 80.4285714 114.08 79.2857143 114 78.1809524 113.824762 76.7714286 113.489524 75.5142857 113.032381 74.3333333 112.499048 73.3428571 111.908571 72.4285714 111.260952 71.6666667 110.529524 70.9809524 109.767619 70.4095238 108.925714 69.952381 108.08 69.5333333 107.2 69.2285714 106.297143 69 105.371429 68.8095238 104.468571 68.6952381 103.539048 68.6571429 102.63619 68.6190476 101.76381 68.7333333 100.186667 69 98.6933333 69.3428571 97.2495238 69.8761905 95.9009524 70.5238095 94.6361905 71.247619 93.4514286 72.1619048 92.3504762 73.0761905 91.3066667 74.1047619 90.3771429 75.2095238 89.5619048 76.3904762 88.8038095 77.647619 88.1485714 78.9428571 87.5885714 80.2761905 87.1352381 81.6095238 86.8 82.9809524 86.5447619 83.0571429 86.5447619 83.247619 86.5180952 83.552381 86.4838095 83.9714286 86.4304762 84.4666667 86.3733333 85 86.32 85.647619 86.232381 86.3333333 86.1828571 86.9809524 86.1219048 87.6666667 86.0380952 88.352381 85.9771429 89.0380952 85.9238095 89.647619 85.8666667 90.2571429 85.84 90.7904762 85.8133333 92.6952381 85.8133333 93.1904762 85.84 93.6857143 85.84 94.1047619 85.8666667 95.0190476 85.8666667 95.4 85.8971429 95.7809524 85.8971429 96.0857143 85.9238095 96.3904762 85.9238095 96.6190476 85.9542857 96.9238095 85.9542857 97 85.672381 97.1904762 84.9980952 97.3428571 84.2019048 97.3428571 83.5047619 97.2666667 82.9904762 97.1904762 82.5142857 97.0380952 82.0609524 96.847619 81.6419048 96.6190476 81.2457143 96.352381 80.8838095 96.047619 80.5447619 95.7428571 80.2019048 95.3619048 79.9238095 94.9809524 79.6952381 94.5619048 79.4704762 94.1428571 79.272381 93.7238095 79.1352381 93.2285714 79.0171429 92.7333333 78.9409524 92.2761905 78.88 91.0952381 78.8495238 89.9142857 78.88 88.6190476 78.9066667 87.3238095 78.9904762 86.0285714 79.0780952 84.7333333 79.1885714 83.4380952 79.3333333 82.1809524 79.4704762 80.9619048 79.6647619 79.8190476 79.8361905 78.752381 80.0342857 77.7619048 80.2590476 76.9238095 80.4838095 76.1619048 80.7085714 75.5904762 80.9371429 75.1714286 81.1885714 78.0666667 71.607619 78.9047619 71.2152381 79.8190476 70.8495238 80.6952381 70.5371429 81.6857143 70.2819048 82.6380952 70.0838095 83.6666667 69.9161905 84.7333333 69.7752381 85.8380952 69.6647619 86.9809524 69.607619 88.1238095 69.5504762 89.3047619 69.5238095 93.152381 69.5238095 94.4857143 69.5504762 95.8952381 69.5809524 97.0380952 69.6914286 98.2571429 69.8590476 99.5142857 70.1752381 100.809524 70.5371429 102.066667 71.0133333 103.32381 71.607619 104.542857 72.2819048 105.647619 73.0742857 106.714286 73.9733333 107.628571 74.96 108.428571 76.0609524 109.038095 77.2685714 109.495238 78.5980952 109.72381 80.0342857 109.761905 81.5542857 109.533333 83.2190476 105.342857 104.380952"></polyline>
                        <polyline id="Fill-450" fill="#0084C4" points="94.4857143 93.0857143 94.447619 92.8609524 94.2571429 92.6895238 93.9904762 92.552381 93.647619 92.4685714 93.152381 92.4114286 92.6190476 92.3809524 91.4380952 92.3809524 90.7904762 92.4380952 90.1047619 92.5219048 89.4571429 92.6057143 88.8095238 92.7238095 88.2 92.8304762 87.5904762 92.9447619 87.0952381 93.0857143 86.6380952 93.2266667 86.3714286 93.2838095 86.0285714 93.3942857 85.647619 93.5390476 85.1904762 93.7333333 84.6952381 93.9352381 84.1619048 94.1866667 83.6285714 94.4952381 83.0952381 94.807619 82.5619048 95.2 82.0285714 95.6266667 81.5714286 96.072381 81.152381 96.5866667 80.7333333 97.1161905 80.4666667 97.7142857 80.2380952 98.3580952 80.0857143 99.032381 80.047619 100.415238 80.2380952 101.485714 80.5809524 102.331429 81.0761905 102.952381 81.7238095 103.371429 82.3714286 103.653333 83.0571429 103.798095 83.7428571 103.828571 85 103.798095 86.0666667 103.68 87.1333333 103.485714 88.047619 103.234286 88.8857143 102.952381 89.647619 102.613333 90.3333333 102.220952 90.9047619 101.798095 91.4380952 101.375238 91.9333333 100.895238 92.3142857 100.441905 92.6190476 99.9657143 92.9238095 99.4857143 93.152381 99.032381 93.3047619 98.5866667 93.4571429 98.16 93.6095238 97.5390476 93.7238095 96.887619 93.8761905 96.2133333 94.0285714 95.5085714 94.1428571 94.8342857 94.2571429 94.2133333 94.3714286 93.6228571 94.4857143 93.0857143"></polyline>
                        <polyline id="Fill-451" fill="#FFFFFF" points="18.6761905 114.979048 7.66666667 114.979048 16.9238095 61.9047619 36.0857143 61.9047619 37.9904762 93.5009524 51.0190476 61.9047619 70.9428571 61.9047619 61.647619 114.979048 50.6 114.979048 57.5714286 75.2342857 57.152381 75.2342857 40.7333333 114.979048 28.3904762 114.979048 28.3142857 113.310476 28.047619 108.887619 27.6666667 102.628571 27.247619 95.447619 26.8285714 88.1980952 26.447619 81.8019048 26.2190476 77.1809524 26.1047619 75.2342857 25.5333333 75.2342857 25.647619 75.2342857 18.6761905 114.979048"></polyline>
                        <polyline id="Stroke-452" stroke="#FFFFFF" stroke-width="0.215" points="18.6761905 114.979048 7.66666667 114.979048 16.9238095 61.9047619 36.0857143 61.9047619 37.9904762 93.5009524 51.0190476 61.9047619 70.9428571 61.9047619 61.647619 114.979048 50.6 114.979048 57.5714286 75.2342857 57.152381 75.2342857 40.7333333 114.979048 28.3904762 114.979048 28.3142857 113.310476 28.047619 108.887619 27.6666667 102.628571 27.247619 95.447619 26.8285714 88.1980952 26.447619 81.8019048 26.2190476 77.1809524 26.1047619 75.2342857 25.5333333 75.2342857 25.647619 75.2342857 18.6761905 114.979048"></polyline>
                        <polyline id="Fill-453" fill="#FFFFFF" points="201.952381 113.321905 213.419048 113.321905 217.342857 90.407619 217.533333 89.5047619 217.72381 88.6285714 217.952381 87.7561905 218.219048 86.9409524 218.52381 86.1257143 218.942857 85.36 219.4 84.6285714 219.933333 83.927619 220.580952 83.2990476 221.342857 82.7352381 222.180952 82.232381 223.171429 81.7790476 224.314286 81.4133333 225.571429 81.1314286 226.980952 80.9638095 228.542857 80.8495238 228.695238 80.8495238 228.847619 80.88 229.07619 80.9066667 229.304762 80.9066667 229.495238 80.9333333 229.685714 80.9638095 229.761905 80.9904762 229.838095 80.9904762 229.87619 80.8266667 229.990476 80.3428571 230.104762 79.607619 230.333333 78.6819048 230.638095 77.6419048 230.942857 76.5104762 231.32381 75.3828571 231.742857 74.3161905 232.047619 73.5238095 232.390476 72.7619048 232.771429 72.0038095 233.152381 71.2990476 233.495238 70.7047619 233.8 70.2247619 233.990476 69.912381 234.028571 69.8019048 233.990476 69.8019048 233.838095 69.7447619 233.647619 69.7180952 233.342857 69.6609524 233.07619 69.607619 232.733333 69.5771429 232.428571 69.5238095 232.161905 69.5238095 230.904762 69.607619 229.761905 69.7447619 228.733333 69.9733333 227.780952 70.2247619 226.866667 70.56 226.066667 70.9295238 225.266667 71.3790476 224.580952 71.8628571 223.857143 72.4 223.209524 72.9866667 222.638095 73.607619 221.990476 74.2819048 221.419048 74.9866667 220.847619 75.752381 220.238095 76.5409524 219.666667 77.3561905 221 70.1180952 209.533333 69.9733333 201.952381 113.321905"></polyline>
                        <polyline id="Stroke-454" stroke="#FFFFFF" stroke-width="0.215" points="201.952381 113.321905 213.419048 113.321905 217.342857 90.407619 217.533333 89.5047619 217.72381 88.6285714 217.952381 87.7561905 218.219048 86.9409524 218.52381 86.1257143 218.942857 85.36 219.4 84.6285714 219.933333 83.927619 220.580952 83.2990476 221.342857 82.7352381 222.180952 82.232381 223.171429 81.7790476 224.314286 81.4133333 225.571429 81.1314286 226.980952 80.9638095 228.542857 80.8495238 228.695238 80.8495238 228.847619 80.88 229.07619 80.9066667 229.304762 80.9066667 229.495238 80.9333333 229.685714 80.9638095 229.761905 80.9904762 229.838095 80.9904762 229.87619 80.8266667 229.990476 80.3428571 230.104762 79.607619 230.333333 78.6819048 230.638095 77.6419048 230.942857 76.5104762 231.32381 75.3828571 231.742857 74.3161905 232.047619 73.5238095 232.390476 72.7619048 232.771429 72.0038095 233.152381 71.2990476 233.495238 70.7047619 233.8 70.2247619 233.990476 69.912381 234.028571 69.8019048 233.990476 69.8019048 233.838095 69.7447619 233.647619 69.7180952 233.342857 69.6609524 233.07619 69.607619 232.733333 69.5771429 232.428571 69.5238095 232.161905 69.5238095 230.904762 69.607619 229.761905 69.7447619 228.733333 69.9733333 227.780952 70.2247619 226.866667 70.56 226.066667 70.9295238 225.266667 71.3790476 224.580952 71.8628571 223.857143 72.4 223.209524 72.9866667 222.638095 73.607619 221.990476 74.2819048 221.419048 74.9866667 220.847619 75.752381 220.238095 76.5409524 219.666667 77.3561905 221 70.1180952 209.533333 69.9733333 201.952381 113.321905"></polyline>
                        <polyline id="Fill-455" fill="#FFFFFF" points="251.857143 69.5238095 253.152381 69.5504762 254.371429 69.6342857 255.590476 69.7447619 256.771429 69.912381 257.914286 70.1409524 258.980952 70.4228571 260.047619 70.7352381 261.07619 71.0971429 262.066667 71.52 262.980952 71.9733333 263.933333 72.4533333 264.771429 72.9866667 265.609524 73.5771429 266.409524 74.1980952 267.133333 74.8495238 267.857143 75.5542857 268.504762 76.2857143 269.152381 77.0742857 269.685714 77.8666667 270.219048 78.7085714 270.752381 79.5809524 271.171429 80.5142857 271.590476 81.4438095 271.933333 82.4266667 272.238095 83.4171429 272.504762 84.4609524 272.733333 85.5314286 272.885714 86.6285714 273 87.7257143 273.038095 88.8838095 273.07619 90.0685714 273.038095 91.2495238 272.961905 92.6895238 272.809524 94.072381 272.619048 95.3942857 272.352381 96.6895238 272.085714 97.9314286 271.704762 99.112381 271.285714 100.270476 270.904762 101.36381 270.371429 102.411429 269.87619 103.424762 269.266667 104.380952 268.695238 105.28381 268.047619 106.16 267.32381 106.975238 266.6 107.737143 265.838095 108.472381 265.038095 109.146667 264.238095 109.798095 263.361905 110.384762 262.485714 110.925714 261.571429 111.428571 260.580952 111.881905 259.628571 112.304762 258.638095 112.666667 257.609524 113.005714 256.542857 113.291429 255.47619 113.52 254.409524 113.714286 253.266667 113.855238 252.161905 113.965714 250.980952 114.022857 249.838095 114.049524 248.695238 114.022857 247.514286 113.965714 246.447619 113.855238 245.342857 113.68381 244.27619 113.485714 243.171429 113.260952 242.180952 112.975238 241.190476 112.64381 240.2 112.274286 239.247619 111.851429 238.371429 111.401905 237.495238 110.895238 236.657143 110.361905 235.857143 109.76381 235.057143 109.146667 234.333333 108.472381 233.647619 107.76381 233 107.005714 232.390476 106.217143 231.780952 105.371429 231.285714 104.495238 230.790476 103.569524 230.371429 102.605714 229.952381 101.622857 229.647619 100.579048 229.304762 99.4819048 229.07619 98.3580952 228.847619 97.192381 228.733333 95.9885714 228.657143 94.7428571 228.619048 93.4514286 228.657143 92.1257143 228.733333 90.7733333 228.847619 89.4742857 229.07619 88.2057143 229.304762 86.9942857 229.609524 85.8095238 229.952381 84.6514286 230.295238 83.5542857 230.714286 82.487619 231.171429 81.4438095 231.666667 80.4571429 232.238095 79.5238095 232.847619 78.5980952 233.457143 77.752381 234.142857 76.9066667 234.828571 76.1409524 235.590476 75.3828571 236.352381 74.6780952 237.190476 74.0304762 238.028571 73.4133333 238.904762 72.8495238 239.819048 72.3390476 240.771429 71.8361905 241.761905 71.4095238 242.752381 71.0133333 243.819048 70.6819048 244.885714 70.3657143 245.990476 70.1180952 247.095238 69.8857143 248.238095 69.7447619 249.419048 69.607619 250.638095 69.5504762 251.857143 69.5238095"></polyline>
                        <polyline id="Stroke-456" stroke="#FFFFFF" stroke-width="0.215" points="251.857143 69.5238095 251.857143 69.5238095 253.152381 69.5504762 254.371429 69.6342857 255.590476 69.7447619 256.771429 69.912381 257.914286 70.1409524 258.980952 70.4228571 260.047619 70.7352381 261.07619 71.0971429 262.066667 71.52 262.980952 71.9733333 263.933333 72.4533333 264.771429 72.9866667 265.609524 73.5771429 266.409524 74.1980952 267.133333 74.8495238 267.857143 75.5542857 268.504762 76.2857143 269.152381 77.0742857 269.685714 77.8666667 270.219048 78.7085714 270.752381 79.5809524 271.171429 80.5142857 271.590476 81.4438095 271.933333 82.4266667 272.238095 83.4171429 272.504762 84.4609524 272.733333 85.5314286 272.885714 86.6285714 273 87.7257143 273.038095 88.8838095 273.07619 90.0685714 273.038095 91.2495238 272.961905 92.6895238 272.809524 94.072381 272.619048 95.3942857 272.352381 96.6895238 272.085714 97.9314286 271.704762 99.112381 271.285714 100.270476 270.904762 101.36381 270.371429 102.411429 269.87619 103.424762 269.266667 104.380952 268.695238 105.28381 268.047619 106.16 267.32381 106.975238 266.6 107.737143 265.838095 108.472381 265.038095 109.146667 264.238095 109.798095 263.361905 110.384762 262.485714 110.925714 261.571429 111.428571 260.580952 111.881905 259.628571 112.304762 258.638095 112.666667 257.609524 113.005714 256.542857 113.291429 255.47619 113.52 254.409524 113.714286 253.266667 113.855238 252.161905 113.965714 250.980952 114.022857 249.838095 114.049524 248.695238 114.022857 247.514286 113.965714 246.447619 113.855238 245.342857 113.68381 244.27619 113.485714 243.171429 113.260952 242.180952 112.975238 241.190476 112.64381 240.2 112.274286 239.247619 111.851429 238.371429 111.401905 237.495238 110.895238 236.657143 110.361905 235.857143 109.76381 235.057143 109.146667 234.333333 108.472381 233.647619 107.76381 233 107.005714 232.390476 106.217143 231.780952 105.371429 231.285714 104.495238 230.790476 103.569524 230.371429 102.605714 229.952381 101.622857 229.647619 100.579048 229.304762 99.4819048 229.07619 98.3580952 228.847619 97.192381 228.733333 95.9885714 228.657143 94.7428571 228.619048 93.4514286 228.657143 92.1257143 228.733333 90.7733333 228.847619 89.4742857 229.07619 88.2057143 229.304762 86.9942857 229.609524 85.8095238 229.952381 84.6514286 230.295238 83.5542857 230.714286 82.487619 231.171429 81.4438095 231.666667 80.4571429 232.238095 79.5238095 232.847619 78.5980952 233.457143 77.752381 234.142857 76.9066667 234.828571 76.1409524 235.590476 75.3828571 236.352381 74.6780952 237.190476 74.0304762 238.028571 73.4133333 238.904762 72.8495238 239.819048 72.3390476 240.771429 71.8361905 241.761905 71.4095238 242.752381 71.0133333 243.819048 70.6819048 244.885714 70.3657143 245.990476 70.1180952 247.095238 69.8857143 248.238095 69.7447619 249.419048 69.607619 250.638095 69.5504762 251.857143 69.5238095"></polyline>
                        <polyline id="Fill-457" fill="#FFFFFF" points="270.52381 111.428571 273.838095 111.428571 273.838095 111.847619 272.542857 111.847619 272.542857 114.609524 271.819048 114.609524 271.819048 111.847619 270.52381 111.847619 270.52381 111.428571"></polyline>
                        <polyline id="Stroke-458" stroke="#FFFFFF" stroke-width="0.215" points="270.52381 111.428571 273.838095 111.428571 273.838095 111.847619 272.542857 111.847619 272.542857 114.609524 271.819048 114.609524 271.819048 111.847619 270.52381 111.847619 270.52381 111.428571"></polyline>
                        <polyline id="Fill-459" fill="#FFFFFF" points="274.333333 111.428571 275.361905 111.428571 276.542857 113.878095 277.685714 111.428571 278.714286 111.428571 278.714286 114.609524 277.952381 114.609524 277.952381 112.16 276.809524 114.609524 276.238095 114.609524 275.057143 112.16 275.057143 114.609524 274.333333 114.609524 274.333333 111.428571"></polyline>
                        <polyline id="Stroke-460" stroke="#FFFFFF" stroke-width="0.215" points="274.333333 111.428571 275.361905 111.428571 276.542857 113.878095 277.685714 111.428571 278.714286 111.428571 278.714286 114.609524 277.952381 114.609524 277.952381 112.16 276.809524 114.609524 276.238095 114.609524 275.057143 112.16 275.057143 114.609524 274.333333 114.609524 274.333333 111.428571"></polyline>
                        <polyline id="Fill-461" fill="#EC1C2E" points="244.12381 92.08 243.971429 93.6609524 243.857143 95.127619 243.857143 96.4533333 243.971429 97.6914286 244.12381 98.8190476 244.390476 99.8057143 244.695238 100.708571 245.07619 101.52381 245.571429 102.224762 246.104762 102.819048 246.67619 103.325714 247.361905 103.725714 248.047619 104.030476 248.847619 104.259048 249.647619 104.369524 250.52381 104.426667 251.47619 104.4 252.428571 104.289524 253.304762 104.087619 254.142857 103.782857 254.942857 103.386667 255.704762 102.88 256.390476 102.281905 257.07619 101.577143 257.647619 100.792381 258.219048 99.8857143 258.752381 98.872381 259.209524 97.7752381 259.628571 96.567619 260.009524 95.2419048 260.27619 93.8019048 260.542857 92.2552381 260.695238 91.04 260.771429 89.8857143 260.771429 88.7580952 260.695238 87.687619 260.542857 86.7009524 260.314286 85.7409524 260.009524 84.8685714 259.628571 84.0533333 259.171429 83.3180952 258.67619 82.6971429 258.066667 82.1333333 257.419048 81.6838095 256.695238 81.3142857 255.895238 81.0895238 255.057143 80.952381 254.142857 80.952381 252.961905 81.0361905 251.895238 81.2342857 250.904762 81.5695238 249.990476 81.992381 249.152381 82.5561905 248.352381 83.1771429 247.666667 83.8780952 247.019048 84.6742857 246.447619 85.5161905 245.914286 86.4190476 245.495238 87.3180952 245.114286 88.2742857 244.771429 89.2342857 244.504762 90.1942857 244.314286 91.1542857 244.12381 92.08"></polyline>
                    </g>
                </g>
            </g>
        </g>
    </g>
</svg>